SplineFontDB: 1.0
FontName: THNiramitAS-Italic
FullName: THNiramitAS-Italic
FamilyName: TH Niramit AS
Weight: Book
Copyright: Copyright (c) 2006 by Department of Intellectual Property (DIP), Ministry of Commerce and Software Industry Promotion Agency (Public Organization) (SIPA). All rights reserved.
Version: 1.1
ItalicAngle: -12
UnderlinePosition: -35
UnderlineWidth: 30
Ascent: 800
Descent: 200
Order2: 1
XUID: [1021 375 425136265 9818168]
FSType: 0
OS2Version: 3
OS2_WeightWidthSlopeOnly: 0
OS2_UseTypoMetrics: 1
CreationTime: 1157457519
ModificationTime: 1174462336
PfmFamily: 17
TTFWeight: 400
TTFWidth: 5
LineGap: 60
VLineGap: 0
Panose: 2 0 5 6 0 0 0 2 0 4
OS2TypoAscent: 0
OS2TypoAOffset: 1
OS2TypoDescent: 0
OS2TypoDOffset: 1
OS2TypoLinegap: 0
OS2WinAscent: 17
OS2WinAOffset: 1
OS2WinDescent: 9
OS2WinDOffset: 1
HheadAscent: -39
HheadAOffset: 1
HheadDescent: 276
HheadDOffset: 1
OS2SubXSize: 700
OS2SubYSize: 650
OS2SubXOff: 0
OS2SubYOff: 140
OS2SupXSize: 700
OS2SupYSize: 650
OS2SupXOff: 0
OS2SupYOff: 477
OS2StrikeYSize: 30
OS2StrikeYPos: 250
OS2FamilyClass: 773
OS2Vendor: 'IPTH'
ScriptLang: 2
 1 latn 1 dflt 
 0 
ChainSub: coverage 0 0 'liga' 0 0 0 1
 1 0 1
  Coverage: 64 uni0E48.alt2 uni0E49.alt2 uni0E4A.alt2 uni0E4B.alt2 uni0E4C.alt2
  FCoverage: 7 uni0E33
 1
  SeqLookup: 0 'L027'
EndFPST
ChainSub: coverage 0 0 'liga' 0 0 0 1
 1 1 0
  Coverage: 7 uni0E47
  BCoverage: 12 uni0E2C.alt1
 1
  SeqLookup: 0 'L026'
EndFPST
ChainSub: coverage 0 0 'liga' 0 0 0 1
 1 0 1
  Coverage: 7 uni0E2C
  FCoverage: 39 uni0E34 uni0E35 uni0E36 uni0E37 uni0E47
 1
  SeqLookup: 0 'L026'
EndFPST
ChainSub: coverage 0 0 'liga' 0 0 0 1
 1 0 1
  Coverage: 15 uni0E0E uni0E0F
  FCoverage: 38 uni0E38.alt1 uni0E39.alt1 uni0E3A.alt1
 1
  SeqLookup: 0 'L026'
EndFPST
ChainSub: coverage 0 0 'liga' 0 0 0 1
 1 1 0
  Coverage: 5 a b c
  BCoverage: 23 uni0E1B uni0E1D uni0E1F
 1
  SeqLookup: 0 'L026'
EndFPST
ChainSub: coverage 0 0 'liga' 0 0 0 1
 1 0 1
  Coverage: 5 a b c

StartChar: .notdef
Encoding: 65536 -1 0
Width: 500
Flags: W
Fore
409 35 m 1,0,-1
 542 660 l 1,1,-1
 237 660 l 1,2,-1
 104 35 l 1,3,-1
 409 35 l 1,0,-1
436 0 m 1,4,-1
 63 0 l 1,5,-1
 210 695 l 1,6,-1
 583 695 l 1,7,-1
 436 0 l 1,4,-1
EndSplineSet
EndChar
StartChar: numbersign
Encoding: 35 35 4
Width: 341
Flags: W
Fore
313 291 m 1,0,1
 304 263 304 263 294.5 236 c 128,-1,2
 285 209 285 209 276 180 c 1,3,-1
 345 180 l 1,4,-1
 338 149 l 1,5,-1
 266 149 l 1,6,7
 254 111 254 111 241 74.5 c 128,-1,8
 228 38 228 38 216 0 c 1,9,-1
 181 0 l 1,10,-1
 231 149 l 1,11,-1
 148 149 l 1,12,-1
 99 0 l 1,13,-1
 64 0 l 1,14,-1
 113 149 l 1,15,-1
 49 149 l 1,16,-1
 56 180 l 1,17,-1
 124 180 l 1,18,19
 133 209 133 209 142.5 236 c 128,-1,20
 152 263 152 263 161 291 c 1,21,-1
 93 291 l 1,22,-1
 100 323 l 1,23,-1
 172 323 l 1,24,25
 184 358 184 358 197 395 c 128,-1,26
 210 432 210 432 222 467 c 1,27,-1
 255 467 l 1,28,-1
 206 323 l 1,29,-1
 290 323 l 1,30,31
 302 358 302 358 314.5 395 c 128,-1,32
 327 432 327 432 338 467 c 1,33,-1
 373 467 l 1,34,-1
 324 323 l 1,35,-1
 389 323 l 1,36,-1
 382 291 l 1,37,-1
 313 291 l 1,0,1
195 291 m 1,38,39
 187 263 187 263 177.5 236 c 128,-1,40
 168 209 168 209 159 180 c 1,41,-1
 242 180 l 1,42,43
 251 209 251 209 260.5 236 c 128,-1,44
 270 263 270 263 279 291 c 1,45,-1
 195 291 l 1,38,39
EndSplineSet
EndChar
StartChar: dollar
Encoding: 36 36 5
Width: 380
Flags: W
Fore
265 445 m 1,0,1
 223 441 223 441 195 418 c 128,-1,2
 167 395 167 395 160 363 c 0,3,4
 153 333 153 333 171.5 309.5 c 128,-1,5
 190 286 190 286 227 267 c 1,6,-1
 265 445 l 1,0,1
284 535 m 1,7,-1
 319 535 l 1,8,-1
 308 484 l 1,9,10
 340 481 340 481 370 470.5 c 128,-1,11
 400 460 400 460 418 444 c 1,12,-1
 391 410 l 1,13,14
 377 421 377 421 354.5 431.5 c 128,-1,15
 332 442 332 442 300 445 c 1,16,-1
 259 252 l 1,17,18
 289 241 289 241 313.5 229.5 c 128,-1,19
 338 218 338 218 354.5 202.5 c 128,-1,20
 371 187 371 187 378 166.5 c 128,-1,21
 385 146 385 146 379 118 c 0,22,23
 367 64 367 64 322.5 28.5 c 128,-1,24
 278 -7 278 -7 203 -12 c 1,25,-1
 193 -60 l 1,26,-1
 158 -60 l 1,27,-1
 168 -12 l 1,28,29
 142 -11 142 -11 122 -4.5 c 128,-1,30
 102 2 102 2 86 11 c 128,-1,31
 70 20 70 20 58.5 30.5 c 128,-1,32
 47 41 47 41 39 50 c 1,33,-1
 78 81 l 1,34,35
 90 65 90 65 112 47 c 128,-1,36
 134 29 134 29 176 24 c 1,37,-1
 217 221 l 1,38,39
 160 244 160 244 135.5 279.5 c 128,-1,40
 111 315 111 315 116 356 c 0,41,42
 119 379 119 379 131 401 c 128,-1,43
 143 423 143 423 163.5 440.5 c 128,-1,44
 184 458 184 458 211.5 470 c 128,-1,45
 239 482 239 482 273 484 c 1,46,-1
 284 535 l 1,7,-1
211 25 m 1,47,48
 259 29 259 29 294 52 c 128,-1,49
 329 75 329 75 336 108 c 0,50,51
 344 143 344 143 324.5 164 c 128,-1,52
 305 185 305 185 250 208 c 1,53,-1
 211 25 l 1,47,48
EndSplineSet
EndChar
StartChar: percent
Encoding: 37 37 6
Width: 585
Flags: W
Fore
531 485 m 1,0,-1
 177 -11 l 1,1,-1
 143 -11 l 1,2,-1
 496 485 l 1,3,-1
 531 485 l 1,0,-1
477 251 m 0,4,5
 499 251 499 251 514.5 240.5 c 128,-1,6
 530 230 530 230 538 213 c 128,-1,7
 546 196 546 196 547.5 173 c 128,-1,8
 549 150 549 150 544 126 c 256,9,10
 539 102 539 102 528 79.5 c 128,-1,11
 517 57 517 57 501.5 40 c 128,-1,12
 486 23 486 23 466 12.5 c 128,-1,13
 446 2 446 2 424 2 c 0,14,15
 401 2 401 2 386 12.5 c 128,-1,16
 371 23 371 23 362.5 40 c 128,-1,17
 354 57 354 57 352.5 79.5 c 128,-1,18
 351 102 351 102 356 126 c 256,19,20
 361 150 361 150 372 173 c 128,-1,21
 383 196 383 196 399 213 c 128,-1,22
 415 230 415 230 434.5 240.5 c 128,-1,23
 454 251 454 251 477 251 c 0,4,5
430 31 m 0,24,25
 447 31 447 31 461 40 c 128,-1,26
 475 49 475 49 485 63 c 128,-1,27
 495 77 495 77 502 93.5 c 128,-1,28
 509 110 509 110 512 126 c 256,29,30
 515 142 515 142 515.5 159 c 128,-1,31
 516 176 516 176 511.5 189.5 c 128,-1,32
 507 203 507 203 497 212 c 128,-1,33
 487 221 487 221 470 221 c 0,34,35
 452 221 452 221 438.5 212 c 128,-1,36
 425 203 425 203 415 189.5 c 128,-1,37
 405 176 405 176 398 159 c 128,-1,38
 391 142 391 142 388 126 c 256,39,40
 385 110 385 110 384.5 93.5 c 128,-1,41
 384 77 384 77 388 63 c 128,-1,42
 392 49 392 49 402 40 c 128,-1,43
 412 31 412 31 430 31 c 0,24,25
329 353 m 0,44,45
 324 328 324 328 312.5 305.5 c 128,-1,46
 301 283 301 283 285.5 265.5 c 128,-1,47
 270 248 270 248 250 238 c 128,-1,48
 230 228 230 228 208 228 c 256,49,50
 186 228 186 228 170.5 238 c 128,-1,51
 155 248 155 248 147 265.5 c 128,-1,52
 139 283 139 283 137.5 305.5 c 128,-1,53
 136 328 136 328 141 353 c 0,54,55
 146 377 146 377 157 399.5 c 128,-1,56
 168 422 168 422 183.5 439 c 128,-1,57
 199 456 199 456 219 466.5 c 128,-1,58
 239 477 239 477 261 477 c 256,59,60
 283 477 283 477 298.5 466.5 c 128,-1,61
 314 456 314 456 322.5 439 c 128,-1,62
 331 422 331 422 332.5 399.5 c 128,-1,63
 334 377 334 377 329 353 c 0,44,45
174 353 m 0,64,65
 170 336 170 336 169.5 319.5 c 128,-1,66
 169 303 169 303 173 289 c 128,-1,67
 177 275 177 275 187 266.5 c 128,-1,68
 197 258 197 258 214 258 c 0,69,70
 232 258 232 258 245.5 266.5 c 128,-1,71
 259 275 259 275 269.5 289 c 128,-1,72
 280 303 280 303 286.5 319.5 c 128,-1,73
 293 336 293 336 297 353 c 0,74,75
 300 369 300 369 300.5 385.5 c 128,-1,76
 301 402 301 402 296.5 415.5 c 128,-1,77
 292 429 292 429 282.5 438 c 128,-1,78
 273 447 273 447 255 447 c 0,79,80
 238 447 238 447 224 438 c 128,-1,81
 210 429 210 429 200 415.5 c 128,-1,82
 190 402 190 402 183.5 385.5 c 128,-1,83
 177 369 177 369 174 353 c 0,64,65
EndSplineSet
EndChar
StartChar: ampersand
Encoding: 38 38 7
Width: 429
Flags: W
Fore
424 3 m 1,0,-1
 368 3 l 1,1,-1
 331 65 l 1,2,3
 297 30 297 30 262 11.5 c 128,-1,4
 227 -7 227 -7 185 -7 c 0,5,6
 153 -7 153 -7 126.5 2.5 c 128,-1,7
 100 12 100 12 82.5 30 c 128,-1,8
 65 48 65 48 58.5 74 c 128,-1,9
 52 100 52 100 59 133 c 0,10,11
 65 160 65 160 78.5 181.5 c 128,-1,12
 92 203 92 203 111 220 c 128,-1,13
 130 237 130 237 151.5 251.5 c 128,-1,14
 173 266 173 266 194 280 c 0,15,16
 195 281 195 281 198 283 c 1,17,18
 190 295 190 295 183 308.5 c 128,-1,19
 176 322 176 322 171 336.5 c 128,-1,20
 166 351 166 351 164 367 c 128,-1,21
 162 383 162 383 166 401 c 0,22,23
 170 423 170 423 182 439 c 128,-1,24
 194 455 194 455 209.5 465.5 c 128,-1,25
 225 476 225 476 243 481.5 c 128,-1,26
 261 487 261 487 278 487 c 0,27,28
 296 487 296 487 311.5 482 c 128,-1,29
 327 477 327 477 338.5 466.5 c 128,-1,30
 350 456 350 456 354.5 440.5 c 128,-1,31
 359 425 359 425 355 403 c 0,32,33
 350 382 350 382 339.5 364 c 128,-1,34
 329 346 329 346 315 331 c 128,-1,35
 301 316 301 316 284 303 c 128,-1,36
 267 290 267 290 251 278 c 1,37,-1
 344 130 l 1,38,39
 363 161 363 161 378.5 201 c 128,-1,40
 394 241 394 241 403 278 c 1,41,-1
 441 276 l 1,42,43
 427 230 427 230 410 185 c 128,-1,44
 393 140 393 140 364 101 c 1,45,-1
 424 3 l 1,0,-1
208 400 m 0,46,47
 202 374 202 374 212 348.5 c 128,-1,48
 222 323 222 323 234 306 c 1,49,50
 245 316 245 316 257.5 326 c 128,-1,51
 270 336 270 336 281.5 347 c 128,-1,52
 293 358 293 358 302 371 c 128,-1,53
 311 384 311 384 314 400 c 0,54,55
 319 424 319 424 305.5 435.5 c 128,-1,56
 292 447 292 447 271 447 c 0,57,58
 251 447 251 447 232 436.5 c 128,-1,59
 213 426 213 426 208 400 c 0,46,47
190 32 m 0,60,61
 225 32 225 32 255 48.5 c 128,-1,62
 285 65 285 65 314 94 c 1,63,-1
 215 253 l 1,64,65
 203 245 203 245 185.5 232.5 c 128,-1,66
 168 220 168 220 150.5 205 c 128,-1,67
 133 190 133 190 119.5 174 c 128,-1,68
 106 158 106 158 103 142 c 0,69,70
 97 116 97 116 102 96 c 128,-1,71
 107 76 107 76 119.5 61.5 c 128,-1,72
 132 47 132 47 150.5 39.5 c 128,-1,73
 169 32 169 32 190 32 c 0,60,61
EndSplineSet
EndChar
StartChar: quotesingle
Encoding: 39 39 8
Width: 179
Flags: W
Fore
196 393 m 1,0,-1
 169 307 l 1,1,-1
 141 307 l 1,2,-1
 149 393 l 1,3,-1
 165 469 l 1,4,-1
 212 469 l 1,5,-1
 196 393 l 1,0,-1
EndSplineSet
EndChar
StartChar: parenleft
Encoding: 40 40 9
Width: 200
Flags: W
Fore
147 -80 m 1,0,-1
 117 -80 l 1,1,2
 82 -11 82 -11 74 62.5 c 128,-1,3
 66 136 66 136 80 205 c 256,4,5
 94 274 94 274 132 343.5 c 128,-1,6
 170 413 170 413 240 494 c 1,7,-1
 268 494 l 1,8,9
 208 423 208 423 170 348 c 128,-1,10
 132 273 132 273 118 203 c 0,11,12
 102 131 102 131 108.5 58.5 c 128,-1,13
 115 -14 115 -14 147 -80 c 1,0,-1
EndSplineSet
EndChar
StartChar: parenright
Encoding: 41 41 10
Width: 200
Flags: W
Fore
18 -79 m 1,0,1
 78 -13 78 -13 115.5 59.5 c 128,-1,2
 153 132 153 132 168 204 c 0,3,4
 183 274 183 274 177 349 c 128,-1,5
 171 424 171 424 142 495 c 1,6,-1
 170 495 l 1,7,8
 205 414 205 414 213 344.5 c 128,-1,9
 221 275 221 275 206 206 c 0,10,11
 192 137 192 137 152 63.5 c 128,-1,12
 112 -10 112 -10 48 -79 c 1,13,-1
 18 -79 l 1,14,-1
 18 -79 l 1,0,1
EndSplineSet
EndChar
StartChar: asterisk
Encoding: 42 42 11
Width: 353
Flags: W
Fore
261 353 m 1,0,-1
 301 279 l 1,1,2
 303 272 303 272 298.5 264 c 128,-1,3
 294 256 294 256 285 254 c 0,4,5
 278 252 278 252 272.5 254 c 128,-1,6
 267 256 267 256 266 262 c 2,7,-1
 250 347 l 1,8,9
 245 339 245 339 236.5 326 c 128,-1,10
 228 313 228 313 219.5 299.5 c 128,-1,11
 211 286 211 286 204 274.5 c 128,-1,12
 197 263 197 263 194 259 c 1,13,14
 189 254 189 254 182 253.5 c 128,-1,15
 175 253 175 253 171 255 c 0,16,17
 166 258 166 258 165 264.5 c 128,-1,18
 164 271 164 271 168 276 c 0,19,20
 171 280 171 280 181 290 c 128,-1,21
 191 300 191 300 202.5 312 c 128,-1,22
 214 324 214 324 225 335.5 c 128,-1,23
 236 347 236 347 243 354 c 1,24,-1
 148 340 l 2,25,26
 141 338 141 338 136.5 343 c 128,-1,27
 132 348 132 348 133 353 c 1,28,29
 133 361 133 361 139.5 369 c 128,-1,30
 146 377 146 377 154 376 c 2,31,-1
 243 364 l 1,32,-1
 204 438 l 2,33,34
 200 444 200 444 205 452.5 c 128,-1,35
 210 461 210 461 220 463 c 1,36,37
 227 466 227 466 232 463 c 128,-1,38
 237 460 237 460 238 455 c 2,39,-1
 254 370 l 1,40,41
 259 377 259 377 267.5 390 c 128,-1,42
 276 403 276 403 285 417 c 128,-1,43
 294 431 294 431 301 442.5 c 128,-1,44
 308 454 308 454 311 458 c 1,45,46
 316 463 316 463 322.5 464 c 128,-1,47
 329 465 329 465 334 462 c 0,48,49
 338 460 338 460 339.5 453 c 128,-1,50
 341 446 341 446 336 441 c 1,51,52
 333 437 333 437 324 427 c 128,-1,53
 315 417 315 417 303.5 405 c 128,-1,54
 292 393 292 393 280.5 382 c 128,-1,55
 269 371 269 371 263 364 c 1,56,-1
 357 377 l 2,57,58
 364 377 364 377 368.5 374 c 128,-1,59
 373 371 373 371 371 363 c 2,60,61
 373 355 373 355 365.5 347.5 c 128,-1,62
 358 340 358 340 350 341 c 2,63,-1
 261 353 l 1,0,-1
EndSplineSet
EndChar
StartChar: plus
Encoding: 43 43 12
Width: 386
Flags: W
Fore
244 326 m 1,0,-1
 280 326 l 1,1,-1
 249 183 l 1,2,-1
 377 183 l 1,3,-1
 369 144 l 1,4,-1
 241 144 l 1,5,-1
 211 0 l 1,6,-1
 175 0 l 1,7,-1
 205 144 l 1,8,-1
 77 144 l 1,9,-1
 85 183 l 1,10,-1
 213 183 l 1,11,-1
 244 326 l 1,0,-1
EndSplineSet
EndChar
StartChar: comma
Encoding: 44 44 13
Width: 200
Flags: W
Fore
43 -52 m 1,0,1
 66 -44 66 -44 84 -28.5 c 128,-1,2
 102 -13 102 -13 107 1 c 1,3,4
 88 -6 88 -6 75.5 5.5 c 128,-1,5
 63 17 63 17 67 35 c 0,6,7
 69 46 69 46 82 59 c 128,-1,8
 95 72 95 72 113 72 c 0,9,10
 134 72 134 72 143 59.5 c 128,-1,11
 152 47 152 47 147 26 c 0,12,13
 143 6 143 6 132.5 -10 c 128,-1,14
 122 -26 122 -26 108.5 -39 c 128,-1,15
 95 -52 95 -52 80.5 -61 c 128,-1,16
 66 -70 66 -70 54 -75 c 1,17,18
 52.5 -72 l 130,-1,19
 51 -69 51 -69 49 -64.5 c 128,-1,20
 47 -60 47 -60 45 -56.5 c 128,-1,21
 43 -53 43 -53 43 -52 c 1,0,1
EndSplineSet
EndChar
StartChar: hyphen
Encoding: 45 45 14
Width: 386
Flags: W
Fore
85 183 m 1,0,-1
 377 183 l 1,1,-1
 369 144 l 1,2,-1
 77 144 l 1,3,-1
 85 183 l 1,0,-1
EndSplineSet
EndChar
StartChar: period
Encoding: 46 46 15
Width: 181
Flags: W
Fore
90 0 m 256,0,1
 72 0 72 0 65.5 11.5 c 128,-1,2
 59 23 59 23 61.5 36.5 c 128,-1,3
 64 50 64 50 75.5 61.5 c 128,-1,4
 87 73 87 73 105 73 c 256,5,6
 123 73 123 73 129.5 61.5 c 128,-1,7
 136 50 136 50 133.5 36.5 c 128,-1,8
 131 23 131 23 119.5 11.5 c 128,-1,9
 108 0 108 0 90 0 c 256,0,1
EndSplineSet
EndChar
StartChar: slash
Encoding: 47 47 16
Width: 174
Flags: W
Fore
22 -41 m 1,0,-1
 -13 -41 l 1,1,-1
 251 497 l 1,2,-1
 290 497 l 1,3,-1
 22 -41 l 1,0,-1
EndSplineSet
EndChar
StartChar: zero
Encoding: 48 48 17
Width: 394
Flags: W
Fore
195 -7 m 0,0,1
 129 -7 129 -7 96 38 c 0,2,3
 73 70 73 70 67.5 119 c 128,-1,4
 62 168 62 168 78 240 c 0,5,6
 96 325 96 325 126 375 c 128,-1,7
 156 425 156 425 188.5 450.5 c 128,-1,8
 221 476 221 476 251.5 483.5 c 128,-1,9
 282 491 282 491 301 491 c 0,10,11
 366 491 366 491 400 446 c 0,12,13
 423 414 423 414 427 362.5 c 128,-1,14
 431 311 431 311 417 240 c 0,15,16
 386 100 386 100 314 38 c 0,17,18
 260 -7 260 -7 195 -7 c 0,0,1
119 240 m 0,19,20
 92 118 92 118 131 69 c 0,21,22
 155 37 155 37 204 37 c 0,23,24
 244 37 244 37 273 55.5 c 128,-1,25
 302 74 302 74 322 103 c 128,-1,26
 342 132 342 132 355 168 c 128,-1,27
 368 204 368 204 376 240 c 0,28,29
 402 366 402 366 365 415 c 0,30,31
 339 448 339 448 292 448 c 0,32,33
 242 448 242 448 205 415 c 0,34,35
 176 390 176 390 154 346.5 c 128,-1,36
 132 303 132 303 119 240 c 0,19,20
EndSplineSet
EndChar
StartChar: one
Encoding: 49 49 18
Width: 285
Flags: W
Fore
151 339 m 1,0,-1
 126 367 l 1,1,-1
 279 477 l 2,2,3
 287 482 287 482 294 480.5 c 128,-1,4
 301 479 301 479 309 474 c 0,5,6
 315 469 315 469 316 461.5 c 128,-1,7
 317 454 317 454 309 447 c 1,8,9
 305 445 305 445 302 443 c 128,-1,10
 299 441 299 441 297 439 c 0,11,12
 294 437 294 437 291 436 c 1,13,-1
 198 -1 l 1,14,-1
 156 -1 l 1,15,-1
 242 403 l 1,16,-1
 151 339 l 1,0,-1
EndSplineSet
EndChar
StartChar: two
Encoding: 50 50 19
Width: 380
Flags: W
Fore
328 0 m 1,0,-1
 52 0 l 2,1,2
 38 0 38 0 33.5 2.5 c 128,-1,3
 29 5 29 5 35 22 c 0,4,5
 39 32 39 32 41 36.5 c 128,-1,6
 43 41 43 41 45.5 42.5 c 128,-1,7
 48 44 48 44 50.5 43.5 c 128,-1,8
 53 43 53 43 59 43 c 1,9,10
 76 65 76 65 109 92.5 c 128,-1,11
 142 120 142 120 179 146 c 0,12,13
 209 167 209 167 239 189.5 c 128,-1,14
 269 212 269 212 294 236.5 c 128,-1,15
 319 261 319 261 336.5 286.5 c 128,-1,16
 354 312 354 312 359 339 c 0,17,18
 365 378 365 378 349.5 402 c 128,-1,19
 334 426 334 426 308.5 434 c 128,-1,20
 283 442 283 442 252 434 c 128,-1,21
 221 426 221 426 194 400 c 0,22,23
 176 379 176 379 168 355.5 c 128,-1,24
 160 332 160 332 160 315 c 1,25,-1
 119 305 l 1,26,27
 120 324 120 324 128 356.5 c 128,-1,28
 136 389 136 389 168 425 c 0,29,30
 184 443 184 443 205 455 c 128,-1,31
 226 467 226 467 248 473 c 128,-1,32
 270 479 270 479 292.5 478.5 c 128,-1,33
 315 478 315 478 335 472 c 0,34,35
 373 460 373 460 391 426 c 128,-1,36
 409 392 409 392 401 341 c 0,37,38
 396 306 396 306 375 274.5 c 128,-1,39
 354 243 354 243 324.5 214.5 c 128,-1,40
 295 186 295 186 261 160.5 c 128,-1,41
 227 135 227 135 196 113 c 0,42,43
 173 97 173 97 150 78.5 c 128,-1,44
 127 60 127 60 110 43 c 1,45,-1
 311 43 l 1,46,-1
 338 80 l 1,47,48
 338 81 338 81 343 78 c 128,-1,49
 348 75 348 75 354 71 c 0,50,51
 361 67 361 67 369 61 c 1,52,-1
 328 0 l 1,0,-1
EndSplineSet
EndChar
StartChar: three
Encoding: 51 51 20
Width: 398
Flags: W
Fore
92 142 m 1,0,1
 94 108 94 108 105.5 85.5 c 128,-1,2
 117 63 117 63 134.5 50 c 128,-1,3
 152 37 152 37 173 32 c 128,-1,4
 194 27 194 27 216 29 c 0,5,6
 242 31 242 31 266.5 45 c 128,-1,7
 291 59 291 59 309.5 80 c 128,-1,8
 328 101 328 101 340.5 126.5 c 128,-1,9
 353 152 353 152 356.5 177 c 128,-1,10
 360 202 360 202 353 224.5 c 128,-1,11
 346 247 346 247 326 261 c 0,12,13
 302 278 302 278 273.5 277 c 128,-1,14
 245 276 245 276 228 268 c 1,15,16
 227 267 227 267 223.5 264 c 128,-1,17
 220 261 220 261 215 256 c 256,18,19
 210 251 210 251 203 245 c 0,20,21
 195 238 195 238 190 241.5 c 128,-1,22
 185 245 185 245 180 250 c 1,23,24
 175 257 175 257 173.5 262 c 128,-1,25
 172 267 172 267 179 273 c 2,26,-1
 351 431 l 1,27,-1
 188 431 l 1,28,-1
 154 370 l 1,29,30
 145 375 145 375 138 379 c 0,31,32
 132 382 132 382 127 384.5 c 128,-1,33
 122 387 122 387 122 388 c 1,34,-1
 166 473 l 1,35,-1
 422 473 l 2,36,37
 431 473 431 473 433.5 469.5 c 128,-1,38
 436 466 436 466 430 452 c 0,39,40
 423 436 423 436 421 433.5 c 128,-1,41
 419 431 419 431 410 431 c 2,42,-1
 405 431 l 1,43,-1
 279 320 l 1,44,45
 320 320 320 320 353 299 c 0,46,47
 362 293 362 293 371 284 c 128,-1,48
 380 275 380 275 387 261.5 c 128,-1,49
 394 248 394 248 397 229.5 c 128,-1,50
 400 211 400 211 397 187 c 0,51,52
 392 143 392 143 372.5 108 c 128,-1,53
 353 73 353 73 326.5 47.5 c 128,-1,54
 300 22 300 22 269.5 8 c 128,-1,55
 239 -6 239 -6 211 -6 c 0,56,57
 182 -6 182 -6 155 -1 c 128,-1,58
 128 4 128 4 106.5 18.5 c 128,-1,59
 85 33 85 33 70 60 c 128,-1,60
 55 87 55 87 51 130 c 1,61,-1
 92 142 l 1,0,1
EndSplineSet
EndChar
StartChar: four
Encoding: 52 52 21
Width: 362
Flags: W
Fore
275 147 m 1,0,-1
 325 383 l 1,1,-1
 99 147 l 1,2,-1
 275 147 l 1,0,-1
266 107 m 1,3,-1
 49 107 l 2,4,5
 46 107 46 107 43 110 c 128,-1,6
 40 113 40 113 38.5 118.5 c 128,-1,7
 37 124 37 124 37.5 130 c 128,-1,8
 38 136 38 136 42 141 c 2,9,-1
 365 477 l 1,10,11
 370 484 370 484 375 481.5 c 128,-1,12
 380 479 380 479 384 473 c 128,-1,13
 388 467 388 467 389 460.5 c 128,-1,14
 390 454 390 454 388 452 c 2,15,-1
 379 440 l 1,16,-1
 317 147 l 1,17,-1
 382 147 l 1,18,-1
 373 107 l 1,19,-1
 308 107 l 1,20,-1
 286 0 l 1,21,-1
 244 0 l 1,22,-1
 266 107 l 1,3,-1
EndSplineSet
EndChar
StartChar: five
Encoding: 53 53 22
Width: 398
Flags: W
Fore
92 226 m 1,0,1
 96 236 96 236 106 261.5 c 128,-1,2
 116 287 116 287 128 318.5 c 128,-1,3
 140 350 140 350 152 382 c 128,-1,4
 164 414 164 414 172 438 c 1,5,6
 169 440 169 440 167.5 445 c 128,-1,7
 166 450 166 450 171 461 c 0,8,9
 177 472 177 472 181 473.5 c 128,-1,10
 185 475 185 475 195 475 c 2,11,-1
 445 475 l 1,12,-1
 437 433 l 1,13,-1
 213 433 l 1,14,15
 206 412 206 412 191 374.5 c 128,-1,16
 176 337 176 337 162 300 c 1,17,18
 246 354 246 354 323 333 c 0,19,20
 360 323 360 323 379 300 c 128,-1,21
 398 277 398 277 403.5 247 c 128,-1,22
 409 217 409 217 403 183.5 c 128,-1,23
 397 150 397 150 384 120 c 0,24,25
 375 99 375 99 360 79.5 c 128,-1,26
 345 60 345 60 326 43.5 c 128,-1,27
 307 27 307 27 284.5 15 c 128,-1,28
 262 3 262 3 238 -3 c 0,29,30
 222 -7 222 -7 200.5 -8.5 c 128,-1,31
 179 -10 179 -10 156 -4.5 c 128,-1,32
 133 1 133 1 108.5 15.5 c 128,-1,33
 84 30 84 30 62 58 c 1,34,-1
 96 89 l 1,35,36
 113 70 113 70 128.5 57.5 c 128,-1,37
 144 45 144 45 160 39 c 128,-1,38
 176 33 176 33 194 32.5 c 128,-1,39
 212 32 212 32 233 37 c 0,40,41
 270 45 270 45 301 72 c 128,-1,42
 332 99 332 99 346 129 c 0,43,44
 351 141 351 141 358 164 c 128,-1,45
 365 187 365 187 364 212.5 c 128,-1,46
 363 238 363 238 349.5 260.5 c 128,-1,47
 336 283 336 283 301 293 c 0,48,49
 251 307 251 307 204.5 284.5 c 128,-1,50
 158 262 158 262 126 212 c 1,51,52
 116 216 116 216 109 219 c 0,53,54
 103 221 103 221 97.5 223 c 128,-1,55
 92 225 92 225 92 226 c 1,0,1
EndSplineSet
EndChar
StartChar: six
Encoding: 54 54 23
Width: 405
Flags: W
Fore
315 68 m 0,0,1
 360 113 360 113 365 181 c 0,2,3
 368 217 368 217 353 241 c 128,-1,4
 338 265 338 265 312 274 c 128,-1,5
 286 283 286 283 253.5 277 c 128,-1,6
 221 271 221 271 190 249 c 0,7,8
 178 240 178 240 165.5 226.5 c 128,-1,9
 153 213 153 213 142.5 195.5 c 128,-1,10
 132 178 132 178 126 157 c 128,-1,11
 120 136 120 136 121 111 c 0,12,13
 122 81 122 81 142.5 59.5 c 128,-1,14
 163 38 163 38 192 30.5 c 128,-1,15
 221 23 221 23 254 31.5 c 128,-1,16
 287 40 287 40 315 68 c 0,0,1
399 356 m 1,17,18
 399 391 399 391 379.5 413 c 128,-1,19
 360 435 360 435 331 441 c 128,-1,20
 302 447 302 447 268.5 436.5 c 128,-1,21
 235 426 235 426 206 396 c 0,22,23
 192 381 192 381 178 359.5 c 128,-1,24
 164 338 164 338 152 313.5 c 128,-1,25
 140 289 140 289 131.5 264 c 128,-1,26
 123 239 123 239 120 218 c 1,27,28
 144 257 144 257 175.5 280.5 c 128,-1,29
 207 304 207 304 239.5 313.5 c 128,-1,30
 272 323 272 323 302.5 319.5 c 128,-1,31
 333 316 333 316 356.5 299.5 c 128,-1,32
 380 283 380 283 393.5 255 c 128,-1,33
 407 227 407 227 405 188 c 0,34,35
 403 146 403 146 386 108.5 c 128,-1,36
 369 71 369 71 341 43.5 c 128,-1,37
 313 16 313 16 275.5 1.5 c 128,-1,38
 238 -13 238 -13 195 -10 c 0,39,40
 147 -7 147 -7 119 19 c 128,-1,41
 91 45 91 45 80.5 84 c 128,-1,42
 70 123 70 123 74 171 c 128,-1,43
 78 219 78 219 93.5 266 c 128,-1,44
 109 313 109 313 133 355 c 128,-1,45
 157 397 157 397 187 425 c 0,46,47
 223 459 223 459 265.5 472 c 128,-1,48
 308 485 308 485 345.5 478 c 128,-1,49
 383 471 383 471 409 443 c 128,-1,50
 435 415 435 415 436 366 c 1,51,-1
 399 356 l 1,17,18
EndSplineSet
EndChar
StartChar: seven
Encoding: 55 55 24
Width: 363
Flags: W
Fore
111 370 m 1,0,1
 112 391 112 391 113 409 c 0,2,3
 114 424 114 424 114.5 437 c 128,-1,4
 115 450 115 450 116 452 c 2,5,6
 118 461 118 461 125 467.5 c 128,-1,7
 132 474 132 474 141 474 c 2,8,-1
 441 474 l 2,9,10
 449 474 449 474 450.5 466.5 c 128,-1,11
 452 459 452 459 439 436 c 0,12,13
 435 430 435 430 431 430.5 c 128,-1,14
 427 431 427 431 425 430 c 1,15,16
 421 418 421 418 420 411 c 128,-1,17
 419 404 419 404 416.5 397.5 c 128,-1,18
 414 391 414 391 408 382.5 c 128,-1,19
 402 374 402 374 388 360 c 0,20,21
 316 287 316 287 258.5 193 c 128,-1,22
 201 99 201 99 170 -1 c 1,23,-1
 129 -1 l 1,24,25
 146 50 146 50 170 102.5 c 128,-1,26
 194 155 194 155 224 205.5 c 128,-1,27
 254 256 254 256 288 302 c 128,-1,28
 322 348 322 348 359 385 c 0,29,30
 369 395 369 395 373.5 399.5 c 128,-1,31
 378 404 378 404 379.5 408 c 128,-1,32
 381 412 381 412 381.5 417 c 128,-1,33
 382 422 382 422 385 432 c 1,34,-1
 157 432 l 1,35,-1
 154 383 l 1,36,-1
 111 370 l 1,0,1
EndSplineSet
EndChar
StartChar: eight
Encoding: 56 56 25
Width: 406
Flags: W
Fore
375 252 m 0,0,1
 392 230 392 230 398.5 202 c 128,-1,2
 405 174 405 174 398 144 c 0,3,4
 391 110 391 110 371.5 81.5 c 128,-1,5
 352 53 352 53 325 32 c 128,-1,6
 298 11 298 11 265 -0.5 c 128,-1,7
 232 -12 232 -12 198 -12 c 0,8,9
 163 -12 163 -12 135 0 c 128,-1,10
 107 12 107 12 89 33 c 128,-1,11
 71 54 71 54 64 82.5 c 128,-1,12
 57 111 57 111 64 144 c 0,13,14
 74 192 74 192 108 228 c 128,-1,15
 142 264 142 264 187 281 c 1,16,17
 167 297 167 297 159 321.5 c 128,-1,18
 151 346 151 346 157 373 c 0,19,20
 162 397 162 397 175 418 c 128,-1,21
 188 439 188 439 207.5 454.5 c 128,-1,22
 227 470 227 470 252 479 c 128,-1,23
 277 488 277 488 304 488 c 0,24,25
 330 488 330 488 351 479.5 c 128,-1,26
 372 471 372 471 385 455.5 c 128,-1,27
 398 440 398 440 403 419 c 128,-1,28
 408 398 408 398 403 373 c 0,29,30
 398 352 398 352 386.5 332 c 128,-1,31
 375 312 375 312 356 298 c 0,32,33
 351 294 351 294 345 289 c 128,-1,34
 339 284 339 284 334 282 c 1,35,36
 346 276 346 276 356.5 269 c 128,-1,37
 367 262 367 262 375 252 c 0,0,1
227 418 m 0,38,39
 205 399 205 399 199.5 373.5 c 128,-1,40
 194 348 194 348 208 328 c 0,41,42
 220 315 220 315 233 308.5 c 128,-1,43
 246 302 246 302 265 302 c 0,44,45
 300 302 300 302 327 323 c 128,-1,46
 354 344 354 344 361 373 c 0,47,48
 364 389 364 389 360 402.5 c 128,-1,49
 356 416 356 416 346.5 425.5 c 128,-1,50
 337 435 337 435 323.5 440 c 128,-1,51
 310 445 310 445 295 445 c 0,52,53
 276 445 276 445 260 438 c 128,-1,54
 244 431 244 431 227 418 c 0,38,39
206 24 m 0,55,56
 260 24 260 24 300.5 56 c 128,-1,57
 341 88 341 88 353 144 c 0,58,59
 358 168 358 168 353 189.5 c 128,-1,60
 348 211 348 211 335 226.5 c 128,-1,61
 322 242 322 242 301.5 251 c 128,-1,62
 281 260 281 260 256 260 c 0,63,64
 230 260 230 260 206 251 c 128,-1,65
 182 242 182 242 162 226.5 c 128,-1,66
 142 211 142 211 127.5 190 c 128,-1,67
 113 169 113 169 108 144 c 0,68,69
 97 89 97 89 126 56.5 c 128,-1,70
 155 24 155 24 206 24 c 0,55,56
EndSplineSet
EndChar
StartChar: nine
Encoding: 57 57 26
Width: 405
Flags: W
Fore
98 102 m 1,0,1
 99 75 99 75 123 55 c 128,-1,2
 147 35 147 35 180 30 c 0,3,4
 222 25 222 25 255 44 c 128,-1,5
 288 63 288 63 312 92 c 0,6,7
 330 114 330 114 343.5 147.5 c 128,-1,8
 357 181 357 181 368 223 c 1,9,10
 350 200 350 200 325 184.5 c 128,-1,11
 300 169 300 169 272.5 162.5 c 128,-1,12
 245 156 245 156 217.5 157.5 c 128,-1,13
 190 159 190 159 166 170 c 0,14,15
 131 186 131 186 114 216 c 128,-1,16
 97 246 97 246 96.5 282 c 128,-1,17
 96 318 96 318 110 355.5 c 128,-1,18
 124 393 124 393 151.5 423.5 c 128,-1,19
 179 454 179 454 218 473 c 128,-1,20
 257 492 257 492 306 490 c 0,21,22
 351 488 351 488 381 468.5 c 128,-1,23
 411 449 411 449 424 410 c 0,24,25
 435 376 435 376 431 327 c 128,-1,26
 427 278 427 278 413.5 228.5 c 128,-1,27
 400 179 400 179 380.5 135.5 c 128,-1,28
 361 92 361 92 342 69 c 0,29,30
 307 27 307 27 264.5 7.5 c 128,-1,31
 222 -12 222 -12 166 -7 c 0,32,33
 121 -2 121 -2 90.5 21 c 128,-1,34
 60 44 60 44 57 82 c 1,35,-1
 98 102 l 1,0,1
319 220 m 0,36,37
 351 242 351 242 369 279.5 c 128,-1,38
 387 317 387 317 386.5 354 c 128,-1,39
 386 391 386 391 364 418.5 c 128,-1,40
 342 446 342 446 295 448 c 0,41,42
 260 449 260 449 231.5 435 c 128,-1,43
 203 421 203 421 183 398.5 c 128,-1,44
 163 376 163 376 152 348.5 c 128,-1,45
 141 321 141 321 141 293.5 c 128,-1,46
 141 266 141 266 153 243 c 128,-1,47
 165 220 165 220 190 207 c 0,48,49
 218 193 218 193 254.5 196.5 c 128,-1,50
 291 200 291 200 319 220 c 0,36,37
EndSplineSet
EndChar
StartChar: colon
Encoding: 58 58 27
Width: 199
Flags: W
Fore
156 261 m 256,0,1
 138 261 138 261 131.5 272.5 c 128,-1,2
 125 284 125 284 127.5 297.5 c 128,-1,3
 130 311 130 311 141.5 322.5 c 128,-1,4
 153 334 153 334 171 334 c 256,5,6
 189 334 189 334 195.5 322.5 c 128,-1,7
 202 311 202 311 199.5 297.5 c 128,-1,8
 197 284 197 284 185.5 272.5 c 128,-1,9
 174 261 174 261 156 261 c 256,0,1
100 -1 m 256,10,11
 82 -1 82 -1 75.5 10.5 c 128,-1,12
 69 22 69 22 72 35.5 c 128,-1,13
 75 49 75 49 86.5 60.5 c 128,-1,14
 98 72 98 72 116 72 c 256,15,16
 134 72 134 72 140.5 60.5 c 128,-1,17
 147 49 147 49 144 35.5 c 128,-1,18
 141 22 141 22 129.5 10.5 c 128,-1,19
 118 -1 118 -1 100 -1 c 256,10,11
EndSplineSet
EndChar
StartChar: semicolon
Encoding: 59 59 28
Width: 200
Flags: W
Fore
156 261 m 256,0,1
 138 261 138 261 131.5 272.5 c 128,-1,2
 125 284 125 284 127.5 297.5 c 128,-1,3
 130 311 130 311 141.5 322.5 c 128,-1,4
 153 334 153 334 171 334 c 256,5,6
 189 334 189 334 195.5 322.5 c 128,-1,7
 202 311 202 311 199.5 297.5 c 128,-1,8
 197 284 197 284 185.5 272.5 c 128,-1,9
 174 261 174 261 156 261 c 256,0,1
45 -52 m 1,10,11
 68 -44 68 -44 86 -28.5 c 128,-1,12
 104 -13 104 -13 109 1 c 1,13,14
 90 -6 90 -6 77.5 5.5 c 128,-1,15
 65 17 65 17 69 35 c 0,16,17
 71 46 71 46 84 59 c 128,-1,18
 97 72 97 72 115 72 c 0,19,20
 136 72 136 72 145 59.5 c 128,-1,21
 154 47 154 47 149 26 c 0,22,23
 145 6 145 6 134.5 -10 c 128,-1,24
 124 -26 124 -26 110.5 -39 c 128,-1,25
 97 -52 97 -52 82.5 -61 c 128,-1,26
 68 -70 68 -70 56 -75 c 1,27,28
 54.5 -72 l 130,-1,29
 53 -69 53 -69 51 -64.5 c 128,-1,30
 49 -60 49 -60 47 -56.5 c 128,-1,31
 45 -53 45 -53 45 -52 c 1,10,11
EndSplineSet
EndChar
StartChar: less
Encoding: 60 60 29
Width: 412
Flags: W
Fore
430 298 m 1,0,-1
 119 171 l 1,1,-1
 374 35 l 1,2,-1
 365 -8 l 1,3,-1
 74 154 l 1,4,-1
 82 189 l 1,5,-1
 439 341 l 1,6,-1
 430 298 l 1,0,-1
EndSplineSet
EndChar
StartChar: equal
Encoding: 61 61 30
Width: 426
Flags: W
Fore
420 220 m 1,0,-1
 95 220 l 1,1,-1
 103 258 l 1,2,-1
 428 258 l 1,3,-1
 420 220 l 1,0,-1
391 84 m 1,4,-1
 66 84 l 1,5,-1
 75 124 l 1,6,-1
 400 124 l 1,7,-1
 391 84 l 1,4,-1
EndSplineSet
EndChar
StartChar: greater
Encoding: 62 62 31
Width: 402
Flags: W
Fore
113 341 m 1,0,-1
 406 189 l 1,1,-1
 398 154 l 1,2,-1
 39 -8 l 1,3,-1
 48 35 l 1,4,-1
 361 171 l 1,5,-1
 104 298 l 1,6,-1
 113 341 l 1,0,-1
EndSplineSet
EndChar
StartChar: question
Encoding: 63 63 32
Width: 347
Flags: W
Fore
307 267 m 0,0,1
 280 241 280 241 257.5 216.5 c 128,-1,2
 235 192 235 192 229 160 c 2,3,-1
 216 103 l 1,4,-1
 176 103 l 1,5,-1
 189 160 l 2,6,7
 198 203 198 203 226 234.5 c 128,-1,8
 254 266 254 266 284 293 c 0,9,10
 358 361 358 361 335 423 c 0,11,12
 329 440 329 440 307.5 449 c 128,-1,13
 286 458 286 458 257 455 c 0,14,15
 224 451 224 451 200 430.5 c 128,-1,16
 176 410 176 410 164 387 c 1,17,-1
 132 407 l 1,18,19
 152 441 152 441 183 463.5 c 128,-1,20
 214 486 214 486 255 491 c 0,21,22
 296 497 296 497 329 486.5 c 128,-1,23
 362 476 362 476 374 448 c 0,24,25
 386 421 386 421 384 396 c 128,-1,26
 382 371 382 371 371.5 348 c 128,-1,27
 361 325 361 325 343.5 304.5 c 128,-1,28
 326 284 326 284 307 267 c 0,0,1
220 39 m 0,29,30
 216 22 216 22 203 11.5 c 128,-1,31
 190 1 190 1 176 1 c 0,32,33
 159 1 159 1 150 11.5 c 128,-1,34
 141 22 141 22 145 39 c 0,35,36
 148 54 148 54 161 64.5 c 128,-1,37
 174 75 174 75 191 75 c 0,38,39
 205 75 205 75 214 64.5 c 128,-1,40
 223 54 223 54 220 39 c 0,29,30
EndSplineSet
EndChar
StartChar: at
Encoding: 64 64 33
Width: 549
Flags: W
Fore
568 331 m 0,0,1
 568 302 568 302 562.5 270.5 c 128,-1,2
 557 239 557 239 545 209 c 128,-1,3
 533 179 533 179 514.5 153.5 c 128,-1,4
 496 128 496 128 469 111 c 0,5,6
 452 100 452 100 430.5 95 c 128,-1,7
 409 90 409 90 391 93.5 c 128,-1,8
 373 97 373 97 362 110 c 128,-1,9
 351 123 351 123 355 148 c 1,10,11
 348 134 348 134 335.5 123.5 c 128,-1,12
 323 113 323 113 308 106 c 128,-1,13
 293 99 293 99 276.5 97 c 128,-1,14
 260 95 260 95 245 99 c 0,15,16
 223 105 223 105 212 122.5 c 128,-1,17
 201 140 201 140 198.5 163.5 c 128,-1,18
 196 187 196 187 201.5 213.5 c 128,-1,19
 207 240 207 240 218 264 c 0,20,21
 228 286 228 286 244 308.5 c 128,-1,22
 260 331 260 331 280.5 349 c 128,-1,23
 301 367 301 367 325.5 377.5 c 128,-1,24
 350 388 350 388 377 387 c 0,25,26
 396 386 396 386 408 375.5 c 128,-1,27
 420 365 420 365 421 346 c 1,28,-1
 437 386 l 1,29,-1
 469 386 l 1,30,31
 450 339 450 339 429.5 286 c 128,-1,32
 409 233 409 233 391 185 c 0,33,34
 380 155 380 155 386 138.5 c 128,-1,35
 392 122 392 122 408 118.5 c 128,-1,36
 424 115 424 115 446 126 c 128,-1,37
 468 137 468 137 488.5 161.5 c 128,-1,38
 509 186 509 186 523 225.5 c 128,-1,39
 537 265 537 265 537 319 c 0,40,41
 538 384 538 384 494 420 c 128,-1,42
 450 456 450 456 378 456 c 0,43,44
 331 456 331 456 288 437.5 c 128,-1,45
 245 419 245 419 211 388.5 c 128,-1,46
 177 358 177 358 153 317.5 c 128,-1,47
 129 277 129 277 120 232 c 0,48,49
 107 172 107 172 123.5 123 c 128,-1,50
 140 74 140 74 178.5 45.5 c 128,-1,51
 217 17 217 17 272.5 14.5 c 128,-1,52
 328 12 328 12 393 44 c 1,53,-1
 386 14 l 1,54,55
 320 -19 320 -19 259 -16.5 c 128,-1,56
 198 -14 198 -14 155 17.5 c 128,-1,57
 112 49 112 49 92.5 105 c 128,-1,58
 73 161 73 161 88 235 c 0,59,60
 99 286 99 286 127.5 332 c 128,-1,61
 156 378 156 378 196 412.5 c 128,-1,62
 236 447 236 447 284.5 467 c 128,-1,63
 333 487 333 487 385 487 c 0,64,65
 427 487 427 487 460.5 475.5 c 128,-1,66
 494 464 494 464 518 443 c 128,-1,67
 542 422 542 422 555 393.5 c 128,-1,68
 568 365 568 365 568 331 c 0,0,1
379 225 m 0,69,70
 404 284 404 284 401.5 321.5 c 128,-1,71
 399 359 399 359 364 359 c 0,72,73
 339 359 339 359 316 343.5 c 128,-1,74
 293 328 293 328 274.5 304 c 128,-1,75
 256 280 256 280 244 251.5 c 128,-1,76
 232 223 232 223 228.5 197.5 c 128,-1,77
 225 172 225 172 231 152.5 c 128,-1,78
 237 133 237 133 256 127 c 256,79,80
 275 121 275 121 293 127 c 128,-1,81
 311 133 311 133 327 147 c 128,-1,82
 343 161 343 161 356 181.5 c 128,-1,83
 369 202 369 202 379 225 c 0,69,70
EndSplineSet
EndChar
StartChar: A
Encoding: 65 65 34
Width: 410
Flags: W
Fore
403 0 m 1,0,-1
 362 -8 l 1,1,-1
 341 131 l 1,2,-1
 123 131 l 1,3,-1
 42 -8 l 1,4,-1
 6 0 l 1,5,6
 82 129 82 129 143 231 c 0,7,8
 169 275 169 275 193 316 c 128,-1,9
 217 357 217 357 237 390 c 0,10,11
 260 428 260 428 280 463 c 0,12,13
 289 477 289 477 298.5 482.5 c 128,-1,14
 308 488 308 488 311 489 c 0,15,16
 320 491 320 491 327 483 c 128,-1,17
 334 475 334 475 335 471 c 0,18,19
 336 468 336 468 332.5 464 c 128,-1,20
 329 460 329 460 327 458 c 1,21,-1
 403 0 l 1,0,-1
335 164 m 1,22,-1
 292 416 l 1,23,-1
 143 164 l 1,24,-1
 335 164 l 1,22,-1
EndSplineSet
EndChar
StartChar: B
Encoding: 66 66 35
Width: 391
Flags: W
Fore
153 265 m 1,0,-1
 236 265 l 2,1,2
 278 265 278 265 312.5 288 c 128,-1,3
 347 311 347 311 356 355 c 0,4,5
 365 397 365 397 348.5 416 c 128,-1,6
 332 435 332 435 279 435 c 2,7,-1
 189 435 l 1,8,-1
 153 265 l 1,0,-1
212 39 m 2,9,10
 316 39 316 39 337 132 c 0,11,12
 341 151 341 151 338 168 c 128,-1,13
 335 185 335 185 323 198.5 c 128,-1,14
 311 212 311 212 290 220 c 128,-1,15
 269 228 269 228 237 228 c 2,16,-1
 144 228 l 1,17,-1
 104 39 l 1,18,-1
 212 39 l 2,9,10
148 427 m 2,19,20
 150 436 150 436 148 441.5 c 128,-1,21
 146 447 146 447 143.5 450.5 c 128,-1,22
 141 454 141 454 139 457 c 128,-1,23
 137 460 137 460 139 465 c 1,24,25
 142 470 142 470 150 478 c 128,-1,26
 158 486 158 486 168 486 c 0,27,28
 171 486 171 486 175.5 482.5 c 128,-1,29
 180 479 180 479 182 474 c 1,30,-1
 295 474 l 2,31,32
 325 474 325 474 346.5 464.5 c 128,-1,33
 368 455 368 455 380.5 439 c 128,-1,34
 393 423 393 423 397 402 c 128,-1,35
 401 381 401 381 396 359 c 0,36,37
 391 334 391 334 379.5 315 c 128,-1,38
 368 296 368 296 353 282.5 c 128,-1,39
 338 269 338 269 322 261 c 128,-1,40
 306 253 306 253 292 251 c 1,41,42
 310 249 310 249 327.5 240 c 128,-1,43
 345 231 345 231 357.5 216 c 128,-1,44
 370 201 370 201 375.5 180 c 128,-1,45
 381 159 381 159 375 133 c 0,46,47
 361 67 361 67 318.5 33.5 c 128,-1,48
 276 0 276 0 222 0 c 2,49,-1
 58 0 l 1,50,-1
 148 427 l 2,19,20
EndSplineSet
EndChar
StartChar: C
Encoding: 67 67 36
Width: 400
Flags: W
Fore
379 39 m 1,0,1
 355 20 355 20 327.5 8 c 128,-1,2
 300 -4 300 -4 272.5 -8.5 c 128,-1,3
 245 -13 245 -13 218.5 -10.5 c 128,-1,4
 192 -8 192 -8 170 2 c 0,5,6
 153 9 153 9 133 24 c 128,-1,7
 113 39 113 39 98 66 c 128,-1,8
 83 93 83 93 78 134 c 128,-1,9
 73 175 73 175 85 234 c 0,10,11
 98 294 98 294 120.5 335 c 128,-1,12
 143 376 143 376 169.5 403 c 128,-1,13
 196 430 196 430 222.5 445 c 128,-1,14
 249 460 249 460 269 467 c 0,15,16
 322 485 322 485 371.5 475.5 c 128,-1,17
 421 466 421 466 451 433 c 1,18,-1
 424 394 l 1,19,20
 414 409 414 409 397.5 419 c 128,-1,21
 381 429 381 429 361 433.5 c 128,-1,22
 341 438 341 438 318.5 437 c 128,-1,23
 296 436 296 436 274 428 c 0,24,25
 220 409 220 409 181.5 357.5 c 128,-1,26
 143 306 143 306 127 234 c 0,27,28
 112 162 112 162 129.5 111 c 128,-1,29
 147 60 147 60 192 41 c 0,30,31
 209 34 209 34 230 32 c 128,-1,32
 251 30 251 30 273.5 33 c 128,-1,33
 296 36 296 36 318.5 45.5 c 128,-1,34
 341 55 341 55 359 72 c 1,35,-1
 379 39 l 1,0,1
EndSplineSet
EndChar
StartChar: D
Encoding: 68 68 37
Width: 451
Flags: W
Fore
143 427 m 2,0,1
 145 436 145 436 143 441.5 c 128,-1,2
 141 447 141 447 138.5 450.5 c 128,-1,3
 136 454 136 454 134 457 c 128,-1,4
 132 460 132 460 134 465 c 1,5,6
 137 470 137 470 145 478 c 128,-1,7
 153 486 153 486 163 486 c 0,8,9
 166 486 166 486 170.5 482.5 c 128,-1,10
 175 479 175 479 177 474 c 1,11,-1
 269 474 l 2,12,13
 321 474 321 474 363 459 c 128,-1,14
 405 444 405 444 431.5 414.5 c 128,-1,15
 458 385 458 385 467 340.5 c 128,-1,16
 476 296 476 296 464 238 c 0,17,18
 452 179 452 179 424 134.5 c 128,-1,19
 396 90 396 90 357 60 c 128,-1,20
 318 30 318 30 269.5 15 c 128,-1,21
 221 0 221 0 169 0 c 2,22,-1
 53 0 l 1,23,-1
 143 427 l 2,0,1
186 39 m 2,24,25
 231 39 231 39 270 53 c 128,-1,26
 309 67 309 67 339.5 93.5 c 128,-1,27
 370 120 370 120 391.5 156.5 c 128,-1,28
 413 193 413 193 422 238 c 0,29,30
 433 290 433 290 424 327.5 c 128,-1,31
 415 365 415 365 390 389 c 128,-1,32
 365 413 365 413 327.5 424 c 128,-1,33
 290 435 290 435 244 435 c 2,34,-1
 184 435 l 1,35,-1
 100 39 l 1,36,-1
 186 39 l 2,24,25
EndSplineSet
EndChar
StartChar: E
Encoding: 69 69 38
Width: 342
Flags: W
Fore
148 427 m 2,0,1
 150 436 150 436 148 441.5 c 128,-1,2
 146 447 146 447 143.5 450.5 c 128,-1,3
 141 454 141 454 139 457 c 128,-1,4
 137 460 137 460 139 465 c 1,5,6
 142 470 142 470 150 478 c 128,-1,7
 158 486 158 486 168 486 c 0,8,9
 171 486 171 486 175.5 482.5 c 128,-1,10
 180 479 180 479 182 474 c 1,11,-1
 405 474 l 1,12,-1
 397 435 l 1,13,-1
 190 435 l 1,14,-1
 154 265 l 1,15,-1
 339 265 l 1,16,-1
 331 226 l 1,17,-1
 146 226 l 1,18,-1
 106 39 l 1,19,-1
 312 39 l 1,20,-1
 304 0 l 1,21,-1
 58 0 l 1,22,-1
 148 427 l 2,0,1
EndSplineSet
EndChar
StartChar: F
Encoding: 70 70 39
Width: 334
Flags: W
Fore
146 427 m 2,0,1
 148 436 148 436 146 441.5 c 128,-1,2
 144 447 144 447 141.5 450.5 c 128,-1,3
 139 454 139 454 137 457 c 128,-1,4
 135 460 135 460 137 465 c 1,5,6
 140 470 140 470 148 478 c 128,-1,7
 156 486 156 486 166 486 c 0,8,9
 169 486 169 486 173.5 482.5 c 128,-1,10
 178 479 178 479 180 474 c 1,11,-1
 403 474 l 1,12,-1
 395 435 l 1,13,-1
 188 435 l 1,14,-1
 152 265 l 1,15,-1
 337 265 l 1,16,-1
 329 226 l 1,17,-1
 144 226 l 1,18,-1
 96 0 l 1,19,-1
 56 0 l 1,20,-1
 146 427 l 2,0,1
EndSplineSet
EndChar
StartChar: G
Encoding: 71 71 40
Width: 422
Flags: W
Fore
398 239 m 1,0,1
 408 248 408 248 415 248 c 0,2,3
 425 248 425 248 429.5 240 c 128,-1,4
 434 232 434 232 435 227 c 1,5,6
 435 222 435 222 432 219.5 c 128,-1,7
 429 217 429 217 425.5 214 c 128,-1,8
 422 211 422 211 418 206 c 128,-1,9
 414 201 414 201 412 192 c 2,10,-1
 375 16 l 1,11,12
 333 -1 333 -1 295.5 -7 c 128,-1,13
 258 -13 258 -13 216 -13 c 0,14,15
 172 -13 172 -13 142.5 5 c 128,-1,16
 113 23 113 23 96.5 56 c 128,-1,17
 80 89 80 89 77.5 134.5 c 128,-1,18
 75 180 75 180 87 235 c 0,19,20
 97 281 97 281 117 325 c 128,-1,21
 137 369 137 369 167 403.5 c 128,-1,22
 197 438 197 438 235.5 459.5 c 128,-1,23
 274 481 274 481 321 481 c 0,24,25
 345 481 345 481 367 474.5 c 128,-1,26
 389 468 389 468 406 455.5 c 128,-1,27
 423 443 423 443 433.5 423.5 c 128,-1,28
 444 404 444 404 445 379 c 1,29,-1
 401 364 l 1,30,31
 400 404 400 404 374 423 c 128,-1,32
 348 442 348 442 312 442 c 0,33,34
 273 442 273 442 242.5 423.5 c 128,-1,35
 212 405 212 405 189 375.5 c 128,-1,36
 166 346 166 346 150.5 309 c 128,-1,37
 135 272 135 272 127 235 c 0,38,39
 118 189 118 189 118.5 150.5 c 128,-1,40
 119 112 119 112 132.5 84.5 c 128,-1,41
 146 57 146 57 173.5 41.5 c 128,-1,42
 201 26 201 26 245 26 c 0,43,44
 268 26 268 26 293 32.5 c 128,-1,45
 318 39 318 39 343 47 c 1,46,-1
 376 200 l 1,47,-1
 267 200 l 1,48,-1
 275 239 l 1,49,-1
 398 239 l 1,0,1
EndSplineSet
EndChar
StartChar: H
Encoding: 72 72 41
Width: 422
Flags: W
Fore
465 474 m 1,0,-1
 365 0 l 1,1,-1
 328 0 l 1,2,-1
 376 226 l 1,3,-1
 143 226 l 1,4,-1
 95 0 l 1,5,-1
 56 0 l 1,6,-1
 156 474 l 1,7,-1
 195 474 l 1,8,-1
 151 265 l 1,9,-1
 384 265 l 1,10,-1
 428 474 l 1,11,-1
 465 474 l 1,0,-1
EndSplineSet
EndChar
StartChar: I
Encoding: 73 73 42
Width: 163
Flags: W
Fore
202 474 m 1,0,-1
 102 0 l 1,1,-1
 64 0 l 1,2,-1
 164 474 l 1,3,-1
 202 474 l 1,0,-1
EndSplineSet
EndChar
StartChar: J
Encoding: 74 74 43
Width: 250
Flags: W
Fore
299 474 m 1,0,-1
 223 114 l 2,1,2
 213 70 213 70 187.5 41 c 128,-1,3
 162 12 162 12 136 1 c 0,4,5
 98 -15 98 -15 67.5 -10 c 128,-1,6
 37 -5 37 -5 15 10 c 1,7,-1
 34 43 l 1,8,9
 39 37 39 37 48 32 c 128,-1,10
 57 27 57 27 69 24.5 c 128,-1,11
 81 22 81 22 95.5 23.5 c 128,-1,12
 110 25 110 25 125 32 c 0,13,14
 146 43 146 43 161.5 62.5 c 128,-1,15
 177 82 177 82 182 108 c 2,16,-1
 260 474 l 1,17,-1
 299 474 l 1,0,-1
EndSplineSet
EndChar
StartChar: K
Encoding: 75 75 44
Width: 392
Flags: W
Fore
391 0 m 1,0,-1
 343 -6 l 1,1,-1
 150 241 l 1,2,-1
 99 0 l 1,3,-1
 61 0 l 1,4,-1
 161 474 l 1,5,-1
 199 474 l 1,6,-1
 152 254 l 1,7,-1
 433 478 l 1,8,-1
 472 468 l 1,9,-1
 196 248 l 1,10,-1
 391 0 l 1,0,-1
EndSplineSet
EndChar
StartChar: L
Encoding: 76 76 45
Width: 324
Flags: W
Fore
158 474 m 1,0,-1
 197 474 l 1,1,-1
 104 35 l 1,2,-1
 309 35 l 1,3,-1
 302 0 l 1,4,-1
 82 0 l 1,5,6
 77 -5 77 -5 71 -8.5 c 128,-1,7
 65 -12 65 -12 62 -12 c 0,8,9
 52 -12 52 -12 47.5 -4 c 128,-1,10
 43 4 43 4 42 9 c 0,11,12
 42 13 42 13 45 16.5 c 128,-1,13
 48 20 48 20 52.5 23.5 c 128,-1,14
 57 27 57 27 61 32.5 c 128,-1,15
 65 38 65 38 67 47 c 2,16,-1
 158 474 l 1,0,-1
EndSplineSet
EndChar
StartChar: M
Encoding: 77 77 46
Width: 553
Flags: W
Fore
304 15 m 1,0,-1
 304 8 l 1,1,2
 306 2 306 2 300.5 -2.5 c 128,-1,3
 295 -7 295 -7 287.5 -9.5 c 128,-1,4
 280 -12 280 -12 272.5 -11.5 c 128,-1,5
 265 -11 265 -11 264 -5 c 2,6,-1
 210 399 l 1,7,-1
 54 -7 l 1,8,-1
 19 2 l 1,9,-1
 193 451 l 1,10,-1
 188 460 l 2,11,12
 186 465 186 465 195.5 474.5 c 128,-1,13
 205 484 205 484 216 486 c 0,14,15
 221 487 221 487 225.5 483 c 128,-1,16
 230 479 230 479 233.5 474 c 128,-1,17
 237 469 237 469 239 464 c 128,-1,18
 241 459 241 459 241 458 c 2,19,-1
 294 67 l 1,20,-1
 513 458 l 2,21,22
 514 459 514 459 518 464 c 128,-1,23
 522 469 522 469 527.5 474 c 128,-1,24
 533 479 533 479 539 483 c 128,-1,25
 545 487 545 487 550 486 c 0,26,27
 559 484 559 484 565 474.5 c 128,-1,28
 571 465 571 465 566 460 c 2,29,-1
 557 451 l 1,30,-1
 541 2 l 1,31,-1
 502 -7 l 1,32,-1
 518 399 l 1,33,-1
 304 15 l 1,0,-1
EndSplineSet
EndChar
StartChar: N
Encoding: 78 78 47
Width: 426
Flags: W
Fore
144 428 m 2,0,1
 146 437 146 437 144.5 442 c 128,-1,2
 143 447 143 447 141 450.5 c 128,-1,3
 139 454 139 454 137 456.5 c 128,-1,4
 135 459 135 459 137 464 c 256,5,6
 139 469 139 469 147.5 477 c 128,-1,7
 156 485 156 485 166 485 c 0,8,9
 169 485 169 485 173 481.5 c 128,-1,10
 177 478 177 478 180 473 c 1,11,-1
 347 65 l 1,12,-1
 434 474 l 1,13,-1
 472 474 l 1,14,-1
 372 0 l 1,15,-1
 338 0 l 1,16,-1
 172 377 l 1,17,-1
 92 0 l 1,18,-1
 54 0 l 1,19,-1
 144 428 l 2,0,1
EndSplineSet
EndChar
StartChar: O
Encoding: 79 79 48
Width: 459
Flags: W
Fore
332 481 m 0,0,1
 377 481 377 481 409 463 c 128,-1,2
 441 445 441 445 458 413 c 128,-1,3
 475 381 475 381 478 335 c 128,-1,4
 481 289 481 289 469 234 c 0,5,6
 457 178 457 178 435 132.5 c 128,-1,7
 413 87 413 87 382 55 c 128,-1,8
 351 23 351 23 311.5 5 c 128,-1,9
 272 -13 272 -13 227 -13 c 0,10,11
 181 -13 181 -13 149 5 c 128,-1,12
 117 23 117 23 100 55 c 128,-1,13
 83 87 83 87 80 132.5 c 128,-1,14
 77 178 77 178 89 234 c 0,15,16
 101 289 101 289 123 335 c 128,-1,17
 145 381 145 381 176 413 c 128,-1,18
 207 445 207 445 246.5 463 c 128,-1,19
 286 481 286 481 332 481 c 0,0,1
235 24 m 0,20,21
 275 24 275 24 307.5 42 c 128,-1,22
 340 60 340 60 364 89.5 c 128,-1,23
 388 119 388 119 404.5 157 c 128,-1,24
 421 195 421 195 429 234 c 256,25,26
 437 273 437 273 437 310.5 c 128,-1,27
 437 348 437 348 425 378 c 128,-1,28
 413 408 413 408 388.5 426 c 128,-1,29
 364 444 364 444 324 444 c 0,30,31
 283 444 283 444 250.5 426 c 128,-1,32
 218 408 218 408 193.5 378 c 128,-1,33
 169 348 169 348 152.5 310.5 c 128,-1,34
 136 273 136 273 128 234 c 256,35,36
 120 195 120 195 120.5 157 c 128,-1,37
 121 119 121 119 133 89.5 c 128,-1,38
 145 60 145 60 169.5 42 c 128,-1,39
 194 24 194 24 235 24 c 0,20,21
EndSplineSet
EndChar
StartChar: P
Encoding: 80 80 49
Width: 366
Flags: W
Fore
149 426 m 2,0,1
 151 435 151 435 149 440.5 c 128,-1,2
 147 446 147 446 144.5 450 c 128,-1,3
 142 454 142 454 140 457 c 128,-1,4
 138 460 138 460 140 465 c 1,5,6
 143 470 143 470 151 478 c 128,-1,7
 159 486 159 486 169 486 c 0,8,9
 172 486 172 486 176.5 482.5 c 128,-1,10
 181 479 181 479 183 474 c 1,11,-1
 267 474 l 2,12,13
 300 474 300 474 329.5 467 c 128,-1,14
 359 460 359 460 380 443.5 c 128,-1,15
 401 427 401 427 410 400 c 128,-1,16
 419 373 419 373 410 332 c 256,17,18
 401 291 401 291 380.5 264 c 128,-1,19
 360 237 360 237 332 221 c 128,-1,20
 304 205 304 205 272.5 198 c 128,-1,21
 241 191 241 191 211 191 c 2,22,-1
 138 191 l 1,23,-1
 98 0 l 1,24,-1
 59 0 l 1,25,-1
 149 426 l 2,0,1
191 438 m 1,26,-1
 146 228 l 1,27,-1
 217 228 l 2,28,29
 284 228 284 228 322.5 256 c 128,-1,30
 361 284 361 284 372 332 c 0,31,32
 381 375 381 375 356 406.5 c 128,-1,33
 331 438 331 438 261 438 c 2,34,-1
 191 438 l 1,26,-1
EndSplineSet
EndChar
StartChar: Q
Encoding: 81 81 50
Width: 455
Flags: W
Fore
405 -16 m 1,0,-1
 357 35 l 1,1,2
 298 -13 298 -13 224 -13 c 0,3,4
 178 -13 178 -13 146.5 5 c 128,-1,5
 115 23 115 23 98 55.5 c 128,-1,6
 81 88 81 88 78 133.5 c 128,-1,7
 75 179 75 179 87 235 c 0,8,9
 99 290 99 290 121 335.5 c 128,-1,10
 143 381 143 381 174 413 c 128,-1,11
 205 445 205 445 244 463 c 128,-1,12
 283 481 283 481 329 481 c 256,13,14
 375 481 375 481 406.5 463 c 128,-1,15
 438 445 438 445 455 413 c 128,-1,16
 472 381 472 381 475 335.5 c 128,-1,17
 478 290 478 290 466 235 c 0,18,19
 445 131 445 131 388 65 c 1,20,-1
 437 14 l 1,21,-1
 405 -16 l 1,0,-1
232 26 m 0,22,23
 261 26 261 26 285.5 35.5 c 128,-1,24
 310 45 310 45 331 62 c 1,25,-1
 288 106 l 1,26,-1
 321 137 l 1,27,-1
 361 93 l 1,28,29
 385 122 385 122 401 159 c 128,-1,30
 417 196 417 196 425 235 c 256,31,32
 433 274 433 274 432.5 311 c 128,-1,33
 432 348 432 348 420.5 377 c 128,-1,34
 409 406 409 406 384.5 424 c 128,-1,35
 360 442 360 442 320 442 c 256,36,37
 280 442 280 442 248 424 c 128,-1,38
 216 406 216 406 192 377 c 128,-1,39
 168 348 168 348 151.5 311 c 128,-1,40
 135 274 135 274 127 235 c 256,41,42
 119 196 119 196 119 158 c 128,-1,43
 119 120 119 120 131 91 c 128,-1,44
 143 62 143 62 167.5 44 c 128,-1,45
 192 26 192 26 232 26 c 0,22,23
EndSplineSet
EndChar
StartChar: R
Encoding: 82 82 51
Width: 391
Flags: W
Fore
149 427 m 2,0,1
 151 436 151 436 149 441.5 c 128,-1,2
 147 447 147 447 144.5 450.5 c 128,-1,3
 142 454 142 454 140 457 c 128,-1,4
 138 460 138 460 140 465 c 1,5,6
 143 470 143 470 151 478 c 128,-1,7
 159 486 159 486 169 486 c 0,8,9
 172 486 172 486 176.5 482.5 c 128,-1,10
 181 479 181 479 183 474 c 1,11,-1
 267 474 l 2,12,13
 300 474 300 474 329.5 467 c 128,-1,14
 359 460 359 460 380 443.5 c 128,-1,15
 401 427 401 427 410 400 c 128,-1,16
 419 373 419 373 410 332 c 0,17,18
 404 301 404 301 390 278 c 128,-1,19
 376 255 376 255 357 239 c 128,-1,20
 338 223 338 223 316 212.5 c 128,-1,21
 294 202 294 202 270 197 c 1,22,-1
 354 1 l 1,23,-1
 312 -9 l 1,24,-1
 226 191 l 1,25,-1
 138 191 l 1,26,-1
 98 0 l 1,27,-1
 59 0 l 1,28,-1
 149 427 l 2,0,1
191 438 m 1,29,-1
 146 228 l 1,30,-1
 217 228 l 2,31,32
 284 228 284 228 322.5 256 c 128,-1,33
 361 284 361 284 372 332 c 0,34,35
 381 375 381 375 356 406.5 c 128,-1,36
 331 438 331 438 261 438 c 2,37,-1
 191 438 l 1,29,-1
EndSplineSet
EndChar
StartChar: S
Encoding: 83 83 52
Width: 388
Flags: W
Fore
379 118 m 0,0,1
 366 61 366 61 317 24.5 c 128,-1,2
 268 -12 268 -12 183 -13 c 0,3,4
 154 -13 154 -13 131 -7 c 128,-1,5
 108 -1 108 -1 90.5 8.5 c 128,-1,6
 73 18 73 18 60.5 29.5 c 128,-1,7
 48 41 48 41 39 50 c 1,8,-1
 78 81 l 1,9,10
 85 72 85 72 94.5 62 c 128,-1,11
 104 52 104 52 118 43.5 c 128,-1,12
 132 35 132 35 151 29.5 c 128,-1,13
 170 24 170 24 196 24 c 256,14,15
 222 24 222 24 245.5 30.5 c 128,-1,16
 269 37 269 37 288 48.5 c 128,-1,17
 307 60 307 60 319.5 75 c 128,-1,18
 332 90 332 90 336 108 c 0,19,20
 340 127 340 127 336.5 141.5 c 128,-1,21
 333 156 333 156 319.5 168.5 c 128,-1,22
 306 181 306 181 283 192.5 c 128,-1,23
 260 204 260 204 225 218 c 0,24,25
 163 241 163 241 136.5 277.5 c 128,-1,26
 110 314 110 314 116 356 c 0,27,28
 119 380 119 380 133 403.5 c 128,-1,29
 147 427 147 427 169.5 445 c 128,-1,30
 192 463 192 463 222.5 474 c 128,-1,31
 253 485 253 485 290 485 c 0,32,33
 307 485 307 485 325.5 482 c 128,-1,34
 344 479 344 479 361 473.5 c 128,-1,35
 378 468 378 468 393 460.5 c 128,-1,36
 408 453 408 453 418 444 c 1,37,-1
 391 410 l 1,38,39
 374 424 374 424 347 435 c 128,-1,40
 320 446 320 446 280 446 c 0,41,42
 233 446 233 446 200.5 422 c 128,-1,43
 168 398 168 398 160 363 c 0,44,45
 152 327 152 327 179 299.5 c 128,-1,46
 206 272 206 272 260 252 c 0,47,48
 289 241 289 241 313.5 229 c 128,-1,49
 338 217 338 217 354.5 201.5 c 128,-1,50
 371 186 371 186 378 166 c 128,-1,51
 385 146 385 146 379 118 c 0,0,1
EndSplineSet
EndChar
StartChar: T
Encoding: 84 84 53
Width: 333
Flags: W
Fore
279 438 m 1,0,-1
 186 0 l 1,1,-1
 148 0 l 1,2,-1
 241 438 l 1,3,-1
 113 438 l 2,4,5
 108 438 108 438 107.5 443 c 128,-1,6
 107 448 107 448 108 454 c 0,7,8
 109 465 109 465 111.5 469.5 c 128,-1,9
 114 474 114 474 123 474 c 2,10,-1
 410 474 l 2,11,12
 419 474 419 474 420 469.5 c 128,-1,13
 421 465 421 465 417 454 c 0,14,15
 415 448 415 448 413 443 c 128,-1,16
 411 438 411 438 406 438 c 2,17,-1
 279 438 l 1,0,-1
EndSplineSet
EndChar
StartChar: U
Encoding: 85 85 54
Width: 455
Flags: W
Fore
496 474 m 1,0,-1
 426 145 l 2,1,2
 410 68 410 68 356 28.5 c 128,-1,3
 302 -11 302 -11 224 -11 c 256,4,5
 146 -11 146 -11 108 28.5 c 128,-1,6
 70 68 70 68 86 145 c 2,7,-1
 156 474 l 1,8,-1
 194 474 l 1,9,-1
 125 146 l 2,10,11
 118 114 118 114 124 91.5 c 128,-1,12
 130 69 130 69 145 55 c 128,-1,13
 160 41 160 41 182.5 34.5 c 128,-1,14
 205 28 205 28 232 28 c 0,15,16
 258 28 258 28 283.5 34.5 c 128,-1,17
 309 41 309 41 330 55 c 128,-1,18
 351 69 351 69 367 91.5 c 128,-1,19
 383 114 383 114 390 146 c 2,20,-1
 459 474 l 1,21,-1
 496 474 l 1,0,-1
EndSplineSet
EndChar
StartChar: V
Encoding: 86 86 55
Width: 411
Flags: W
Fore
231 15 m 0,0,1
 228 12 228 12 223 7 c 128,-1,2
 218 2 218 2 212.5 -2.5 c 128,-1,3
 207 -7 207 -7 202 -10 c 128,-1,4
 197 -13 197 -13 195 -13 c 0,5,6
 185 -11 185 -11 179 -2 c 128,-1,7
 173 7 173 7 177 12 c 2,8,-1
 185 21 l 1,9,-1
 106 474 l 1,10,-1
 147 482 l 1,11,-1
 216 55 l 1,12,-1
 467 482 l 1,13,-1
 503 474 l 1,14,-1
 367 244 l 2,15,16
 341 201 341 201 316.5 160 c 128,-1,17
 292 119 292 119 273 86.5 c 128,-1,18
 254 54 254 54 242.5 34.5 c 128,-1,19
 232 16 232 16 231 15 c 0,0,1
EndSplineSet
EndChar
StartChar: W
Encoding: 87 87 56
Width: 558
Flags: W
Fore
449 75 m 1,0,-1
 606 481 l 1,1,-1
 641 472 l 1,2,-1
 466 23 l 1,3,-1
 471 14 l 2,4,5
 473 9 473 9 463.5 -0.5 c 128,-1,6
 454 -10 454 -10 444 -12 c 0,7,8
 439 -13 439 -13 434.5 -9 c 128,-1,9
 430 -5 430 -5 426.5 0 c 128,-1,10
 423 5 423 5 421 9.5 c 128,-1,11
 419 14 419 14 419 16 c 2,12,-1
 366 407 l 1,13,-1
 147 16 l 2,14,15
 146 14 146 14 142 9.5 c 128,-1,16
 138 5 138 5 132.5 0 c 128,-1,17
 127 -5 127 -5 121 -9 c 128,-1,18
 115 -13 115 -13 110 -12 c 0,19,20
 100 -10 100 -10 94.5 -0.5 c 128,-1,21
 89 9 89 9 93 14 c 2,22,-1
 102 23 l 1,23,-1
 119 472 l 1,24,-1
 158 481 l 1,25,-1
 141 75 l 1,26,-1
 367 479 l 2,27,28
 371 485 371 485 378.5 485.5 c 128,-1,29
 386 486 386 486 393 483.5 c 128,-1,30
 400 481 400 481 403 476.5 c 128,-1,31
 406 472 406 472 402 466 c 2,32,-1
 398 459 l 1,33,-1
 449 75 l 1,0,-1
EndSplineSet
EndChar
StartChar: X
Encoding: 88 88 57
Width: 376
Flags: W
Fore
11 25 m 1,0,-1
 222 261 l 1,1,-1
 122 469 l 1,2,-1
 159 489 l 1,3,-1
 251 289 l 1,4,-1
 429 488 l 1,5,-1
 457 469 l 1,6,-1
 264 254 l 1,7,-1
 377 22 l 1,8,-1
 343 2 l 1,9,-1
 237 225 l 1,10,-1
 36 4 l 1,11,-1
 11 25 l 1,0,-1
EndSplineSet
EndChar
StartChar: Y
Encoding: 89 89 58
Width: 357
Flags: W
Fore
202 202 m 1,0,-1
 107 475 l 1,1,-1
 142 488 l 1,2,-1
 227 238 l 1,3,-1
 420 487 l 1,4,-1
 449 474 l 1,5,6
 406 419 406 419 366 368 c 0,7,8
 349 346 349 346 331 323 c 128,-1,9
 313 300 313 300 296 278 c 128,-1,10
 279 256 279 256 263.5 236 c 128,-1,11
 248 216 248 216 237 201 c 1,12,-1
 195 0 l 1,13,-1
 160 0 l 1,14,-1
 202 201 l 1,15,-1
 202 202 l 1,0,-1
EndSplineSet
EndChar
StartChar: Z
Encoding: 90 90 59
Width: 396
Flags: W
Fore
443 485 m 256,0,1
 445 487 445 487 452 486 c 128,-1,2
 459 485 459 485 465 477 c 0,3,4
 472 466 472 466 469 461 c 128,-1,5
 466 456 466 456 458 449 c 2,6,-1
 441 431 l 1,7,-1
 99 39 l 1,8,-1
 369 39 l 1,9,-1
 361 0 l 1,10,-1
 63 0 l 2,11,12
 58 0 58 0 53.5 -3.5 c 128,-1,13
 49 -7 49 -7 44 -9 c 256,14,15
 39 -11 39 -11 33.5 -8 c 128,-1,16
 28 -5 28 -5 22 9 c 0,17,18
 20 16 20 16 23.5 19 c 128,-1,19
 27 22 27 22 35 28 c 0,20,21
 41 32 41 32 45 35.5 c 128,-1,22
 49 39 49 39 53 43 c 2,23,-1
 394 435 l 1,24,-1
 123 435 l 1,25,-1
 131 474 l 1,26,-1
 428 474 l 1,27,28
 430 476 430 476 433 478 c 0,29,30
 435 480 435 480 438 481.5 c 128,-1,31
 441 483 441 483 443 485 c 256,0,1
EndSplineSet
EndChar
StartChar: bracketleft
Encoding: 91 91 60
Width: 183
Flags: W
Fore
190 473 m 1,0,-1
 77 -59 l 1,1,-1
 120 -59 l 1,2,-1
 113 -91 l 1,3,-1
 31 -91 l 1,4,-1
 158 505 l 1,5,-1
 240 505 l 1,6,-1
 233 473 l 1,7,-1
 190 473 l 1,0,-1
EndSplineSet
EndChar
StartChar: backslash
Encoding: 92 92 61
Width: 163
Flags: W
Fore
194 -18 m 1,0,-1
 161 -17 l 1,1,-1
 76 488 l 1,2,-1
 111 488 l 1,3,-1
 194 -18 l 1,0,-1
EndSplineSet
EndChar
StartChar: bracketright
Encoding: 93 93 62
Width: 181
Flags: W
Fore
148 473 m 1,0,-1
 155 505 l 1,1,-1
 237 505 l 1,2,-1
 110 -91 l 1,3,-1
 28 -91 l 1,4,-1
 35 -59 l 1,5,-1
 78 -59 l 1,6,-1
 191 473 l 1,7,-1
 148 473 l 1,0,-1
EndSplineSet
EndChar
StartChar: asciicircum
Encoding: 94 94 63
Width: 386
Flags: W
Fore
75 155 m 1,0,-1
 273 450 l 1,1,-1
 303 450 l 1,2,-1
 376 155 l 1,3,-1
 342 155 l 1,4,-1
 280 410 l 1,5,-1
 109 155 l 1,6,-1
 75 155 l 1,0,-1
EndSplineSet
EndChar
StartChar: underscore
Encoding: 95 95 64
Width: 322
Flags: W
Fore
311 -49 m 1,0,-1
 303 -87 l 1,1,-1
 -18 -87 l 1,2,-1
 -10 -49 l 1,3,-1
 311 -49 l 1,0,-1
EndSplineSet
EndChar
StartChar: grave
Encoding: 96 96 65
Width: 163
Flags: W
Fore
193 367 m 1,0,-1
 164 367 l 1,1,-1
 111 461 l 1,2,-1
 158 461 l 1,3,-1
 193 367 l 1,0,-1
EndSplineSet
EndChar
StartChar: a
Encoding: 97 97 66
Width: 350
Flags: W
Fore
330 80 m 2,0,1
 322 47 322 47 324.5 32 c 128,-1,2
 327 17 327 17 329 6 c 1,3,-1
 293 -7 l 1,4,5
 291 -1 291 -1 286.5 12.5 c 128,-1,6
 282 26 282 26 288 55 c 1,7,8
 265 26 265 26 233 8.5 c 128,-1,9
 201 -9 201 -9 162 -9 c 0,10,11
 126 -9 126 -9 102 6.5 c 128,-1,12
 78 22 78 22 66 47 c 128,-1,13
 54 72 54 72 52 104.5 c 128,-1,14
 50 137 50 137 57 170 c 256,15,16
 64 203 64 203 79.5 235.5 c 128,-1,17
 95 268 95 268 118 293 c 128,-1,18
 141 318 141 318 171.5 333.5 c 128,-1,19
 202 349 202 349 238 349 c 0,20,21
 277 349 277 349 300.5 331.5 c 128,-1,22
 324 314 324 314 335 286 c 1,23,-1
 349 349 l 1,24,-1
 387 349 l 1,25,-1
 330 80 l 2,0,1
230 313 m 0,26,27
 201 313 201 313 177.5 299.5 c 128,-1,28
 154 286 154 286 136.5 265 c 128,-1,29
 119 244 119 244 107.5 218.5 c 128,-1,30
 96 193 96 193 91 170 c 0,31,32
 86 146 86 146 86.5 121 c 128,-1,33
 87 96 87 96 95.5 75 c 128,-1,34
 104 54 104 54 122 40.5 c 128,-1,35
 140 27 140 27 169 27 c 0,36,37
 195 27 195 27 217.5 38 c 128,-1,38
 240 49 240 49 257.5 66.5 c 128,-1,39
 275 84 275 84 288 106 c 128,-1,40
 301 128 301 128 308 151 c 2,41,-1
 316 190 l 2,42,43
 318 212 318 212 314.5 234 c 128,-1,44
 311 256 311 256 301 273.5 c 128,-1,45
 291 291 291 291 273.5 302 c 128,-1,46
 256 313 256 313 230 313 c 0,26,27
EndSplineSet
Substitution: 0 65534 'L026' uni0E38
Substitution: 0 65534 'L026' uni0E38
EndChar
StartChar: b
Encoding: 98 98 67
Width: 354
Flags: W
Fore
84 55 m 1,0,1
 78 26 78 26 68 12.5 c 128,-1,2
 58 -1 58 -1 53 -7 c 1,3,-1
 23 6 l 1,4,5
 30 17 30 17 38 32 c 128,-1,6
 46 47 46 47 54 80 c 2,7,-1
 142 497 l 1,8,-1
 179 497 l 1,9,-1
 134 286 l 1,10,11
 157 314 157 314 188.5 331 c 128,-1,12
 220 348 220 348 259 348 c 0,13,14
 295 348 295 348 319 332.5 c 128,-1,15
 343 317 343 317 355.5 292 c 128,-1,16
 368 267 368 267 370 235 c 128,-1,17
 372 203 372 203 365 170 c 256,18,19
 358 137 358 137 342.5 104.5 c 128,-1,20
 327 72 327 72 304 47 c 128,-1,21
 281 22 281 22 250.5 6.5 c 128,-1,22
 220 -9 220 -9 184 -9 c 0,23,24
 145 -9 145 -9 120.5 9.5 c 128,-1,25
 96 28 96 28 84 55 c 1,0,1
331 170 m 0,26,27
 336 193 336 193 335 218 c 128,-1,28
 334 243 334 243 325.5 264 c 128,-1,29
 317 285 317 285 299 298.5 c 128,-1,30
 281 312 281 312 252 312 c 0,31,32
 226 312 226 312 203.5 301 c 128,-1,33
 181 290 181 290 163.5 272.5 c 128,-1,34
 146 255 146 255 133.5 233.5 c 128,-1,35
 121 212 121 212 114 190 c 2,36,-1
 106 151 l 2,37,38
 103 128 103 128 106.5 106 c 128,-1,39
 110 84 110 84 120 66.5 c 128,-1,40
 130 49 130 49 147.5 38 c 128,-1,41
 165 27 165 27 191 27 c 0,42,43
 220 27 220 27 243.5 40.5 c 128,-1,44
 267 54 267 54 285 74.5 c 128,-1,45
 303 95 303 95 314.5 120.5 c 128,-1,46
 326 146 326 146 331 170 c 0,26,27
EndSplineSet
Substitution: 0 65534 'L026' uni0E39
Substitution: 0 65534 'L026' uni0E39
EndChar
StartChar: c
Encoding: 99 99 68
Width: 295
Flags: W
Fore
280 28 m 2,0,1
 249 2 249 2 206 -6.5 c 128,-1,2
 163 -15 163 -15 126 0 c 0,3,4
 113 5 113 5 98.5 16 c 128,-1,5
 84 27 84 27 73 47 c 128,-1,6
 62 67 62 67 58.5 97 c 128,-1,7
 55 127 55 127 64 171 c 0,8,9
 73 214 73 214 90 244.5 c 128,-1,10
 107 275 107 275 126 295 c 128,-1,11
 145 315 145 315 164 326 c 128,-1,12
 183 337 183 337 198 342 c 0,13,14
 237 356 237 356 274.5 348.5 c 128,-1,15
 312 341 312 341 334 315 c 1,16,-1
 311 279 l 1,17,18
 305 291 305 291 293 299 c 128,-1,19
 281 307 281 307 266.5 310.5 c 128,-1,20
 252 314 252 314 236 313.5 c 128,-1,21
 220 313 220 313 205 308 c 0,22,23
 166 294 166 294 138.5 258 c 128,-1,24
 111 222 111 222 100 171 c 256,25,26
 89 120 89 120 101.5 84 c 128,-1,27
 114 48 114 48 147 34 c 0,28,29
 158 29 158 29 173 27.5 c 128,-1,30
 188 26 188 26 204.5 28.5 c 128,-1,31
 221 31 221 31 237 38 c 128,-1,32
 253 45 253 45 266 58 c 1,33,-1
 283 30 l 1,34,-1
 280 28 l 2,0,1
EndSplineSet
Substitution: 0 65534 'L026' uni0E3A
Substitution: 0 65534 'L026' uni0E3A
EndChar
StartChar: d
Encoding: 100 100 69
Width: 357
Flags: W
Fore
97 170 m 0,0,1
 92 146 92 146 92.5 120.5 c 128,-1,2
 93 95 93 95 101.5 74.5 c 128,-1,3
 110 54 110 54 128 40.5 c 128,-1,4
 146 27 146 27 175 27 c 0,5,6
 201 27 201 27 223.5 38 c 128,-1,7
 246 49 246 49 263.5 66.5 c 128,-1,8
 281 84 281 84 294 106 c 128,-1,9
 307 128 307 128 314 151 c 2,10,-1
 322 190 l 2,11,12
 324 212 324 212 320.5 233.5 c 128,-1,13
 317 255 317 255 307 272.5 c 128,-1,14
 297 290 297 290 279.5 301 c 128,-1,15
 262 312 262 312 236 312 c 0,16,17
 207 312 207 312 183.5 298.5 c 128,-1,18
 160 285 160 285 142.5 264 c 128,-1,19
 125 243 125 243 113.5 218 c 128,-1,20
 102 193 102 193 97 170 c 0,0,1
336 80 m 2,21,22
 328 47 328 47 330.5 32 c 128,-1,23
 333 17 333 17 335 6 c 1,24,-1
 299 -7 l 1,25,26
 297 -1 297 -1 292.5 12.5 c 128,-1,27
 288 26 288 26 294 55 c 1,28,29
 271 28 271 28 239 9.5 c 128,-1,30
 207 -9 207 -9 168 -9 c 0,31,32
 132 -9 132 -9 108 6.5 c 128,-1,33
 84 22 84 22 72 47 c 128,-1,34
 60 72 60 72 58 104.5 c 128,-1,35
 56 137 56 137 63 170 c 256,36,37
 70 203 70 203 85 235 c 128,-1,38
 100 267 100 267 123 292 c 128,-1,39
 146 317 146 317 176.5 332.5 c 128,-1,40
 207 348 207 348 243 348 c 0,41,42
 282 348 282 348 306.5 331 c 128,-1,43
 331 314 331 314 342 286 c 1,44,-1
 387 497 l 1,45,-1
 424 497 l 1,46,-1
 336 80 l 2,21,22
EndSplineSet
EndChar
StartChar: e
Encoding: 101 101 70
Width: 352
Flags: W
Fore
254 348 m 0,0,1
 303 348 303 348 327.5 326.5 c 128,-1,2
 352 305 352 305 361 276.5 c 128,-1,3
 370 248 370 248 368.5 219 c 128,-1,4
 367 190 367 190 364 176 c 0,5,6
 361 161 361 161 354 156 c 0,7,8
 349 152 349 152 331 152 c 2,9,-1
 100 152 l 1,10,11
 90 107 90 107 106.5 76 c 128,-1,12
 123 45 123 45 149 33 c 0,13,14
 169 24 169 24 188.5 24.5 c 128,-1,15
 208 25 208 25 225 30 c 128,-1,16
 242 35 242 35 255 41.5 c 128,-1,17
 268 48 268 48 274 52 c 1,18,-1
 290 22 l 1,19,20
 277 14 277 14 255.5 6 c 128,-1,21
 234 -2 234 -2 210 -6 c 128,-1,22
 186 -10 186 -10 161 -8.5 c 128,-1,23
 136 -7 136 -7 117 4 c 0,24,25
 100 13 100 13 86.5 28 c 128,-1,26
 73 43 73 43 65 63.5 c 128,-1,27
 57 84 57 84 55 110 c 128,-1,28
 53 136 53 136 60 168 c 0,29,30
 66 197 66 197 81.5 229 c 128,-1,31
 97 261 97 261 121.5 287.5 c 128,-1,32
 146 314 146 314 179 331 c 128,-1,33
 212 348 212 348 254 348 c 0,0,1
329 190 m 1,34,35
 333 208 333 208 332 230 c 128,-1,36
 331 252 331 252 321.5 271 c 128,-1,37
 312 290 312 290 293.5 302.5 c 128,-1,38
 275 315 275 315 245 315 c 0,39,40
 214 315 214 315 190 301.5 c 128,-1,41
 166 288 166 288 149 268.5 c 128,-1,42
 132 249 132 249 121.5 227.5 c 128,-1,43
 111 206 111 206 107 190 c 1,44,-1
 329 190 l 1,34,35
EndSplineSet
EndChar
StartChar: f
Encoding: 102 102 71
Width: 194
Flags: W
Fore
132 318 m 1,0,-1
 72 318 l 1,1,-1
 86 348 l 1,2,-1
 138 348 l 1,3,-1
 151 408 l 2,4,5
 158 439 158 439 172.5 458.5 c 128,-1,6
 187 478 187 478 206.5 488 c 128,-1,7
 226 498 226 498 249.5 498 c 128,-1,8
 273 498 273 498 297 491 c 1,9,-1
 285 459 l 1,10,11
 265 463 265 463 248.5 463.5 c 128,-1,12
 232 464 232 464 219.5 457.5 c 128,-1,13
 207 451 207 451 198.5 436 c 128,-1,14
 190 421 190 421 184 395 c 2,15,-1
 174 348 l 1,16,-1
 255 348 l 1,17,-1
 241 318 l 1,18,-1
 168 318 l 1,19,-1
 101 4 l 2,20,21
 95 -23 95 -23 85 -44.5 c 128,-1,22
 75 -66 75 -66 65 -82 c 0,23,24
 54 -100 54 -100 41 -114 c 1,25,-1
 10 -104 l 1,26,27
 30 -85 30 -85 44 -57 c 128,-1,28
 58 -29 58 -29 65 3 c 2,29,-1
 132 318 l 1,0,-1
EndSplineSet
EndChar
StartChar: g
Encoding: 103 103 72
Width: 359
Flags: W
Fore
340 285 m 1,0,1
 346 314 346 314 357 328.5 c 128,-1,2
 368 343 368 343 373 349 c 1,3,-1
 403 336 l 1,4,5
 396 325 396 325 388 310 c 128,-1,6
 380 295 380 295 372 262 c 2,7,-1
 319 6 l 2,8,9
 307 -50 307 -50 277.5 -83 c 128,-1,10
 248 -116 248 -116 212 -132 c 128,-1,11
 176 -148 176 -148 139.5 -150.5 c 128,-1,12
 103 -153 103 -153 78 -147 c 1,13,14
 85 -134 85 -134 89 -128 c 128,-1,15
 93 -122 93 -122 95 -119 c 128,-1,16
 97 -116 97 -116 97.5 -115 c 128,-1,17
 98 -114 98 -114 99 -112 c 1,18,19
 128 -118 128 -118 157.5 -113.5 c 128,-1,20
 187 -109 187 -109 212 -94 c 128,-1,21
 237 -79 237 -79 255.5 -52 c 128,-1,22
 274 -25 274 -25 283 15 c 2,23,-1
 290 51 l 1,24,25
 266 23 266 23 234.5 6 c 128,-1,26
 203 -11 203 -11 165 -11 c 0,27,28
 129 -11 129 -11 105 4.5 c 128,-1,29
 81 20 81 20 69 45.5 c 128,-1,30
 57 71 57 71 55 103 c 128,-1,31
 53 135 53 135 60 169 c 0,32,33
 67 202 67 202 82.5 234.5 c 128,-1,34
 98 267 98 267 121.5 292.5 c 128,-1,35
 145 318 145 318 175.5 333.5 c 128,-1,36
 206 349 206 349 242 349 c 0,37,38
 281 349 281 349 305 331.5 c 128,-1,39
 329 314 329 314 340 285 c 1,0,1
319 188 m 2,40,41
 322 210 322 210 318.5 232.5 c 128,-1,42
 315 255 315 255 305 273 c 128,-1,43
 295 291 295 291 277.5 302 c 128,-1,44
 260 313 260 313 234 313 c 0,45,46
 205 313 205 313 181 299.5 c 128,-1,47
 157 286 157 286 139.5 265 c 128,-1,48
 122 244 122 244 110 218.5 c 128,-1,49
 98 193 98 193 93 169 c 256,50,51
 88 145 88 145 89 119.5 c 128,-1,52
 90 94 90 94 99 73 c 128,-1,53
 108 52 108 52 126 38.5 c 128,-1,54
 144 25 144 25 173 25 c 0,55,56
 199 25 199 25 221.5 36 c 128,-1,57
 244 47 244 47 261.5 64.5 c 128,-1,58
 279 82 279 82 291.5 104 c 128,-1,59
 304 126 304 126 311 148 c 2,60,-1
 319 188 l 2,40,41
EndSplineSet
EndChar
StartChar: h
Encoding: 104 104 73
Width: 355
Flags: W
Fore
317 213 m 2,0,1
 322 238 322 238 317.5 256.5 c 128,-1,2
 313 275 313 275 302.5 286.5 c 128,-1,3
 292 298 292 298 277.5 303.5 c 128,-1,4
 263 309 263 309 249 309 c 0,5,6
 226 309 226 309 205.5 299 c 128,-1,7
 185 289 185 289 168 272 c 128,-1,8
 151 255 151 255 139 233.5 c 128,-1,9
 127 212 127 212 122 188 c 2,10,-1
 83 0 l 1,11,-1
 47 0 l 1,12,-1
 152 497 l 1,13,-1
 189 497 l 1,14,-1
 143 279 l 1,15,16
 163 306 163 306 193.5 324 c 128,-1,17
 224 342 224 342 258 342 c 0,18,19
 285 342 285 342 305.5 332 c 128,-1,20
 326 322 326 322 338.5 304.5 c 128,-1,21
 351 287 351 287 355 263.5 c 128,-1,22
 359 240 359 240 353 213 c 2,23,-1
 320 59 l 2,24,25
 316 39 316 39 318 21.5 c 128,-1,26
 320 4 320 4 322 3 c 1,27,-1
 286 -10 l 1,28,29
 284 -4 284 -4 281 13 c 128,-1,30
 278 30 278 30 284 59 c 2,31,-1
 317 213 l 2,0,1
EndSplineSet
EndChar
StartChar: i
Encoding: 105 105 74
Width: 138
Flags: W
Fore
124 348 m 1,0,-1
 160 348 l 1,1,-1
 87 0 l 1,2,-1
 51 0 l 1,3,-1
 124 348 l 1,0,-1
169 472 m 0,4,5
 181 472 181 472 187.5 463.5 c 128,-1,6
 194 455 194 455 191 442 c 0,7,8
 189 430 189 430 178.5 421 c 128,-1,9
 168 412 168 412 156 412 c 0,10,11
 143 412 143 412 136 421 c 128,-1,12
 129 430 129 430 131 442 c 0,13,14
 134 455 134 455 145 463.5 c 128,-1,15
 156 472 156 472 169 472 c 0,4,5
EndSplineSet
EndChar
StartChar: j
Encoding: 106 106 75
Width: 138
Flags: W
Fore
167 471 m 0,0,1
 180 471 180 471 186.5 462.5 c 128,-1,2
 193 454 193 454 190 441 c 0,3,4
 188 429 188 429 177.5 420 c 128,-1,5
 167 411 167 411 154 411 c 0,6,7
 142 411 142 411 135 420 c 128,-1,8
 128 429 128 429 130 441 c 0,9,10
 133 454 133 454 144 462.5 c 128,-1,11
 155 471 155 471 167 471 c 0,0,1
-60 -149 m 1,12,13
 -59 -149 -59 -149 -61 -144 c 128,-1,14
 -63 -139 -63 -139 -65 -133.5 c 128,-1,15
 -67 -128 -67 -128 -69 -123 c 128,-1,16
 -71 -118 -71 -118 -70 -118 c 0,17,18
 -32 -115 -32 -115 -10.5 -106.5 c 128,-1,19
 11 -98 11 -98 22.5 -83.5 c 128,-1,20
 34 -69 34 -69 39.5 -46.5 c 128,-1,21
 45 -24 45 -24 52 8 c 2,22,-1
 124 348 l 1,23,-1
 160 348 l 1,24,-1
 84 -10 l 2,25,26
 76 -45 76 -45 66.5 -70 c 128,-1,27
 57 -95 57 -95 40.5 -111 c 128,-1,28
 24 -127 24 -127 0 -136 c 128,-1,29
 -24 -145 -24 -145 -60 -149 c 1,12,13
EndSplineSet
EndChar
StartChar: k
Encoding: 107 107 76
Width: 310
Flags: W
Fore
304 2 m 1,0,-1
 269 -10 l 1,1,-1
 126 186 l 1,2,-1
 87 0 l 1,3,-1
 50 0 l 1,4,-1
 155 497 l 1,5,-1
 192 497 l 1,6,-1
 133 217 l 1,7,-1
 322 354 l 1,8,-1
 351 341 l 1,9,-1
 162 202 l 1,10,-1
 304 2 l 1,0,-1
EndSplineSet
EndChar
StartChar: l
Encoding: 108 108 77
Width: 138
Flags: W
Fore
176 505 m 1,0,-1
 194 505 l 1,1,-1
 87 0 l 1,2,-1
 51 0 l 1,3,-1
 154 487 l 1,4,-1
 176 505 l 1,0,-1
EndSplineSet
EndChar
StartChar: m
Encoding: 109 109 78
Width: 543
Flags: W
Fore
102 266 m 2,0,1
 105 282 105 282 106 293.5 c 128,-1,2
 107 305 107 305 106.5 313 c 128,-1,3
 106 321 106 321 104.5 326.5 c 128,-1,4
 103 332 103 332 102 337 c 1,5,-1
 139 350 l 1,6,7
 141 344 141 344 144.5 330.5 c 128,-1,8
 148 317 148 317 143 290 c 1,9,10
 163 317 163 317 193 333 c 128,-1,11
 223 349 223 349 253 349 c 0,12,13
 288 349 288 349 312 330 c 128,-1,14
 336 311 336 311 340 278 c 1,15,16
 359 310 359 310 392 329.5 c 128,-1,17
 425 349 425 349 460 349 c 0,18,19
 497 349 497 349 516.5 333.5 c 128,-1,20
 536 318 536 318 543.5 297 c 128,-1,21
 551 276 551 276 550 253 c 128,-1,22
 549 230 549 230 546 215 c 2,23,-1
 513 61 l 2,24,25
 509 41 509 41 511 23.5 c 128,-1,26
 513 6 513 6 515 5 c 1,27,-1
 479 -8 l 1,28,29
 477 -2 477 -2 474 15 c 128,-1,30
 471 32 471 32 477 61 c 2,31,-1
 512 223 l 2,32,33
 521 266 521 266 505 290 c 128,-1,34
 489 314 489 314 452 314 c 0,35,36
 429 314 429 314 410 304.5 c 128,-1,37
 391 295 391 295 375.5 279 c 128,-1,38
 360 263 360 263 349.5 242 c 128,-1,39
 339 221 339 221 334 199 c 2,40,-1
 292 0 l 1,41,-1
 256 0 l 1,42,-1
 303 223 l 2,43,44
 312 266 312 266 292 290 c 128,-1,45
 272 314 272 314 236 314 c 0,46,47
 213 314 213 314 195 304.5 c 128,-1,48
 177 295 177 295 162.5 279 c 128,-1,49
 148 263 148 263 138.5 242 c 128,-1,50
 129 221 129 221 124 199 c 2,51,-1
 82 0 l 1,52,-1
 46 0 l 1,53,-1
 102 266 l 2,0,1
EndSplineSet
EndChar
StartChar: n
Encoding: 110 110 79
Width: 341
Flags: W
Fore
102 267 m 2,0,1
 106 283 106 283 107 294.5 c 128,-1,2
 108 306 108 306 107 313.5 c 128,-1,3
 106 321 106 321 104.5 326.5 c 128,-1,4
 103 332 103 332 102 337 c 1,5,-1
 139 350 l 1,6,7
 141 344 141 344 145 330 c 128,-1,8
 149 316 149 316 143 287 c 1,9,10
 164 318 164 318 195.5 334 c 128,-1,11
 227 350 227 350 257 350 c 0,12,13
 294 350 294 350 313.5 335.5 c 128,-1,14
 333 321 333 321 341 300.5 c 128,-1,15
 349 280 349 280 349 258.5 c 128,-1,16
 349 237 349 237 346 222 c 2,17,-1
 311 59 l 2,18,19
 307 39 307 39 308.5 21.5 c 128,-1,20
 310 4 310 4 312 3 c 1,21,-1
 276 -10 l 1,22,23
 274 -4 274 -4 271.5 13 c 128,-1,24
 269 30 269 30 275 59 c 2,25,-1
 310 223 l 2,26,27
 319 267 319 267 299.5 290 c 128,-1,28
 280 313 280 313 242 313 c 0,29,30
 220 313 220 313 200.5 303.5 c 128,-1,31
 181 294 181 294 166 278.5 c 128,-1,32
 151 263 151 263 140.5 242.5 c 128,-1,33
 130 222 130 222 125 200 c 2,34,-1
 83 0 l 1,35,-1
 46 0 l 1,36,-1
 102 267 l 2,0,1
EndSplineSet
EndChar
StartChar: o
Encoding: 111 111 80
Width: 329
Flags: W
Fore
237 348 m 256,0,1
 273 348 273 348 297 332.5 c 128,-1,2
 321 317 321 317 333.5 292 c 128,-1,3
 346 267 346 267 348.5 235 c 128,-1,4
 351 203 351 203 344 170 c 256,5,6
 337 137 337 137 321 105 c 128,-1,7
 305 73 305 73 282 48 c 128,-1,8
 259 23 259 23 228.5 7.5 c 128,-1,9
 198 -8 198 -8 162 -8 c 256,10,11
 126 -8 126 -8 102.5 7.5 c 128,-1,12
 79 23 79 23 66.5 48 c 128,-1,13
 54 73 54 73 52 105 c 128,-1,14
 50 137 50 137 57 170 c 256,15,16
 64 203 64 203 79.5 235 c 128,-1,17
 95 267 95 267 118 292 c 128,-1,18
 141 317 141 317 171 332.5 c 128,-1,19
 201 348 201 348 237 348 c 256,0,1
169 24 m 256,20,21
 196 24 196 24 219 37.5 c 128,-1,22
 242 51 242 51 260 72 c 128,-1,23
 278 93 278 93 290 119 c 128,-1,24
 302 145 302 145 308 170 c 0,25,26
 313 194 313 194 312 220 c 128,-1,27
 311 246 311 246 302 267.5 c 128,-1,28
 293 289 293 289 275.5 302.5 c 128,-1,29
 258 316 258 316 231 316 c 256,30,31
 204 316 204 316 180.5 302.5 c 128,-1,32
 157 289 157 289 139 268 c 128,-1,33
 121 247 121 247 109 221 c 128,-1,34
 97 195 97 195 92 170 c 0,35,36
 86 145 86 145 87 119 c 128,-1,37
 88 93 88 93 97 72 c 128,-1,38
 106 51 106 51 124 37.5 c 128,-1,39
 142 24 142 24 169 24 c 256,20,21
EndSplineSet
EndChar
StartChar: p
Encoding: 112 112 81
Width: 357
Flags: W
Fore
194 27 m 0,0,1
 223 27 223 27 246.5 40.5 c 128,-1,2
 270 54 270 54 287.5 75 c 128,-1,3
 305 96 305 96 317 121.5 c 128,-1,4
 329 147 329 147 334 171 c 256,5,6
 339 195 339 195 338 220.5 c 128,-1,7
 337 246 337 246 328 267 c 128,-1,8
 319 288 319 288 301.5 301.5 c 128,-1,9
 284 315 284 315 255 315 c 0,10,11
 228 315 228 315 206 304 c 128,-1,12
 184 293 184 293 166.5 275 c 128,-1,13
 149 257 149 257 136.5 234.5 c 128,-1,14
 124 212 124 212 117 190 c 2,15,-1
 109 151 l 2,16,17
 107 129 107 129 110 107 c 128,-1,18
 113 85 113 85 123 67 c 128,-1,19
 133 49 133 49 150.5 38 c 128,-1,20
 168 27 168 27 194 27 c 0,0,1
95 263 m 2,21,22
 103 296 103 296 100.5 311 c 128,-1,23
 98 326 98 326 96 337 c 1,24,-1
 132 350 l 1,25,26
 134 344 134 344 138.5 329.5 c 128,-1,27
 143 315 143 315 136 286 c 1,28,29
 159 315 159 315 191.5 333 c 128,-1,30
 224 351 224 351 263 351 c 0,31,32
 299 351 299 351 323 335.5 c 128,-1,33
 347 320 347 320 359 294.5 c 128,-1,34
 371 269 371 269 373 236.5 c 128,-1,35
 375 204 375 204 368 171 c 0,36,37
 361 137 361 137 345.5 105 c 128,-1,38
 330 73 330 73 307 47.5 c 128,-1,39
 284 22 284 22 253.5 6.5 c 128,-1,40
 223 -9 223 -9 187 -9 c 0,41,42
 148 -9 148 -9 123.5 8 c 128,-1,43
 99 25 99 25 88 53 c 1,44,-1
 58 -88 l 2,45,46
 52 -117 52 -117 42 -134 c 128,-1,47
 32 -151 32 -151 27 -157 c 1,48,-1
 -3 -144 l 1,49,50
 -1 -143 -1 -143 7.5 -125.5 c 128,-1,51
 16 -108 16 -108 21 -88 c 2,52,-1
 95 263 l 2,21,22
EndSplineSet
EndChar
StartChar: q
Encoding: 113 113 82
Width: 362
Flags: W
Fore
177 27 m 0,0,1
 203 27 203 27 225.5 38 c 128,-1,2
 248 49 248 49 265.5 67 c 128,-1,3
 283 85 283 85 295.5 107 c 128,-1,4
 308 129 308 129 316 151 c 1,5,-1
 324 190 l 2,6,7
 327 212 327 212 323.5 234.5 c 128,-1,8
 320 257 320 257 310 275 c 128,-1,9
 300 293 300 293 282.5 304 c 128,-1,10
 265 315 265 315 238 315 c 0,11,12
 209 315 209 315 185.5 301.5 c 128,-1,13
 162 288 162 288 144.5 267 c 128,-1,14
 127 246 127 246 115.5 220.5 c 128,-1,15
 104 195 104 195 99 171 c 256,16,17
 94 147 94 147 94.5 121.5 c 128,-1,18
 95 96 95 96 104 75 c 128,-1,19
 113 54 113 54 130.5 40.5 c 128,-1,20
 148 27 148 27 177 27 c 0,0,1
302 -88 m 2,21,22
 297 -108 297 -108 299 -125.5 c 128,-1,23
 301 -143 301 -143 303 -144 c 1,24,-1
 266 -157 l 1,25,26
 264 -151 264 -151 261.5 -134 c 128,-1,27
 259 -117 259 -117 265 -88 c 2,28,-1
 295 53 l 1,29,30
 272 25 272 25 240.5 8 c 128,-1,31
 209 -9 209 -9 170 -9 c 0,32,33
 134 -9 134 -9 110 6.5 c 128,-1,34
 86 22 86 22 74 47.5 c 128,-1,35
 62 73 62 73 60 105 c 128,-1,36
 58 137 58 137 65 171 c 0,37,38
 72 204 72 204 87.5 236.5 c 128,-1,39
 103 269 103 269 126 294.5 c 128,-1,40
 149 320 149 320 179.5 335.5 c 128,-1,41
 210 351 210 351 246 351 c 0,42,43
 285 351 285 351 309.5 332.5 c 128,-1,44
 334 314 334 314 345 285 c 1,45,46
 351 314 351 314 361 329 c 128,-1,47
 371 344 371 344 376 350 c 1,48,-1
 407 337 l 1,49,50
 400 326 400 326 392 311 c 128,-1,51
 384 296 384 296 376 263 c 2,52,-1
 302 -88 l 2,21,22
EndSplineSet
EndChar
StartChar: r
Encoding: 114 114 83
Width: 222
Flags: W
Fore
102 263 m 2,0,1
 110 296 110 296 107.5 311 c 128,-1,2
 105 326 105 326 103 337 c 1,3,-1
 139 350 l 1,4,5
 141 344 141 344 144.5 322.5 c 128,-1,6
 148 301 148 301 139 274 c 1,7,8
 149 301 149 301 166.5 319 c 128,-1,9
 184 337 184 337 205.5 345.5 c 128,-1,10
 227 354 227 354 250 353 c 128,-1,11
 273 352 273 352 295 341 c 1,12,-1
 269 306 l 1,13,14
 255 314 255 314 235 314 c 128,-1,15
 215 314 215 314 194.5 302 c 128,-1,16
 174 290 174 290 155 263.5 c 128,-1,17
 136 237 136 237 124 192 c 2,18,-1
 84 0 l 1,19,-1
 47 0 l 1,20,-1
 102 263 l 2,0,1
EndSplineSet
EndChar
StartChar: s
Encoding: 115 115 84
Width: 284
Flags: W
Fore
284 89 m 0,0,1
 275 46 275 46 238.5 19 c 128,-1,2
 202 -8 202 -8 138 -9 c 0,3,4
 112 -9 112 -9 92.5 -4.5 c 128,-1,5
 73 0 73 0 59.5 6.5 c 128,-1,6
 46 13 46 13 36.5 21.5 c 128,-1,7
 27 30 27 30 20 37 c 1,8,-1
 52 64 l 1,9,10
 63 51 63 51 85 37 c 128,-1,11
 107 23 107 23 146 24 c 256,12,13
 185 25 185 25 212 40.5 c 128,-1,14
 239 56 239 56 245 82 c 0,15,16
 251 110 251 110 234 124.5 c 128,-1,17
 217 139 217 139 164 159 c 0,18,19
 118 177 118 177 96 201 c 128,-1,20
 74 225 74 225 81 257 c 0,21,22
 85 275 85 275 96 292.5 c 128,-1,23
 107 310 107 310 124.5 323.5 c 128,-1,24
 142 337 142 337 165 345.5 c 128,-1,25
 188 354 188 354 216 354 c 0,26,27
 242 354 242 354 270.5 344 c 128,-1,28
 299 334 299 334 312 323 c 1,29,-1
 289 290 l 1,30,31
 282 296 282 296 259.5 307.5 c 128,-1,32
 237 319 237 319 207 319 c 0,33,34
 172 319 172 319 149 302.5 c 128,-1,35
 126 286 126 286 121 262 c 0,36,37
 116 235 116 235 136 220.5 c 128,-1,38
 156 206 156 206 195 190 c 0,39,40
 217 181 217 181 235.5 172 c 128,-1,41
 254 163 254 163 266 151.5 c 128,-1,42
 278 140 278 140 283 125 c 128,-1,43
 288 110 288 110 284 89 c 0,0,1
EndSplineSet
EndChar
StartChar: t
Encoding: 116 116 85
Width: 200
Flags: W
Fore
150 26 m 0,0,1
 159 26 159 26 167.5 29 c 128,-1,2
 176 32 176 32 183 34 c 1,3,-1
 187 0 l 1,4,5
 176 -2 176 -2 161.5 -5.5 c 128,-1,6
 147 -9 147 -9 137 -9 c 0,7,8
 108 -9 108 -9 94.5 0.5 c 128,-1,9
 81 10 81 10 76.5 24.5 c 128,-1,10
 72 39 72 39 74.5 56.5 c 128,-1,11
 77 74 77 74 81 91 c 2,12,-1
 129 318 l 1,13,-1
 74 318 l 1,14,-1
 88 348 l 1,15,-1
 135 348 l 1,16,-1
 154 434 l 1,17,-1
 181 452 l 1,18,-1
 194 452 l 1,19,-1
 171 348 l 1,20,-1
 252 348 l 1,21,-1
 238 318 l 1,22,-1
 165 318 l 1,23,-1
 114 76 l 2,24,25
 107 45 107 45 118 35.5 c 128,-1,26
 129 26 129 26 150 26 c 0,0,1
EndSplineSet
EndChar
StartChar: u
Encoding: 117 117 86
Width: 355
Flags: W
Fore
320 75 m 2,0,1
 313 42 313 42 315.5 27 c 128,-1,2
 318 12 318 12 320 1 c 1,3,-1
 284 -12 l 1,4,5
 282 -6 282 -6 277.5 7.5 c 128,-1,6
 273 21 273 21 279 50 c 1,7,8
 257 19 257 19 224.5 5 c 128,-1,9
 192 -9 192 -9 162 -9 c 0,10,11
 125 -9 125 -9 105 5.5 c 128,-1,12
 85 20 85 20 76 40.5 c 128,-1,13
 67 61 67 61 66.5 82.5 c 128,-1,14
 66 104 66 104 69 119 c 2,15,-1
 117 348 l 1,16,-1
 153 348 l 1,17,-1
 105 118 l 2,18,19
 95 74 95 74 116.5 49 c 128,-1,20
 138 24 138 24 176 24 c 0,21,22
 198 24 198 24 218 34 c 128,-1,23
 238 44 238 44 254 60.5 c 128,-1,24
 270 77 270 77 281 98 c 128,-1,25
 292 119 292 119 297 141 c 2,26,-1
 341 348 l 1,27,-1
 378 348 l 1,28,-1
 320 75 l 2,0,1
EndSplineSet
EndChar
StartChar: v
Encoding: 118 118 87
Width: 335
Flags: W
Fore
352 353 m 1,0,-1
 388 346 l 1,1,2
 330 249 330 249 285 173 c 0,3,4
 266 140 266 140 247.5 109 c 128,-1,5
 229 78 229 78 214.5 54 c 128,-1,6
 200 30 200 30 191.5 15 c 128,-1,7
 183 1 183 1 183 0 c 1,8,9
 179 -8 179 -8 171 -9.5 c 128,-1,10
 163 -11 163 -11 156 -8 c 128,-1,11
 149 -5 149 -5 145 0 c 128,-1,12
 141 5 141 5 146 11 c 2,13,-1
 149 15 l 1,14,-1
 92 346 l 1,15,-1
 131 353 l 1,16,-1
 178 56 l 1,17,-1
 352 353 l 1,0,-1
EndSplineSet
EndChar
StartChar: w
Encoding: 119 119 88
Width: 520
Flags: W
Fore
320 345 m 2,0,1
 324 351 324 351 331 351.5 c 128,-1,2
 338 352 338 352 344.5 349.5 c 128,-1,3
 351 347 351 347 354 342.5 c 128,-1,4
 357 338 357 338 353 332 c 1,5,-1
 347 319 l 1,6,-1
 379 55 l 1,7,-1
 536 357 l 1,8,-1
 571 348 l 1,9,-1
 397 20 l 1,10,-1
 398 10 l 2,11,12
 398 3 398 3 390.5 -1 c 128,-1,13
 383 -5 383 -5 374 -5.5 c 128,-1,14
 365 -6 365 -6 357.5 -3 c 128,-1,15
 350 0 350 0 352 8 c 1,16,-1
 317 276 l 1,17,-1
 167 8 l 1,18,19
 165 0 165 0 157 -3 c 128,-1,20
 149 -6 149 -6 140 -5.5 c 128,-1,21
 131 -5 131 -5 125.5 -1 c 128,-1,22
 120 3 120 3 123 10 c 2,23,-1
 128 20 l 1,24,-1
 93 347 l 1,25,-1
 132 356 l 1,26,-1
 161 55 l 1,27,-1
 320 345 l 2,0,1
EndSplineSet
EndChar
StartChar: x
Encoding: 120 120 89
Width: 332
Flags: W
Fore
222 173 m 1,0,-1
 312 17 l 1,1,-1
 277 -6 l 1,2,-1
 196 146 l 1,3,-1
 50 -6 l 1,4,-1
 24 17 l 1,5,-1
 179 173 l 1,6,-1
 92 338 l 1,7,-1
 127 359 l 1,8,-1
 207 200 l 1,9,-1
 355 359 l 1,10,-1
 380 338 l 1,11,-1
 222 173 l 1,0,-1
EndSplineSet
EndChar
StartChar: y
Encoding: 121 121 90
Width: 346
Flags: W
Fore
152 -70 m 0,0,1
 141 -88 141 -88 128.5 -101.5 c 128,-1,2
 116 -115 116 -115 99 -126 c 0,3,4
 72 -142 72 -142 52.5 -148 c 128,-1,5
 33 -154 33 -154 27 -157 c 1,6,-1
 23 -125 l 1,7,8
 52 -114 52 -114 70 -105.5 c 128,-1,9
 88 -97 88 -97 102 -83.5 c 128,-1,10
 116 -70 116 -70 129 -48.5 c 128,-1,11
 142 -27 142 -27 160 10 c 1,12,-1
 93 342 l 1,13,-1
 133 358 l 1,14,-1
 190 54 l 1,15,-1
 368 358 l 1,16,-1
 397 342 l 1,17,18
 386.5 324 l 130,-1,19
 376 306 376 306 359 277 c 128,-1,20
 342 248 342 248 320 211.5 c 128,-1,21
 298 175 298 175 275.5 136.5 c 128,-1,22
 253 98 253 98 231 61 c 128,-1,23
 209 24 209 24 191.5 -5 c 128,-1,24
 174 -34 174 -34 163.5 -51.5 c 128,-1,25
 153 -69 153 -69 152 -70 c 0,0,1
EndSplineSet
EndChar
StartChar: z
Encoding: 122 122 91
Width: 311
Flags: W
Fore
31 0 m 2,0,1
 25 0 25 0 23 5.5 c 128,-1,2
 21 11 21 11 22.5 17.5 c 128,-1,3
 24 24 24 24 28 29.5 c 128,-1,4
 32 35 32 35 38 35 c 1,5,-1
 300 312 l 1,6,-1
 98 312 l 1,7,-1
 105 348 l 1,8,-1
 353 348 l 2,9,10
 359 348 359 348 361 342.5 c 128,-1,11
 363 337 363 337 361.5 330 c 128,-1,12
 360 323 360 323 356 317.5 c 128,-1,13
 352 312 352 312 346 312 c 1,14,-1
 83 35 l 1,15,-1
 296 35 l 1,16,-1
 289 0 l 1,17,-1
 31 0 l 2,0,1
EndSplineSet
EndChar
StartChar: braceleft
Encoding: 123 123 92
Width: 183
Flags: W
Fore
120 -89 m 1,0,-1
 127 -102 l 1,1,-1
 79 -102 l 2,2,3
 58 -102 58 -102 48.5 -87 c 128,-1,4
 39 -72 39 -72 43 -55 c 2,5,-1
 89 160 l 2,6,7
 91 173 91 173 89 184 c 128,-1,8
 87 195 87 195 74 200 c 1,9,-1
 78 215 l 1,10,11
 90 220 90 220 98 231 c 128,-1,12
 106 242 106 242 109 255 c 2,13,-1
 154 470 l 2,14,15
 158 487 158 487 173.5 502 c 128,-1,16
 189 517 189 517 210 517 c 2,17,-1
 258 517 l 1,18,-1
 246 504 l 1,19,-1
 222 502 l 1,20,21
 214 500 214 500 203 494 c 128,-1,22
 192 488 192 488 189 471 c 2,23,-1
 144 260 l 2,24,25
 142 252 142 252 136.5 243 c 128,-1,26
 131 234 131 234 124 226 c 128,-1,27
 117 218 117 218 110.5 213 c 128,-1,28
 104 208 104 208 100 207 c 1,29,30
 108 206 108 206 116.5 189 c 128,-1,31
 125 172 125 172 121 155 c 2,32,-1
 77 -56 l 2,33,34
 73 -73 73 -73 81 -79 c 128,-1,35
 89 -85 89 -85 97 -87 c 1,36,-1
 120 -89 l 1,0,-1
EndSplineSet
EndChar
StartChar: bar
Encoding: 124 124 93
Width: 130
Flags: W
Fore
183 474 m 1,0,-1
 83 0 l 1,1,-1
 55 0 l 1,2,-1
 155 474 l 1,3,-1
 183 474 l 1,0,-1
EndSplineSet
EndChar
StartChar: braceright
Encoding: 125 125 94
Width: 188
Flags: W
Fore
50 -87 m 1,0,1
 58 -85 58 -85 69 -79 c 128,-1,2
 80 -73 80 -73 84 -56 c 2,3,-1
 128 155 l 2,4,5
 130 163 130 163 135.5 172 c 128,-1,6
 141 181 141 181 147.5 188.5 c 128,-1,7
 154 196 154 196 160.5 201.5 c 128,-1,8
 167 207 167 207 171 207 c 1,9,10
 164 209 164 209 155.5 226 c 128,-1,11
 147 243 147 243 151 260 c 2,12,-1
 196 471 l 2,13,14
 199 488 199 488 191 494 c 128,-1,15
 183 500 183 500 175 502 c 1,16,-1
 153 504 l 1,17,-1
 145 517 l 1,18,-1
 193 517 l 2,19,20
 214 517 214 517 223.5 502 c 128,-1,21
 233 487 233 487 229 470 c 2,22,-1
 184 255 l 2,23,24
 181 242 181 242 183.5 231 c 128,-1,25
 186 220 186 220 197 215 c 1,26,-1
 195 200 l 1,27,28
 181 195 181 195 173.5 184 c 128,-1,29
 166 173 166 173 164 160 c 2,30,-1
 118 -55 l 2,31,32
 114 -72 114 -72 98.5 -87 c 128,-1,33
 83 -102 83 -102 62 -102 c 2,34,-1
 14 -102 l 1,35,-1
 27 -89 l 1,36,-1
 50 -87 l 1,0,1
EndSplineSet
EndChar
StartChar: asciitilde
Encoding: 126 126 95
Width: 406
Flags: W
Fore
410 199 m 1,0,1
 390 173 390 173 364.5 152.5 c 128,-1,2
 339 132 339 132 304 132 c 0,3,4
 286 132 286 132 269.5 139 c 128,-1,5
 253 146 253 146 237 154.5 c 128,-1,6
 221 163 221 163 205.5 170 c 128,-1,7
 190 177 190 177 174 177 c 0,8,9
 147 177 147 177 125 157 c 128,-1,10
 103 137 103 137 89 118 c 1,11,-1
 75 152 l 1,12,13
 94 174 94 174 119.5 195 c 128,-1,14
 145 216 145 216 181 216 c 0,15,16
 196 216 196 216 213.5 209 c 128,-1,17
 231 202 231 202 248.5 193 c 128,-1,18
 266 184 266 184 283 177 c 128,-1,19
 300 170 300 170 314 170 c 0,20,21
 325 170 325 170 336 175.5 c 128,-1,22
 347 181 347 181 357.5 189.5 c 128,-1,23
 368 198 368 198 377 207.5 c 128,-1,24
 386 217 386 217 392 226 c 1,25,-1
 410 199 l 1,0,1
EndSplineSet
EndChar
StartChar: uni0E33.alt1
Encoding: 65539 -1 96
Width: 349
Flags: W
Fore
-159 537 m 0,0,1
 -153 567 -153 567 -127 588.5 c 128,-1,2
 -101 610 -101 610 -70 610 c 0,3,4
 -40 610 -40 610 -23 588.5 c 128,-1,5
 -6 567 -6 567 -12 537 c 0,6,7
 -19 506 -19 506 -45 484.5 c 128,-1,8
 -71 463 -71 463 -101 463 c 0,9,10
 -132 463 -132 463 -149 484.5 c 128,-1,11
 -166 506 -166 506 -159 537 c 0,0,1
-94 498 m 0,12,13
 -78 498 -78 498 -64.5 509 c 128,-1,14
 -51 520 -51 520 -47 537 c 0,15,16
 -44 553 -44 553 -52.5 564 c 128,-1,17
 -61 575 -61 575 -77 575 c 0,18,19
 -94 575 -94 575 -107.5 564 c 128,-1,20
 -121 553 -121 553 -124 537 c 0,21,22
 -128 520 -128 520 -119.5 509 c 128,-1,23
 -111 498 -111 498 -94 498 c 0,12,13
292 0 m 1,24,-1
 253 0 l 1,25,-1
 316 299 l 2,26,27
 318 305 318 305 319.5 310 c 128,-1,28
 321 315 321 315 326 320 c 1,29,30
 323 327 323 327 317 336 c 128,-1,31
 311 345 311 345 300.5 353 c 128,-1,32
 290 361 290 361 274.5 366.5 c 128,-1,33
 259 372 259 372 238 372 c 0,34,35
 192 372 192 372 162.5 341 c 128,-1,36
 133 310 133 310 118 262 c 1,37,-1
 81 262 l 1,38,39
 90 293 90 293 105 319.5 c 128,-1,40
 120 346 120 346 140.5 365.5 c 128,-1,41
 161 385 161 385 187.5 396.5 c 128,-1,42
 214 408 214 408 245 408 c 0,43,44
 270 408 270 408 289 402.5 c 128,-1,45
 308 397 308 397 321.5 388.5 c 128,-1,46
 335 380 335 380 343 369.5 c 128,-1,47
 351 359 351 359 354 349 c 1,48,49
 356 351 356 351 361.5 350 c 128,-1,50
 367 349 367 349 373 341 c 0,51,52
 380 330 380 330 376.5 325 c 128,-1,53
 373 320 373 320 365 313 c 0,54,55
 357 307 357 307 354 292 c 2,56,-1
 292 0 l 1,24,-1
EndSplineSet
EndChar
StartChar: quotedbl
Encoding: 34 34 97
Width: 201
Flags: W
Fore
223 308 m 1,0,-1
 196 308 l 1,1,-1
 220 469 l 1,2,-1
 267 469 l 1,3,-1
 223 308 l 1,0,-1
136 308 m 1,4,-1
 109 308 l 1,5,-1
 133 469 l 1,6,-1
 180 469 l 1,7,-1
 136 308 l 1,4,-1
EndSplineSet
EndChar
StartChar: exclam
Encoding: 33 33 98
Width: 228
Flags: W
Fore
125 113 m 1,0,-1
 192 474 l 1,1,-1
 241 474 l 1,2,-1
 157 113 l 1,3,-1
 125 113 l 1,0,-1
157 34 m 0,4,5
 153 19 153 19 142 9.5 c 128,-1,6
 131 0 131 0 118 0 c 0,7,8
 103 0 103 0 94.5 9.5 c 128,-1,9
 86 19 86 19 90 34 c 0,10,11
 93 48 93 48 105 57 c 128,-1,12
 117 66 117 66 132 66 c 0,13,14
 145 66 145 66 152.5 57 c 128,-1,15
 160 48 160 48 157 34 c 0,4,5
EndSplineSet
EndChar
StartChar: uni0E4E.alt1
Encoding: 65540 -1 99
Width: 0
Flags: W
Fore
73 661 m 1,0,1
 42 660 42 660 11.5 644 c 128,-1,2
 -19 628 -19 628 -23.5 603.5 c 128,-1,3
 -28 579 -28 579 0 572 c 1,4,-1
 -11 549 l 1,5,6
 -87 549 -87 549 -104 505 c 1,7,8
 -110 477 -110 477 -83.5 474 c 128,-1,9
 -57 471 -57 471 -35 482 c 1,10,-1
 -51 445 l 1,11,12
 -90 432 -90 432 -122.5 444 c 128,-1,13
 -155 456 -155 456 -146 501 c 1,14,15
 -125 560 -125 560 -46 569 c 1,16,17
 -67 598 -67 598 -55.5 622.5 c 128,-1,18
 -44 647 -44 647 -15 659 c 128,-1,19
 14 671 14 671 56 670 c 1,20,-1
 73 661 l 1,0,1
EndSplineSet
EndChar
StartChar: exclamdown
Encoding: 161 161 100
Width: 155
Flags: W
Fore
141 229 m 1,0,-1
 72 -132 l 1,1,-1
 23 -132 l 1,2,-1
 109 229 l 1,3,-1
 141 229 l 1,0,-1
176 314 m 0,4,5
 173 299 173 299 161.5 289.5 c 128,-1,6
 150 280 150 280 137 280 c 0,7,8
 122 280 122 280 114 289.5 c 128,-1,9
 106 299 106 299 109 314 c 0,10,11
 112 328 112 328 124 337 c 128,-1,12
 136 346 136 346 151 346 c 0,13,14
 164 346 164 346 171.5 337 c 128,-1,15
 179 328 179 328 176 314 c 0,4,5
EndSplineSet
EndChar
StartChar: cent
Encoding: 162 162 101
Width: 331
Flags: W
Fore
293 461 m 1,0,-1
 283 410 l 1,1,2
 305 408 305 408 325 400 c 128,-1,3
 345 392 345 392 359 375 c 1,4,-1
 336 339 l 1,5,6
 314 371 314 371 275 374 c 1,7,-1
 215 93 l 1,8,9
 234 93 234 93 253.5 99.5 c 128,-1,10
 273 106 273 106 291 123 c 1,11,-1
 308 99 l 1,12,13
 286 77 286 77 260 67.5 c 128,-1,14
 234 58 234 58 208 57 c 1,15,-1
 196 0 l 1,16,-1
 175 0 l 1,17,-1
 187 58 l 1,18,19
 178 60 178 60 170.5 61.5 c 128,-1,20
 163 63 163 63 155 66 c 0,21,22
 143 71 143 71 128 82 c 128,-1,23
 113 93 113 93 102.5 112.5 c 128,-1,24
 92 132 92 132 88 161.5 c 128,-1,25
 84 191 84 191 93 234 c 256,26,27
 102 277 102 277 118.5 306.5 c 128,-1,28
 135 336 135 336 154 355.5 c 128,-1,29
 173 375 173 375 192 385.5 c 128,-1,30
 211 396 211 396 226 401 c 0,31,32
 235 404 235 404 243.5 406 c 128,-1,33
 252 408 252 408 261 409 c 1,34,-1
 272 461 l 1,35,-1
 293 461 l 1,0,-1
174 100 m 0,36,37
 179 98 179 98 184 97 c 128,-1,38
 189 96 189 96 194 94 c 1,39,-1
 254 373 l 1,40,41
 206 366 206 366 173.5 328.5 c 128,-1,42
 141 291 141 291 129 234 c 0,43,44
 118 183 118 183 130 148 c 128,-1,45
 142 113 142 113 174 100 c 0,36,37
EndSplineSet
EndChar
StartChar: sterling
Encoding: 163 163 102
Width: 382
Flags: W
Fore
42 0 m 1,0,-1
 47 25 l 1,1,2
 84 44 84 44 108.5 65.5 c 128,-1,3
 133 87 133 87 147 112 c 128,-1,4
 161 137 161 137 167.5 164.5 c 128,-1,5
 174 192 174 192 176 223 c 1,6,-1
 90 223 l 1,7,-1
 104 253 l 1,8,-1
 178 253 l 1,9,10
 178 270 178 270 175 292.5 c 128,-1,11
 172 315 172 315 176 338 c 0,12,13
 189 407 189 407 235 441.5 c 128,-1,14
 281 476 281 476 339 476 c 0,15,16
 370 476 370 476 394 463.5 c 128,-1,17
 418 451 418 451 428 437 c 1,18,-1
 408 406 l 1,19,20
 400 420 400 420 378.5 432 c 128,-1,21
 357 444 357 444 331 444 c 0,22,23
 283 444 283 444 251.5 414.5 c 128,-1,24
 220 385 220 385 213 337 c 0,25,26
 210 311 210 311 212 290.5 c 128,-1,27
 214 270 214 270 214 253 c 1,28,-1
 326 253 l 1,29,-1
 312 223 l 1,30,-1
 212 223 l 1,31,32
 212 199 212 199 205 171.5 c 128,-1,33
 198 144 198 144 184.5 118.5 c 128,-1,34
 171 93 171 93 152.5 70.5 c 128,-1,35
 134 48 134 48 111 34 c 1,36,-1
 352 34 l 1,37,-1
 345 0 l 1,38,-1
 42 0 l 1,0,-1
EndSplineSet
EndChar
StartChar: currency
Encoding: 164 164 103
Width: 440
Flags: W
Fore
398 231 m 256,0,1
 393 208 393 208 380 187.5 c 128,-1,2
 367 167 367 167 350 150 c 1,3,-1
 398 91 l 1,4,-1
 375 72 l 1,5,-1
 327 130 l 1,6,7
 309 118 309 118 287 110.5 c 128,-1,8
 265 103 265 103 242 103 c 256,9,10
 219 103 219 103 200.5 111 c 128,-1,11
 182 119 182 119 169 132 c 1,12,-1
 94 72 l 1,13,-1
 80 91 l 1,14,-1
 153 151 l 1,15,16
 144 167 144 167 140.5 187.5 c 128,-1,17
 137 208 137 208 142 231 c 256,18,19
 147 254 147 254 158 274 c 128,-1,20
 169 294 169 294 185 310 c 1,21,-1
 139 369 l 1,22,-1
 161 388 l 1,23,-1
 209 330 l 1,24,25
 228 344 228 344 251 352 c 128,-1,26
 274 360 274 360 297 360 c 256,27,28
 320 360 320 360 338.5 352 c 128,-1,29
 357 344 357 344 371 331 c 1,30,-1
 442 388 l 1,31,-1
 457 369 l 1,32,-1
 387 312 l 1,33,34
 395 295 395 295 399 274.5 c 128,-1,35
 403 254 403 254 398 231 c 256,0,1
249 135 m 0,36,37
 269 135 269 135 288 142.5 c 128,-1,38
 307 150 307 150 323 163 c 128,-1,39
 339 176 339 176 350 193.5 c 128,-1,40
 361 211 361 211 366 231 c 0,41,42
 374 272 374 272 352 300 c 128,-1,43
 330 328 330 328 290 328 c 0,44,45
 270 328 270 328 251 320.5 c 128,-1,46
 232 313 232 313 216 300 c 128,-1,47
 200 287 200 287 189 269 c 128,-1,48
 178 251 178 251 174 231 c 0,49,50
 165 191 165 191 187 163 c 128,-1,51
 209 135 209 135 249 135 c 0,36,37
EndSplineSet
EndChar
StartChar: yen
Encoding: 165 165 104
Width: 382
Flags: W
Fore
287 255 m 1,0,-1
 385 255 l 1,1,-1
 379 227 l 1,2,-1
 264 227 l 1,3,-1
 254 214 l 1,4,-1
 244 165 l 1,5,-1
 366 165 l 1,6,-1
 359 134 l 1,7,-1
 237 134 l 1,8,-1
 208 -3 l 1,9,-1
 169 -3 l 1,10,-1
 198 134 l 1,11,-1
 79 134 l 1,12,-1
 86 165 l 1,13,-1
 205 165 l 1,14,-1
 215 214 l 1,15,-1
 211 227 l 1,16,-1
 99 227 l 1,17,-1
 105 255 l 1,18,-1
 200 255 l 1,19,20
 172 325 172 325 157 363 c 128,-1,21
 142 401 142 401 134.5 420.5 c 128,-1,22
 127 440 127 440 125 447 c 128,-1,23
 123 454 123 454 120 460 c 1,24,-1
 157 480 l 1,25,-1
 245 256 l 1,26,27
 286 307 286 307 314.5 342.5 c 128,-1,28
 343 378 343 378 362.5 401.5 c 128,-1,29
 382 425 382 425 393.5 438.5 c 128,-1,30
 405 452 405 452 412 459.5 c 128,-1,31
 419 467 419 467 422.5 471 c 128,-1,32
 426 475 426 475 430 480 c 1,33,-1
 457 460 l 1,34,-1
 287 255 l 1,0,-1
EndSplineSet
EndChar
StartChar: brokenbar
Encoding: 166 166 105
Width: 175
Flags: W
Fore
155 232 m 1,0,-1
 120 232 l 1,1,-1
 172 478 l 1,2,-1
 207 478 l 1,3,-1
 155 232 l 1,0,-1
79 -127 m 1,4,-1
 44 -127 l 1,5,-1
 96 119 l 1,6,-1
 131 119 l 1,7,-1
 79 -127 l 1,4,-1
EndSplineSet
EndChar
StartChar: section
Encoding: 167 167 106
Width: 382
Flags: W
Fore
370 215 m 0,0,1
 365 188 365 188 349.5 167.5 c 128,-1,2
 334 147 334 147 310 128 c 1,3,4
 317 120 317 120 321 103.5 c 128,-1,5
 325 87 325 87 321 66 c 0,6,7
 316 41 316 41 301.5 21.5 c 128,-1,8
 287 2 287 2 267 -11.5 c 128,-1,9
 247 -25 247 -25 222 -32.5 c 128,-1,10
 197 -40 197 -40 170 -40 c 0,11,12
 135 -40 135 -40 110.5 -31 c 128,-1,13
 86 -22 86 -22 72 -7 c 1,14,-1
 94 22 l 1,15,16
 104 10 104 10 125 0.5 c 128,-1,17
 146 -9 146 -9 179 -9 c 0,18,19
 220 -9 220 -9 248.5 10 c 128,-1,20
 277 29 277 29 284 61 c 0,21,22
 287 76 287 76 285.5 88 c 128,-1,23
 284 100 284 100 275 110.5 c 128,-1,24
 266 121 266 121 249 130 c 128,-1,25
 232 139 232 139 205 149 c 0,26,27
 150 168 150 168 125.5 190.5 c 128,-1,28
 101 213 101 213 110 255 c 0,29,30
 114 273 114 273 127.5 293.5 c 128,-1,31
 141 314 141 314 173 336 c 1,32,33
 154 357 154 357 162 391 c 0,34,35
 171 436 171 436 211 462.5 c 128,-1,36
 251 489 251 489 304 489 c 0,37,38
 338 489 338 489 361.5 480.5 c 128,-1,39
 385 472 385 472 399 463 c 1,40,-1
 375 433 l 1,41,42
 364 442 364 442 343.5 451 c 128,-1,43
 323 460 323 460 293 460 c 0,44,45
 259 460 259 460 232 442 c 128,-1,46
 205 424 205 424 199 397 c 0,47,48
 196 381 196 381 201 369 c 128,-1,49
 206 357 206 357 217.5 347.5 c 128,-1,50
 229 338 229 338 246 330.5 c 128,-1,51
 263 323 263 323 284 316 c 0,52,53
 305 308 305 308 323 299 c 128,-1,54
 341 290 341 290 353 279 c 128,-1,55
 365 268 365 268 370 252.5 c 128,-1,56
 375 237 375 237 370 215 c 0,0,1
336 210 m 0,57,58
 341 232 341 232 325.5 251 c 128,-1,59
 310 270 310 270 270 285 c 0,60,61
 252 291 252 291 229.5 300 c 128,-1,62
 207 309 207 309 192 319 c 1,63,64
 148 289 148 289 142 257 c 0,65,66
 138 237 138 237 152.5 216.5 c 128,-1,67
 167 196 167 196 218 178 c 0,68,69
 249 166 249 166 265.5 160.5 c 128,-1,70
 282 155 282 155 292 147 c 1,71,72
 306 160 306 160 319 176 c 128,-1,73
 332 192 332 192 336 210 c 0,57,58
EndSplineSet
EndChar
StartChar: dieresis
Encoding: 168 168 107
Width: 232
Flags: W
Fore
114 433 m 0,0,1
 116 447 116 447 126.5 456 c 128,-1,2
 137 465 137 465 151 465 c 256,3,4
 165 465 165 465 172 456 c 128,-1,5
 179 447 179 447 177 433 c 0,6,7
 174 419 174 419 163 410.5 c 128,-1,8
 152 402 152 402 138 402 c 256,9,10
 124 402 124 402 117.5 410.5 c 128,-1,11
 111 419 111 419 114 433 c 0,0,1
238 433 m 0,12,13
 240 447 240 447 250.5 456 c 128,-1,14
 261 465 261 465 275 465 c 256,15,16
 289 465 289 465 296 456 c 128,-1,17
 303 447 303 447 301 433 c 0,18,19
 298 419 298 419 287 410.5 c 128,-1,20
 276 402 276 402 262 402 c 256,21,22
 248 402 248 402 241.5 410.5 c 128,-1,23
 235 419 235 419 238 433 c 0,12,13
EndSplineSet
EndChar
StartChar: copyright
Encoding: 169 169 108
Width: 536
Flags: W
Fore
372 486 m 0,0,1
 421 486 421 486 460.5 466 c 128,-1,2
 500 446 500 446 525.5 412 c 128,-1,3
 551 378 551 378 560.5 332.5 c 128,-1,4
 570 287 570 287 559 236 c 0,5,6
 548 184 548 184 519 138.5 c 128,-1,7
 490 93 490 93 450 59 c 128,-1,8
 410 25 410 25 362 5 c 128,-1,9
 314 -15 314 -15 265 -15 c 0,10,11
 215 -15 215 -15 175.5 5 c 128,-1,12
 136 25 136 25 110.5 59 c 128,-1,13
 85 93 85 93 76 138.5 c 128,-1,14
 67 184 67 184 78 236 c 0,15,16
 89 287 89 287 117.5 332.5 c 128,-1,17
 146 378 146 378 186 412 c 128,-1,18
 226 446 226 446 274 466 c 128,-1,19
 322 486 322 486 372 486 c 0,0,1
272 15 m 256,20,21
 316 15 316 15 358 32.5 c 128,-1,22
 400 50 400 50 435 80 c 128,-1,23
 470 110 470 110 495 150.5 c 128,-1,24
 520 191 520 191 530 236 c 0,25,26
 539 281 539 281 531 321.5 c 128,-1,27
 523 362 523 362 501 392 c 128,-1,28
 479 422 479 422 444.5 439.5 c 128,-1,29
 410 457 410 457 366 457 c 256,30,31
 322 457 322 457 280 439.5 c 128,-1,32
 238 422 238 422 202.5 392 c 128,-1,33
 167 362 167 362 142 321.5 c 128,-1,34
 117 281 117 281 108 236 c 0,35,36
 98 191 98 191 106 150.5 c 128,-1,37
 114 110 114 110 136.5 80 c 128,-1,38
 159 50 159 50 193.5 32.5 c 128,-1,39
 228 15 228 15 272 15 c 256,20,21
391 108 m 1,40,41
 377 96 377 96 359 88 c 128,-1,42
 341 80 341 80 322 76.5 c 128,-1,43
 303 73 303 73 283.5 74.5 c 128,-1,44
 264 76 264 76 248 82 c 0,45,46
 236 86 236 86 222 96 c 128,-1,47
 208 106 208 106 197.5 123 c 128,-1,48
 187 140 187 140 183.5 166.5 c 128,-1,49
 180 193 180 193 188 232 c 0,50,51
 196 270 196 270 211 296.5 c 128,-1,52
 226 323 226 323 243.5 340.5 c 128,-1,53
 261 358 261 358 279.5 367.5 c 128,-1,54
 298 377 298 377 312 382 c 0,55,56
 347 394 347 394 381 387 c 128,-1,57
 415 380 415 380 436 356 c 1,58,-1
 415 327 l 1,59,60
 400 349 400 349 372 355 c 128,-1,61
 344 361 344 361 315 351 c 0,62,63
 281 340 281 340 256 308.5 c 128,-1,64
 231 277 231 277 221 232 c 256,65,66
 211 187 211 187 223 155 c 128,-1,67
 235 123 235 123 264 112 c 0,68,69
 287 104 287 104 318.5 107.5 c 128,-1,70
 350 111 350 111 375 134 c 1,71,-1
 391 108 l 1,40,41
EndSplineSet
EndChar
StartChar: ordfeminine
Encoding: 170 170 109
Width: 252
Flags: W
Fore
154 187 m 0,0,1
 130 187 130 187 115 197 c 128,-1,2
 100 207 100 207 92.5 223 c 128,-1,3
 85 239 85 239 83.5 259.5 c 128,-1,4
 82 280 82 280 87 301 c 256,5,6
 92 322 92 322 102 342.5 c 128,-1,7
 112 363 112 363 126.5 379 c 128,-1,8
 141 395 141 395 160 405 c 128,-1,9
 179 415 179 415 203 415 c 0,10,11
 228 415 228 415 242.5 404 c 128,-1,12
 257 393 257 393 264 375 c 1,13,-1
 273 415 l 1,14,-1
 301 415 l 1,15,-1
 261 226 l 1,16,-1
 256 194 l 1,17,-1
 227 194 l 1,18,-1
 234 227 l 1,19,20
 219 209 219 209 199 198 c 128,-1,21
 179 187 179 187 154 187 c 0,0,1
198 383 m 0,22,23
 181 383 181 383 167.5 375 c 128,-1,24
 154 367 154 367 143.5 355 c 128,-1,25
 133 343 133 343 126.5 328.5 c 128,-1,26
 120 314 120 314 117 301 c 0,27,28
 114 287 114 287 114.5 272.5 c 128,-1,29
 115 258 115 258 120.5 246 c 128,-1,30
 126 234 126 234 136 226.5 c 128,-1,31
 146 219 146 219 163 219 c 0,32,33
 194 219 194 219 215 243 c 128,-1,34
 236 267 236 267 245 305 c 0,35,36
 252 337 252 337 240.5 360 c 128,-1,37
 229 383 229 383 198 383 c 0,22,23
EndSplineSet
EndChar
StartChar: guillemotleft
Encoding: 171 171 110
Width: 300
Flags: W
Fore
184 309 m 1,0,-1
 224 309 l 1,1,-1
 104 169 l 1,2,-1
 165 29 l 1,3,-1
 125 29 l 1,4,-1
 71 160 l 2,5,6
 67 169 67 169 74 178 c 2,7,-1
 184 309 l 1,0,-1
291 309 m 1,8,-1
 331 309 l 1,9,-1
 211 169 l 1,10,-1
 272 29 l 1,11,-1
 232 29 l 1,12,-1
 178 160 l 2,13,14
 174 169 174 169 181 178 c 2,15,-1
 291 309 l 1,8,-1
EndSplineSet
EndChar
StartChar: logicalnot
Encoding: 172 172 111
Width: 409
Flags: W
Fore
358 93 m 1,0,-1
 391 246 l 1,1,-1
 80 246 l 1,2,-1
 87 282 l 1,3,-1
 437 282 l 1,4,-1
 397 93 l 1,5,-1
 358 93 l 1,0,-1
EndSplineSet
EndChar
StartChar: registered
Encoding: 174 174 112
Width: 538
Flags: W
Fore
371 487 m 0,0,1
 420 487 420 487 459.5 467 c 128,-1,2
 499 447 499 447 524.5 413 c 128,-1,3
 550 379 550 379 559.5 333.5 c 128,-1,4
 569 288 569 288 558 236 c 256,5,6
 547 184 547 184 518 138.5 c 128,-1,7
 489 93 489 93 449.5 59 c 128,-1,8
 410 25 410 25 362 5.5 c 128,-1,9
 314 -14 314 -14 265 -14 c 0,10,11
 215 -14 215 -14 175.5 5.5 c 128,-1,12
 136 25 136 25 110.5 59 c 128,-1,13
 85 93 85 93 76 138.5 c 128,-1,14
 67 184 67 184 78 236 c 256,15,16
 89 288 89 288 117.5 333.5 c 128,-1,17
 146 379 146 379 186 413 c 128,-1,18
 226 447 226 447 273.5 467 c 128,-1,19
 321 487 321 487 371 487 c 0,0,1
271 15 m 256,20,21
 315 15 315 15 357 32.5 c 128,-1,22
 399 50 399 50 434 80 c 128,-1,23
 469 110 469 110 494 150.5 c 128,-1,24
 519 191 519 191 529 236 c 0,25,26
 538 281 538 281 530 321.5 c 128,-1,27
 522 362 522 362 500 392.5 c 128,-1,28
 478 423 478 423 443.5 440.5 c 128,-1,29
 409 458 409 458 365 458 c 256,30,31
 321 458 321 458 279 440.5 c 128,-1,32
 237 423 237 423 201.5 392.5 c 128,-1,33
 166 362 166 362 141 321.5 c 128,-1,34
 116 281 116 281 107 236 c 0,35,36
 97 191 97 191 105 150.5 c 128,-1,37
 113 110 113 110 135.5 80 c 128,-1,38
 158 50 158 50 192.5 32.5 c 128,-1,39
 227 15 227 15 271 15 c 256,20,21
254 202 m 1,40,-1
 229 80 l 1,41,-1
 205 80 l 1,42,-1
 264 358 l 2,43,44
 265 364 265 364 260 369 c 128,-1,45
 255 374 255 374 258 380 c 1,46,47
 260 382 260 382 264.5 385 c 128,-1,48
 269 388 269 388 275 388 c 0,49,50
 280 388 280 388 285 384 c 1,51,-1
 337 384 l 2,52,53
 358 384 358 384 377.5 379.5 c 128,-1,54
 397 375 397 375 410.5 364.5 c 128,-1,55
 424 354 424 354 430 336.5 c 128,-1,56
 436 319 436 319 430 293 c 0,57,58
 422 254 422 254 396 233.5 c 128,-1,59
 370 213 370 213 341 205 c 1,60,-1
 395 81 l 1,61,-1
 365 75 l 1,62,-1
 309 202 l 1,63,-1
 254 202 l 1,40,-1
289 360 m 1,64,-1
 260 225 l 1,65,-1
 304 225 l 2,66,67
 348 225 348 225 373.5 245 c 128,-1,68
 399 265 399 265 405 294 c 0,69,70
 410 320 410 320 394.5 340 c 128,-1,71
 379 360 379 360 332 360 c 2,72,-1
 289 360 l 1,64,-1
EndSplineSet
EndChar
StartChar: macron
Encoding: 175 175 113
Width: 216
Flags: W
Fore
117 422 m 1,0,-1
 124 454 l 1,1,-1
 283 454 l 1,2,-1
 276 422 l 1,3,-1
 117 422 l 1,0,-1
EndSplineSet
EndChar
StartChar: degree
Encoding: 176 176 114
Width: 216
Flags: W
Fore
209 478 m 256,0,1
 244 478 244 478 263.5 453.5 c 128,-1,2
 283 429 283 429 275 394 c 256,3,4
 267 359 267 359 237.5 334.5 c 128,-1,5
 208 310 208 310 173 310 c 256,6,7
 138 310 138 310 119 334.5 c 128,-1,8
 100 359 100 359 107 394 c 0,9,10
 115 429 115 429 144.5 453.5 c 128,-1,11
 174 478 174 478 209 478 c 256,0,1
179 337 m 0,12,13
 202 337 202 337 222.5 353.5 c 128,-1,14
 243 370 243 370 248 394 c 0,15,16
 253 417 253 417 240 434.5 c 128,-1,17
 227 452 227 452 204 452 c 0,18,19
 180 452 180 452 159.5 434.5 c 128,-1,20
 139 417 139 417 134 394 c 0,21,22
 129 370 129 370 142 353.5 c 128,-1,23
 155 337 155 337 179 337 c 0,12,13
EndSplineSet
EndChar
StartChar: plusminus
Encoding: 177 177 115
Width: 405
Flags: W
Fore
410 225 m 1,0,-1
 270 225 l 1,1,-1
 240 83 l 1,2,-1
 201 83 l 1,3,-1
 231 225 l 1,4,-1
 90 225 l 1,5,-1
 98 263 l 1,6,-1
 239 263 l 1,7,-1
 269 404 l 1,8,-1
 308 404 l 1,9,-1
 278 263 l 1,10,-1
 418 263 l 1,11,-1
 410 225 l 1,0,-1
363 0 m 1,12,-1
 43 0 l 1,13,-1
 50 35 l 1,14,-1
 370 35 l 1,15,-1
 363 0 l 1,12,-1
EndSplineSet
EndChar
StartChar: twosuperior
Encoding: 178 178 116
Width: 259
Flags: W
Fore
160 442 m 0,0,1
 180 464 180 464 208.5 472 c 128,-1,2
 237 480 237 480 263 471 c 0,3,4
 286 463 286 463 297.5 440.5 c 128,-1,5
 309 418 309 418 303 386 c 0,6,7
 298 366 298 366 285.5 347.5 c 128,-1,8
 273 329 273 329 255.5 312.5 c 128,-1,9
 238 296 238 296 219 282 c 128,-1,10
 200 268 200 268 182 256 c 0,11,12
 166 245 166 245 156.5 239 c 128,-1,13
 147 233 147 233 139 225 c 1,14,-1
 244 225 l 1,15,16
 245 227 245 227 247.5 229.5 c 128,-1,17
 250 232 250 232 252 235 c 0,18,19
 255 239 255 239 257 243 c 1,20,21
 258 243 258 243 268.5 239 c 128,-1,22
 279 235 279 235 287 232 c 1,23,-1
 258 190 l 1,24,-1
 96 190 l 2,25,26
 76 189 76 189 83 208 c 0,27,28
 86 217 86 217 88.5 221 c 128,-1,29
 91 225 91 225 98 225 c 2,30,-1
 99 225 l 1,31,32
 106 233 106 233 115 241.5 c 128,-1,33
 124 250 124 250 134 258 c 128,-1,34
 144 266 144 266 153 272.5 c 128,-1,35
 162 279 162 279 168 283 c 0,36,37
 204 309 204 309 233 334 c 128,-1,38
 262 359 262 359 268 387 c 0,39,40
 272 406 272 406 266 420.5 c 128,-1,41
 260 435 260 435 244 440 c 0,42,43
 229 445 229 445 212.5 440.5 c 128,-1,44
 196 436 196 436 182 422 c 0,45,46
 172 409 172 409 168.5 398 c 128,-1,47
 165 387 165 387 165 373 c 1,48,-1
 131 364 l 1,49,50
 132 412 132 412 160 442 c 0,0,1
EndSplineSet
EndChar
StartChar: threesuperior
Encoding: 179 179 117
Width: 260
Flags: W
Fore
305 474 m 1,0,1
 310 475 310 475 313.5 471.5 c 128,-1,2
 317 468 317 468 316 463 c 0,3,4
 314 457 314 457 309 447 c 128,-1,5
 304 437 304 437 296 440 c 1,6,7
 294 439 294 439 285.5 431.5 c 128,-1,8
 277 424 277 424 266 414 c 128,-1,9
 255 404 255 404 244.5 395 c 128,-1,10
 234 386 234 386 230 382 c 1,11,12
 264 383 264 383 279 364.5 c 128,-1,13
 294 346 294 346 294.5 319.5 c 128,-1,14
 295 293 295 293 282 263.5 c 128,-1,15
 269 234 269 234 247 215 c 0,16,17
 222 192 222 192 193.5 186.5 c 128,-1,18
 165 181 165 181 141 189.5 c 128,-1,19
 117 198 117 198 101 220 c 128,-1,20
 85 242 85 242 85 274 c 1,21,-1
 119 284 l 1,22,23
 121 250 121 250 138 233.5 c 128,-1,24
 155 217 155 217 176.5 216.5 c 128,-1,25
 198 216 198 216 219.5 230 c 128,-1,26
 241 244 241 244 253 272 c 0,27,28
 262 293 262 293 259.5 312.5 c 128,-1,29
 257 332 257 332 246 343.5 c 128,-1,30
 235 355 235 355 217.5 354 c 128,-1,31
 200 353 200 353 180 334 c 0,32,33
 173 328 173 328 168 330.5 c 128,-1,34
 163 333 163 333 160 337 c 0,35,36
 158 340 158 340 155.5 345.5 c 128,-1,37
 153 351 153 351 161 357 c 0,38,39
 182 376 182 376 200 393 c 0,40,41
 216 407 216 407 230.5 421 c 128,-1,42
 245 435 245 435 251 440 c 1,43,-1
 172 440 l 1,44,45
 170 438 170 438 167 431.5 c 128,-1,46
 164 425 164 425 160 419 c 0,47,48
 156 411 156 411 151 403 c 1,49,50
 132 413 132 413 128.5 415 c 128,-1,51
 125 417 125 417 126 417 c 1,52,-1
 154 474 l 1,53,-1
 305 474 l 1,0,1
EndSplineSet
EndChar
StartChar: acute
Encoding: 180 180 118
Width: 216
Flags: W
Fore
194 386 m 1,0,-1
 163 386 l 1,1,-1
 252 490 l 1,2,-1
 311 490 l 1,3,-1
 194 386 l 1,0,-1
EndSplineSet
EndChar
StartChar: mu
Encoding: 181 181 119
Width: 385
Flags: W
Fore
335 75 m 2,0,1
 328 42 328 42 328.5 27 c 128,-1,2
 329 12 329 12 331 1 c 1,3,-1
 295 -12 l 1,4,5
 293 -6 293 -6 290.5 7.5 c 128,-1,6
 288 21 288 21 294 50 c 1,7,8
 272 19 272 19 239.5 5 c 128,-1,9
 207 -9 207 -9 177 -9 c 0,10,11
 148 -9 148 -9 129.5 0.5 c 128,-1,12
 111 10 111 10 100 24 c 1,13,-1
 58 -165 l 1,14,-1
 22 -165 l 1,15,-1
 132 350 l 1,16,-1
 169 350 l 1,17,-1
 120 118 l 2,18,19
 110 74 110 74 131.5 49 c 128,-1,20
 153 24 153 24 191 24 c 0,21,22
 213 24 213 24 233 34 c 128,-1,23
 253 44 253 44 269 60.5 c 128,-1,24
 285 77 285 77 296 98 c 128,-1,25
 307 119 307 119 312 141 c 2,26,-1
 357 350 l 1,27,-1
 394 350 l 1,28,-1
 335 75 l 2,0,1
EndSplineSet
EndChar
StartChar: paragraph
Encoding: 182 182 120
Width: 382
Flags: W
Fore
212 226 m 2,0,1
 190 226 190 226 166.5 231.5 c 128,-1,2
 143 237 143 237 125 251 c 128,-1,3
 107 265 107 265 97.5 288.5 c 128,-1,4
 88 312 88 312 96 348 c 256,5,6
 104 384 104 384 121 408 c 128,-1,7
 138 432 138 432 160.5 447 c 128,-1,8
 183 462 183 462 210 468.5 c 128,-1,9
 237 475 237 475 264 475 c 2,10,-1
 433 475 l 1,11,-1
 428 450 l 1,12,-1
 392 450 l 1,13,-1
 271 -122 l 1,14,-1
 240 -123 l 1,15,-1
 362 450 l 1,16,-1
 310 450 l 1,17,-1
 189 -122 l 1,18,-1
 160 -122 l 1,19,-1
 234 226 l 1,20,-1
 212 226 l 2,0,1
EndSplineSet
EndChar
StartChar: periodcentered
Encoding: 183 183 121
Width: 230
Flags: W
Fore
101 233 m 256,0,1
 107 261 107 261 130.5 280.5 c 128,-1,2
 154 300 154 300 182 300 c 256,3,4
 210 300 210 300 225.5 280.5 c 128,-1,5
 241 261 241 261 235 233 c 256,6,7
 229 205 229 205 205.5 185.5 c 128,-1,8
 182 166 182 166 154 166 c 256,9,10
 126 166 126 166 110.5 185.5 c 128,-1,11
 95 205 95 205 101 233 c 256,0,1
EndSplineSet
EndChar
StartChar: cedilla
Encoding: 184 184 122
Width: 216
Flags: W
Fore
142 -83 m 0,0,1
 135 -115 135 -115 108 -128.5 c 128,-1,2
 81 -142 81 -142 50 -142 c 0,3,4
 40 -142 40 -142 26 -139 c 128,-1,5
 12 -136 12 -136 4 -130 c 1,6,-1
 23 -101 l 1,7,8
 32 -107 32 -107 42.5 -109 c 128,-1,9
 53 -111 53 -111 62 -111 c 0,10,11
 76 -111 76 -111 89 -106.5 c 128,-1,12
 102 -102 102 -102 105 -89 c 0,13,14
 108 -72 108 -72 90.5 -66 c 128,-1,15
 73 -60 73 -60 47 -58 c 1,16,-1
 97 4 l 1,17,-1
 135 4 l 1,18,-1
 99 -35 l 1,19,20
 119 -39 119 -39 133 -51 c 128,-1,21
 147 -63 147 -63 142 -83 c 0,0,1
EndSplineSet
EndChar
StartChar: onesuperior
Encoding: 185 185 123
Width: 216
Flags: W
Fore
222 473 m 1,0,1
 228 478 228 478 233 476 c 128,-1,2
 243 472 l 1,3,4
 245 470 245 470 248 467 c 128,-1,5
 251 464 251 464 250 460 c 1,6,-1
 250 459 l 1,7,8
 248 453 248 453 234 444 c 1,9,10
 233 441 233 441 227 413 c 0,11,12
 222 389 222 389 211 337 c 128,-1,13
 200 285 200 285 180 190 c 1,14,-1
 147 190 l 1,15,16
 159 249 159 249 170 297 c 0,17,18
 179 339 179 339 186.5 375 c 128,-1,19
 194 411 194 411 196 419 c 1,20,21
 191 416 191 416 183.5 411 c 128,-1,22
 176 406 176 406 168 401 c 0,23,24
 159 395 159 395 149 389 c 1,25,-1
 132 412 l 1,26,-1
 221 473 l 1,27,-1
 222 473 l 1,0,1
EndSplineSet
EndChar
StartChar: ordmasculine
Encoding: 186 186 124
Width: 252
Flags: W
Fore
312 308 m 0,0,1
 305 276 305 276 288.5 253 c 128,-1,2
 272 230 272 230 251 215.5 c 128,-1,3
 230 201 230 201 207 194 c 128,-1,4
 184 187 184 187 164 187 c 0,5,6
 112 187 112 187 85 220 c 128,-1,7
 58 253 58 253 69 304 c 0,8,9
 75 332 75 332 90 355 c 128,-1,10
 105 378 105 378 125.5 393.5 c 128,-1,11
 146 409 146 409 169 417.5 c 128,-1,12
 192 426 192 426 215 426 c 0,13,14
 243 426 243 426 264 416.5 c 128,-1,15
 285 407 285 407 297.5 391 c 128,-1,16
 310 375 310 375 313.5 353.5 c 128,-1,17
 317 332 317 332 312 308 c 0,0,1
279 306 m 0,18,19
 282 321 282 321 280 337 c 128,-1,20
 278 353 278 353 270 366 c 128,-1,21
 262 379 262 379 247.5 387.5 c 128,-1,22
 233 396 233 396 210 396 c 0,23,24
 188 396 188 396 170 388 c 128,-1,25
 152 380 152 380 138.5 367.5 c 128,-1,26
 125 355 125 355 116 338.5 c 128,-1,27
 107 322 107 322 103 305 c 0,28,29
 98 283 98 283 102.5 266.5 c 128,-1,30
 107 250 107 250 117.5 239 c 128,-1,31
 128 228 128 228 142.5 222.5 c 128,-1,32
 157 217 157 217 172 217 c 0,33,34
 205 217 205 217 237 239 c 128,-1,35
 269 261 269 261 279 306 c 0,18,19
EndSplineSet
EndChar
StartChar: guillemotright
Encoding: 187 187 125
Width: 302
Flags: W
Fore
300 178 m 2,0,1
 304 168 304 168 297 160 c 2,2,-1
 187 29 l 1,3,-1
 147 29 l 1,4,-1
 266 169 l 1,5,-1
 206 309 l 1,6,-1
 246 309 l 1,7,-1
 300 178 l 2,0,1
193 178 m 2,8,9
 197 168 197 168 190 160 c 2,10,-1
 80 29 l 1,11,-1
 40 29 l 1,12,-1
 159 169 l 1,13,-1
 99 309 l 1,14,-1
 139 309 l 1,15,-1
 193 178 l 2,8,9
EndSplineSet
EndChar
StartChar: onequarter
Encoding: 188 188 126
Width: 554
Flags: W
Fore
138 -9 m 1,0,-1
 105 -9 l 1,1,-1
 498 476 l 1,2,-1
 532 476 l 1,3,-1
 138 -9 l 1,0,-1
514 282 m 2,4,5
 519 288 519 288 524 287.5 c 128,-1,6
 529 287 529 287 532.5 283 c 128,-1,7
 536 279 536 279 537.5 273 c 128,-1,8
 539 267 539 267 536 263 c 1,9,-1
 534 261 l 2,10,11
 532 259 532 259 532 257 c 0,12,13
 532 256 532 256 529.5 245 c 128,-1,14
 527 234 527 234 523.5 216.5 c 128,-1,15
 520 199 520 199 515.5 179 c 128,-1,16
 511 159 511 159 507.5 141.5 c 128,-1,17
 504 124 504 124 501 111 c 128,-1,18
 498 98 498 98 498 96 c 1,19,-1
 535 96 l 1,20,-1
 527 61 l 1,21,-1
 490 61 l 1,22,23
 489 58 489 58 487.5 48 c 128,-1,24
 486 38 486 38 484 27 c 0,25,26
 481 15 481 15 478 0 c 1,27,-1
 444 0 l 1,28,29
 447 15 447 15 450 27 c 0,30,31
 452 38 452 38 453.5 48 c 128,-1,32
 455 58 455 58 456 61 c 1,33,-1
 323 61 l 1,34,35
 315 63 315 63 313 71.5 c 128,-1,36
 311 80 311 80 316 89 c 1,37,-1
 514 282 l 2,4,5
489 214 m 1,38,39
 482 207 482 207 464 189.5 c 128,-1,40
 446 172 446 172 425.5 153 c 128,-1,41
 405 134 405 134 388 117.5 c 128,-1,42
 371 101 371 101 366 96 c 1,43,-1
 464 96 l 1,44,45
 465 99 465 99 468 114.5 c 128,-1,46
 471 130 471 130 475 149.5 c 128,-1,47
 479 169 479 169 483 187.5 c 128,-1,48
 487 206 487 206 489 214 c 1,38,39
215 473 m 2,49,50
 222 478 222 478 227 476 c 128,-1,51
 237 472 l 1,52,53
 239 470 239 470 242 467 c 128,-1,54
 245 464 245 464 244 460 c 1,55,-1
 244 459 l 1,56,57
 243 454 243 454 228 446 c 1,58,-1
 228 445 l 2,59,60
 228 444 228 444 225.5 432.5 c 128,-1,61
 223 421 223 421 219 403 c 128,-1,62
 215 385 215 385 210.5 362.5 c 128,-1,63
 206 340 206 340 201 316 c 0,64,65
 190 261 190 261 174 190 c 1,66,-1
 141 190 l 1,67,68
 153 249 153 249 164 297 c 0,69,70
 173 339 173 339 180.5 375 c 128,-1,71
 188 411 188 411 190 419 c 1,72,73
 185 416 185 416 177.5 411 c 128,-1,74
 170 406 170 406 162 401 c 0,75,76
 153 395 153 395 143 389 c 1,77,-1
 126 412 l 1,78,-1
 215 473 l 2,49,50
EndSplineSet
Ligature: 0 0 'frac' one fraction four
Ligature: 0 0 'frac' one slash four
EndChar
StartChar: onehalf
Encoding: 189 189 127
Width: 566
Flags: W
Fore
126 -9 m 1,0,-1
 92 -9 l 1,1,-1
 485 476 l 1,2,-1
 519 476 l 1,3,-1
 126 -9 l 1,0,-1
412 252 m 0,4,5
 432 274 432 274 460 282 c 128,-1,6
 488 290 488 290 514 281 c 0,7,8
 538 273 538 273 549.5 250.5 c 128,-1,9
 561 228 561 228 554 196 c 0,10,11
 550 176 550 176 537 157.5 c 128,-1,12
 524 139 524 139 507 122.5 c 128,-1,13
 490 106 490 106 470.5 92 c 128,-1,14
 451 78 451 78 434 66 c 1,15,16
 418 58 418 58 408.5 50.5 c 128,-1,17
 399 43 399 43 391 35 c 1,18,-1
 496 35 l 1,19,20
 497 37 497 37 499.5 39.5 c 128,-1,21
 502 42 502 42 504 45 c 0,22,23
 507 49 507 49 509 53 c 1,24,25
 510 53 510 53 520 49 c 128,-1,26
 530 45 530 45 538 42 c 1,27,-1
 510 0 l 1,28,-1
 348 0 l 2,29,30
 328 -1 328 -1 334 18 c 0,31,32
 338 27 338 27 340.5 31 c 128,-1,33
 343 35 343 35 350 35 c 2,34,-1
 351 35 l 1,35,36
 357 43 357 43 366.5 51.5 c 128,-1,37
 376 60 376 60 385.5 68 c 128,-1,38
 395 76 395 76 404 82.5 c 128,-1,39
 413 89 413 89 419 93 c 0,40,41
 455 119 455 119 484.5 144 c 128,-1,42
 514 169 514 169 519 197 c 0,43,44
 524 216 524 216 517.5 230.5 c 128,-1,45
 511 245 511 245 496 250 c 256,46,47
 481 255 481 255 464.5 250.5 c 128,-1,48
 448 246 448 246 434 232 c 0,49,50
 423 219 423 219 419.5 208 c 128,-1,51
 416 197 416 197 416 183 c 1,52,-1
 382 174 l 1,53,54
 383 220 383 220 412 252 c 0,4,5
216 473 m 1,55,56
 222 478 222 478 227 476 c 128,-1,57
 237 472 l 1,58,59
 239 470 239 470 242 467 c 128,-1,60
 245 464 245 464 244 460 c 1,61,-1
 244 459 l 1,62,63
 243 454 243 454 228 446 c 1,64,-1
 228 445 l 2,65,66
 228 444 228 444 225.5 432.5 c 128,-1,67
 223 421 223 421 219 403 c 128,-1,68
 215 385 215 385 210.5 362.5 c 128,-1,69
 206 340 206 340 201 316 c 0,70,71
 190 261 190 261 174 190 c 1,72,-1
 141 190 l 1,73,74
 153 249 153 249 164 297 c 0,75,76
 173 339 173 339 180.5 375 c 128,-1,77
 188 411 188 411 190 419 c 1,78,79
 185 416 185 416 177.5 411 c 128,-1,80
 170 406 170 406 162 401 c 0,81,82
 153 395 153 395 143 389 c 1,83,-1
 126 412 l 1,84,-1
 215 473 l 1,85,-1
 216 473 l 1,55,56
EndSplineSet
Ligature: 0 0 'frac' one fraction two
Ligature: 0 0 'frac' one slash two
EndChar
StartChar: threequarters
Encoding: 190 190 128
Width: 585
Flags: W
Fore
187 -9 m 1,0,-1
 152 -9 l 1,1,-1
 546 476 l 1,2,-1
 580 476 l 1,3,-1
 187 -9 l 1,0,-1
163 474 m 1,4,-1
 136 420 l 2,5,6
 135 417 135 417 138 415 c 128,-1,7
 141 413 141 413 160 403 c 1,8,9
 165 411 165 411 169 419 c 0,10,11
 173 425 173 425 176 431.5 c 128,-1,12
 179 438 179 438 181 440 c 1,13,-1
 260 440 l 1,14,15
 254 435 254 435 239.5 421 c 128,-1,16
 225 407 225 407 209 393 c 0,17,18
 191 376 191 376 170 357 c 0,19,20
 162 351 162 351 164.5 345.5 c 128,-1,21
 167 340 167 340 169 337 c 0,22,23
 172 333 172 333 177 330.5 c 128,-1,24
 182 328 182 328 189 334 c 0,25,26
 209 353 209 353 226.5 354 c 128,-1,27
 244 355 244 355 255 343.5 c 128,-1,28
 266 332 266 332 268.5 312.5 c 128,-1,29
 271 293 271 293 262 272 c 0,30,31
 250 244 250 244 228.5 230 c 128,-1,32
 207 216 207 216 185.5 216.5 c 128,-1,33
 164 217 164 217 147 233.5 c 128,-1,34
 130 250 130 250 128 284 c 1,35,-1
 94 274 l 1,36,37
 94 242 94 242 110 220 c 128,-1,38
 126 198 126 198 150 189.5 c 128,-1,39
 174 181 174 181 202.5 186.5 c 128,-1,40
 231 192 231 192 256 215 c 0,41,42
 278 234 278 234 291 263.5 c 128,-1,43
 304 293 304 293 303.5 319.5 c 128,-1,44
 303 346 303 346 288 364.5 c 128,-1,45
 273 383 273 383 239 382 c 1,46,47
 243 386 243 386 253.5 395 c 128,-1,48
 264 404 264 404 275 414 c 128,-1,49
 286 424 286 424 294.5 431.5 c 128,-1,50
 303 439 303 439 305 440 c 1,51,52
 313 437 313 437 318 447 c 128,-1,53
 323 457 323 457 325 463 c 0,54,55
 326 468 326 468 322.5 471.5 c 128,-1,56
 319 475 319 475 314 474 c 1,57,-1
 163 474 l 1,4,-1
349 89 m 1,58,59
 344 80 344 80 346 71.5 c 128,-1,60
 348 63 348 63 356 61 c 1,61,-1
 489 61 l 1,62,63
 488 58 488 58 486.5 48 c 128,-1,64
 485 38 485 38 483 27 c 0,65,66
 480 15 480 15 477 0 c 1,67,-1
 511 0 l 1,68,69
 514 15 514 15 517 27 c 0,70,71
 519 38 519 38 520.5 48 c 128,-1,72
 522 58 522 58 523 61 c 1,73,-1
 560 61 l 1,74,-1
 568 96 l 1,75,-1
 531 96 l 1,76,77
 531 98 531 98 534 111 c 128,-1,78
 537 124 537 124 540.5 141.5 c 128,-1,79
 544 159 544 159 548.5 179 c 128,-1,80
 553 199 553 199 556.5 216.5 c 128,-1,81
 560 234 560 234 562.5 245 c 128,-1,82
 565 256 565 256 565 257 c 0,83,84
 565 259 565 259 567 261 c 2,85,-1
 569 263 l 1,86,87
 572 267 572 267 570.5 273 c 128,-1,88
 569 279 569 279 565.5 283 c 128,-1,89
 562 287 562 287 557 287.5 c 128,-1,90
 552 288 552 288 547 282 c 2,91,-1
 349 89 l 1,58,59
522 214 m 1,92,93
 520 206 520 206 516 187.5 c 128,-1,94
 512 169 512 169 508 149.5 c 128,-1,95
 504 130 504 130 501 114.5 c 128,-1,96
 498 99 498 99 497 96 c 1,97,-1
 399 96 l 1,98,99
 404 101 404 101 421 117.5 c 128,-1,100
 438 134 438 134 458.5 153 c 128,-1,101
 479 172 479 172 497 189.5 c 128,-1,102
 515 207 515 207 522 214 c 1,92,93
EndSplineSet
Ligature: 0 0 'frac' three fraction four
Ligature: 0 0 'frac' three slash four
EndChar
StartChar: questiondown
Encoding: 191 191 129
Width: 345
Flags: W
Fore
284 311 m 0,0,1
 280 294 280 294 267 283.5 c 128,-1,2
 254 273 254 273 240 273 c 0,3,4
 223 273 223 273 214 283.5 c 128,-1,5
 205 294 205 294 209 311 c 0,6,7
 212 326 212 326 225 336.5 c 128,-1,8
 238 347 238 347 255 347 c 0,9,10
 269 347 269 347 278 336.5 c 128,-1,11
 287 326 287 326 284 311 c 0,0,1
120 79 m 0,12,13
 148 105 148 105 170 129.5 c 128,-1,14
 192 154 192 154 199 186 c 2,15,-1
 211 243 l 1,16,-1
 251 243 l 1,17,-1
 239 186 l 2,18,19
 230 143 230 143 201.5 111.5 c 128,-1,20
 173 80 173 80 144 53 c 0,21,22
 69 -15 69 -15 92 -77 c 0,23,24
 98 -94 98 -94 119.5 -103 c 128,-1,25
 141 -112 141 -112 170 -109 c 0,26,27
 203 -105 203 -105 227 -84.5 c 128,-1,28
 251 -64 251 -64 264 -41 c 1,29,-1
 296 -61 l 1,30,31
 276 -95 276 -95 244.5 -117.5 c 128,-1,32
 213 -140 213 -140 173 -145 c 0,33,34
 132 -151 132 -151 99 -140.5 c 128,-1,35
 66 -130 66 -130 54 -102 c 0,36,37
 42 -75 42 -75 44 -50 c 128,-1,38
 46 -25 46 -25 56.5 -2 c 128,-1,39
 67 21 67 21 84 41.5 c 128,-1,40
 101 62 101 62 120 79 c 0,12,13
EndSplineSet
EndChar
StartChar: Aring
Encoding: 197 197 134
Width: 413
Flags: W
Fore
259 577 m 256,0,1
 265 605 265 605 288 624.5 c 128,-1,2
 311 644 311 644 339 644 c 256,3,4
 367 644 367 644 382.5 624.5 c 128,-1,5
 398 605 398 605 392 577 c 256,6,7
 386 549 386 549 362.5 530 c 128,-1,8
 339 511 339 511 311 511 c 256,9,10
 283 511 283 511 268 530 c 128,-1,11
 253 549 253 549 259 577 c 256,0,1
288 577 m 0,12,13
 285 561 285 561 293.5 550 c 128,-1,14
 302 539 302 539 318 539 c 256,15,16
 334 539 334 539 347.5 550 c 128,-1,17
 361 561 361 561 364 577 c 0,18,19
 368 593 368 593 359 604 c 128,-1,20
 350 615 350 615 334 615 c 256,21,22
 318 615 318 615 305 604 c 128,-1,23
 292 593 292 593 288 577 c 0,12,13
403 0 m 1,24,-1
 362 -8 l 1,25,-1
 341 131 l 1,26,-1
 123 131 l 1,27,-1
 42 -8 l 1,28,-1
 6 0 l 1,29,30
 82 129 82 129 143 231 c 0,31,32
 169 275 169 275 193 316 c 128,-1,33
 217 357 217 357 237 390 c 0,34,35
 260 428 260 428 280 463 c 0,36,37
 289 477 289 477 298.5 482.5 c 128,-1,38
 308 488 308 488 311 489 c 0,39,40
 320 491 320 491 327 483 c 128,-1,41
 334 475 334 475 335 471 c 0,42,43
 336 468 336 468 332.5 464 c 128,-1,44
 329 460 329 460 327 458 c 1,45,-1
 403 0 l 1,24,-1
335 164 m 1,46,-1
 292 416 l 1,47,-1
 143 164 l 1,48,-1
 335 164 l 1,46,-1
EndSplineSet
EndChar
StartChar: AE
Encoding: 198 198 135
Width: 563
Flags: W
Fore
436 437 m 1,0,-1
 400 266 l 1,1,-1
 574 266 l 1,2,-1
 567 227 l 1,3,-1
 392 227 l 1,4,-1
 352 40 l 1,5,-1
 548 40 l 1,6,-1
 540 1 l 1,7,-1
 340 1 l 2,8,9
 322 1 322 1 315 13 c 128,-1,10
 308 25 308 25 311 38 c 2,11,-1
 330 127 l 1,12,-1
 143 127 l 1,13,-1
 34 -7 l 1,14,-1
 4 11 l 1,15,-1
 346 444 l 2,16,17
 354 457 354 457 367 466.5 c 128,-1,18
 380 476 380 476 394 476 c 2,19,-1
 642 476 l 1,20,-1
 632 437 l 1,21,-1
 436 437 l 1,0,-1
338 163 m 1,22,-1
 396 434 l 1,23,-1
 396 436 l 1,24,-1
 378 435 l 1,25,-1
 170 163 l 1,26,-1
 338 163 l 1,22,-1
EndSplineSet
EndChar
StartChar: Eth
Encoding: 208 208 145
Width: 476
Flags: W
Fore
113 222 m 1,0,-1
 49 222 l 1,1,-1
 57 260 l 1,2,-1
 121 260 l 1,3,-1
 158 435 l 1,4,5
 158 439 158 439 156 442.5 c 128,-1,6
 154 446 154 446 152 450 c 128,-1,7
 150 454 150 454 149 457.5 c 128,-1,8
 148 461 148 461 150 466 c 256,9,10
 152 471 152 471 159.5 477 c 128,-1,11
 167 483 167 483 177 483 c 0,12,13
 183 483 183 483 190 474 c 1,14,-1
 282 474 l 2,15,16
 334 474 334 474 376 459 c 128,-1,17
 418 444 418 444 444.5 414.5 c 128,-1,18
 471 385 471 385 480 340.5 c 128,-1,19
 489 296 489 296 477 238 c 0,20,21
 465 179 465 179 437 134.5 c 128,-1,22
 409 90 409 90 370 60 c 128,-1,23
 331 30 331 30 282.5 15 c 128,-1,24
 234 0 234 0 182 0 c 2,25,-1
 66 0 l 1,26,-1
 113 222 l 1,0,-1
199 39 m 2,27,28
 244 39 244 39 283 53 c 128,-1,29
 322 67 322 67 352.5 93.5 c 128,-1,30
 383 120 383 120 404.5 156.5 c 128,-1,31
 426 193 426 193 435 238 c 0,32,33
 446 290 446 290 437 327.5 c 128,-1,34
 428 365 428 365 403 389 c 128,-1,35
 378 413 378 413 340.5 424 c 128,-1,36
 303 435 303 435 257 435 c 2,37,-1
 197 435 l 1,38,-1
 160 260 l 1,39,-1
 268 260 l 1,40,-1
 260 222 l 1,41,-1
 152 222 l 1,42,-1
 113 39 l 1,43,-1
 199 39 l 2,27,28
EndSplineSet
EndChar
StartChar: multiply
Encoding: 215 215 152
Width: 400
Flags: W
Fore
359 41 m 1,0,-1
 328 16 l 1,1,-1
 230 140 l 1,2,-1
 86 20 l 1,3,-1
 66 45 l 1,4,-1
 210 164 l 1,5,-1
 116 284 l 1,6,-1
 147 310 l 1,7,-1
 242 190 l 1,8,-1
 384 310 l 1,9,-1
 404 284 l 1,10,-1
 262 165 l 1,11,-1
 359 41 l 1,0,-1
EndSplineSet
EndChar
StartChar: Oslash
Encoding: 216 216 153
Width: 466
Flags: W
Fore
453 437 m 1,0,1
 476 405 476 405 482 356 c 128,-1,2
 488 307 488 307 474 244 c 0,3,4
 462 188 462 188 440 142.5 c 128,-1,5
 418 97 418 97 387 64.5 c 128,-1,6
 356 32 356 32 316.5 14 c 128,-1,7
 277 -4 277 -4 232 -4 c 0,8,9
 173 -4 173 -4 138 25 c 1,10,-1
 81 -48 l 2,11,12
 76 -54 76 -54 72.5 -52 c 128,-1,13
 69 -50 69 -50 63 -47 c 1,14,15
 58 -43 58 -43 53.5 -40 c 128,-1,16
 49 -37 49 -37 54 -31 c 2,17,-1
 115 48 l 1,18,19
 92 81 92 81 86.5 131 c 128,-1,20
 81 181 81 181 94 244 c 0,21,22
 106 299 106 299 128 344.5 c 128,-1,23
 150 390 150 390 181 422 c 128,-1,24
 212 454 212 454 251.5 472 c 128,-1,25
 291 490 291 490 337 490 c 0,26,27
 396 490 396 490 431 461 c 1,28,-1
 479 524 l 2,29,30
 484 530 484 530 488 527.5 c 128,-1,31
 492 525 492 525 497 522 c 0,32,33
 503 518 503 518 507 515.5 c 128,-1,34
 511 513 511 513 506 507 c 2,35,-1
 453 437 l 1,0,1
133 244 m 0,36,37
 124 199 124 199 125.5 157.5 c 128,-1,38
 127 116 127 116 144 86 c 1,39,-1
 404 426 l 1,40,41
 377 453 377 453 329 453 c 0,42,43
 288 453 288 453 255.5 435 c 128,-1,44
 223 417 223 417 198.5 387.5 c 128,-1,45
 174 358 174 358 157.5 320.5 c 128,-1,46
 141 283 141 283 133 244 c 0,36,37
240 33 m 0,47,48
 280 33 280 33 312.5 51 c 128,-1,49
 345 69 345 69 369 99 c 128,-1,50
 393 129 393 129 409.5 167 c 128,-1,51
 426 205 426 205 434 244 c 0,52,53
 443 287 443 287 442 328 c 128,-1,54
 441 369 441 369 425 400 c 1,55,-1
 164 60 l 1,56,57
 178 47 178 47 196.5 40 c 128,-1,58
 215 33 215 33 240 33 c 0,47,48
EndSplineSet
EndChar
StartChar: Thorn
Encoding: 222 222 159
Width: 394
Flags: W
Fore
402 262 m 0,0,1
 385 184 385 184 327.5 150 c 128,-1,2
 270 116 270 116 183 116 c 2,3,-1
 110 116 l 1,4,-1
 86 0 l 1,5,-1
 54 0 l 1,6,-1
 157 486 l 1,7,-1
 189 486 l 1,8,-1
 170 397 l 1,9,-1
 261 397 l 2,10,11
 297 397 297 397 326.5 389 c 128,-1,12
 356 381 356 381 375 364.5 c 128,-1,13
 394 348 394 348 401.5 322.5 c 128,-1,14
 409 297 409 297 402 262 c 0,0,1
367 257 m 0,15,16
 373 286 373 286 366.5 306.5 c 128,-1,17
 360 327 360 327 344 340.5 c 128,-1,18
 328 354 328 354 305 360 c 128,-1,19
 282 366 282 366 255 366 c 2,20,-1
 163 366 l 1,21,-1
 117 150 l 1,22,-1
 192 150 l 2,23,24
 266 150 266 150 310.5 175 c 128,-1,25
 355 200 355 200 367 257 c 0,15,16
EndSplineSet
EndChar
StartChar: uni00DF
Encoding: 223 223 160
Width: 414
Flags: W
Fore
398 266 m 0,0,1
 408 246 408 246 409 221.5 c 128,-1,2
 410 197 410 197 404 168 c 0,3,4
 396 133 396 133 378.5 101 c 128,-1,5
 361 69 361 69 335.5 45 c 128,-1,6
 310 21 310 21 277 6.5 c 128,-1,7
 244 -8 244 -8 207 -8 c 2,8,-1
 126 -9 l 1,9,-1
 133 24 l 1,10,-1
 205 24 l 2,11,12
 236 24 236 24 264 35.5 c 128,-1,13
 292 47 292 47 314.5 67 c 128,-1,14
 337 87 337 87 352.5 114 c 128,-1,15
 368 141 368 141 374 171 c 256,16,17
 380 201 380 201 373.5 227.5 c 128,-1,18
 367 254 367 254 351 273.5 c 128,-1,19
 335 293 335 293 310.5 304.5 c 128,-1,20
 286 316 286 316 256 316 c 2,21,-1
 187 316 l 1,22,-1
 194 349 l 1,23,-1
 265 349 l 1,24,-1
 266 349 l 1,25,-1
 267 349 l 2,26,27
 281 349 281 349 296.5 350.5 c 128,-1,28
 312 352 312 352 326 358 c 128,-1,29
 340 364 340 364 351.5 376.5 c 128,-1,30
 363 389 363 389 368 410 c 0,31,32
 375 439 375 439 369.5 456.5 c 128,-1,33
 364 474 364 474 350 483 c 0,34,35
 330 499 330 499 298 499.5 c 128,-1,36
 266 500 266 500 238 485 c 0,37,38
 232 482 232 482 223 475.5 c 128,-1,39
 214 469 214 469 205 457.5 c 128,-1,40
 196 446 196 446 188 428 c 128,-1,41
 180 410 180 410 174 383 c 2,42,-1
 59 -159 l 1,43,-1
 27 -159 l 1,44,-1
 143 389 l 2,45,46
 149 418 149 418 163 443 c 128,-1,47
 177 468 177 468 197 486.5 c 128,-1,48
 217 505 217 505 243 515 c 128,-1,49
 269 525 269 525 300 524 c 0,50,51
 323 524 323 524 343 519 c 128,-1,52
 363 514 363 514 379 499 c 0,53,54
 398 481 398 481 402.5 459.5 c 128,-1,55
 407 438 407 438 402 415 c 0,56,57
 399 399 399 399 390.5 384 c 128,-1,58
 382 369 382 369 372 357.5 c 128,-1,59
 362 346 362 346 351 338.5 c 128,-1,60
 340 331 340 331 332 330 c 1,61,62
 355 318 355 318 371.5 302.5 c 128,-1,63
 388 287 388 287 398 266 c 0,0,1
EndSplineSet
EndChar
StartChar: ae
Encoding: 230 230 167
Width: 630
Flags: W
Fore
525 362 m 0,0,1
 576 362 576 362 601 340 c 128,-1,2
 626 318 626 318 636 288.5 c 128,-1,3
 646 259 646 259 644 230 c 128,-1,4
 642 201 642 201 639 186 c 256,5,6
 636 171 636 171 628 165 c 0,7,8
 623 161 623 161 605 161 c 2,9,-1
 369 161 l 1,10,11
 359 114 359 114 372.5 84.5 c 128,-1,12
 386 55 386 55 416 41 c 0,13,14
 437 32 437 32 457.5 31.5 c 128,-1,15
 478 31 478 31 495.5 35.5 c 128,-1,16
 513 40 513 40 526 47 c 128,-1,17
 539 54 539 54 546 58 c 1,18,-1
 563 26 l 1,19,20
 549 18 549 18 527 10 c 128,-1,21
 505 2 505 2 480 -2.5 c 128,-1,22
 455 -7 455 -7 430 -5 c 128,-1,23
 405 -3 405 -3 385 8 c 0,24,25
 356 23 356 23 341 52 c 1,26,-1
 340 49 l 1,27,-1
 332 -2 l 1,28,-1
 291 -2 l 1,29,-1
 302 52 l 1,30,31
 278 23 278 23 245.5 5 c 128,-1,32
 213 -13 213 -13 172 -13 c 0,33,34
 135 -13 135 -13 111 3 c 128,-1,35
 87 19 87 19 74.5 45 c 128,-1,36
 62 71 62 71 60 104 c 128,-1,37
 58 137 58 137 65 171 c 256,38,39
 72 205 72 205 88 237.5 c 128,-1,40
 104 270 104 270 127.5 296 c 128,-1,41
 151 322 151 322 182 338 c 128,-1,42
 213 354 213 354 250 354 c 0,43,44
 291 354 291 354 315.5 337 c 128,-1,45
 340 320 340 320 352 291 c 1,46,-1
 366 355 l 1,47,-1
 405 355 l 1,48,-1
 394 303 l 1,49,50
 418 329 418 329 450.5 345.5 c 128,-1,51
 483 362 483 362 525 362 c 0,0,1
180 24 m 0,52,53
 208 24 208 24 231 35.5 c 128,-1,54
 254 47 254 47 272 65 c 128,-1,55
 290 83 290 83 303 105.5 c 128,-1,56
 316 128 316 128 323 151 c 2,57,-1
 331 191 l 2,58,59
 334 213 334 213 330.5 235.5 c 128,-1,60
 327 258 327 258 316.5 276 c 128,-1,61
 306 294 306 294 287.5 305.5 c 128,-1,62
 269 317 269 317 242 317 c 0,63,64
 213 317 213 317 188.5 303 c 128,-1,65
 164 289 164 289 146 268 c 128,-1,66
 128 247 128 247 116 221 c 128,-1,67
 104 195 104 195 99 171 c 0,68,69
 94 146 94 146 95 120 c 128,-1,70
 96 94 96 94 105 72.5 c 128,-1,71
 114 51 114 51 132.5 37.5 c 128,-1,72
 151 24 151 24 180 24 c 0,52,53
603 199 m 1,73,74
 608 218 608 218 606.5 241 c 128,-1,75
 605 264 605 264 595.5 283 c 128,-1,76
 586 302 586 302 566.5 315 c 128,-1,77
 547 328 547 328 516 328 c 0,78,79
 484 328 484 328 460 314.5 c 128,-1,80
 436 301 436 301 418.5 281 c 128,-1,81
 401 261 401 261 390 238.5 c 128,-1,82
 379 216 379 216 375 199 c 1,83,-1
 603 199 l 1,73,74
EndSplineSet
EndChar
StartChar: eth
Encoding: 240 240 177
Width: 416
Flags: W
Fore
420 182 m 0,0,1
 409 132 409 132 386 95.5 c 128,-1,2
 363 59 363 59 332.5 36 c 128,-1,3
 302 13 302 13 267.5 2 c 128,-1,4
 233 -9 233 -9 201 -9 c 0,5,6
 163 -9 163 -9 134 4.5 c 128,-1,7
 105 18 105 18 87.5 42 c 128,-1,8
 70 66 70 66 64 98 c 128,-1,9
 58 130 58 130 66 168 c 0,10,11
 75 211 75 211 97.5 245.5 c 128,-1,12
 120 280 120 280 150 304.5 c 128,-1,13
 180 329 180 329 214 342 c 128,-1,14
 248 355 248 355 281 355 c 0,15,16
 310 355 310 355 335.5 347 c 128,-1,17
 361 339 361 339 385 314 c 1,18,19
 372 346 372 346 352 374.5 c 128,-1,20
 332 403 332 403 303 430 c 1,21,22
 271 417 271 417 240 403.5 c 128,-1,23
 209 390 209 390 178 377 c 1,24,-1
 172 406 l 1,25,-1
 276 451 l 1,26,27
 261 462 261 462 241 472.5 c 128,-1,28
 221 483 221 483 200 491 c 1,29,-1
 223 524 l 1,30,31
 248 512 248 512 272 498.5 c 128,-1,32
 296 485 296 485 316 468 c 1,33,34
 341 479 341 479 368.5 491 c 128,-1,35
 396 503 396 503 421 514 c 1,36,-1
 428 483 l 1,37,-1
 341 447 l 1,38,39
 369 421 369 421 388 389.5 c 128,-1,40
 407 358 407 358 419 322 c 0,41,42
 427 290 427 290 427.5 256 c 128,-1,43
 428 222 428 222 420 182 c 0,0,1
379 177 m 256,44,45
 387 215 387 215 383.5 240 c 128,-1,46
 380 265 380 265 367 282 c 0,47,48
 353 296 353 296 331 309 c 128,-1,49
 309 322 309 322 274 322 c 0,50,51
 238 322 238 322 209.5 308 c 128,-1,52
 181 294 181 294 159 272 c 128,-1,53
 137 250 137 250 123 223 c 128,-1,54
 109 196 109 196 103 169 c 0,55,56
 96 134 96 134 102 107 c 128,-1,57
 108 80 108 80 123 61.5 c 128,-1,58
 138 43 138 43 160 33.5 c 128,-1,59
 182 24 182 24 207 24 c 0,60,61
 236 24 236 24 263.5 34 c 128,-1,62
 291 44 291 44 314 63 c 128,-1,63
 337 82 337 82 354 110.5 c 128,-1,64
 371 139 371 139 379 177 c 256,44,45
EndSplineSet
EndChar
StartChar: divide
Encoding: 247 247 184
Width: 462
Flags: W
Fore
422 144 m 1,0,-1
 94 144 l 1,1,-1
 102 183 l 1,2,-1
 430 183 l 1,3,-1
 422 144 l 1,0,-1
319 269 m 0,4,5
 316 256 316 256 305 246.5 c 128,-1,6
 294 237 294 237 281 237 c 256,7,8
 268 237 268 237 260.5 246.5 c 128,-1,9
 253 256 253 256 256 269 c 0,10,11
 258 282 258 282 269.5 291 c 128,-1,12
 281 300 281 300 294 300 c 256,13,14
 307 300 307 300 314 291 c 128,-1,15
 321 282 321 282 319 269 c 0,4,5
273 56 m 0,16,17
 271 43 271 43 260 34 c 128,-1,18
 249 25 249 25 236 25 c 256,19,20
 223 25 223 25 215.5 34 c 128,-1,21
 208 43 208 43 210 56 c 0,22,23
 213 69 213 69 224.5 78.5 c 128,-1,24
 236 88 236 88 249 88 c 256,25,26
 262 88 262 88 269 78.5 c 128,-1,27
 276 69 276 69 273 56 c 0,16,17
EndSplineSet
EndChar
StartChar: oslash
Encoding: 248 248 185
Width: 351
Flags: W
Fore
335 309 m 1,0,1
 353 284 353 284 356.5 248.5 c 128,-1,2
 360 213 360 213 352 176 c 0,3,4
 345 143 345 143 330 112 c 128,-1,5
 315 81 315 81 292.5 56 c 128,-1,6
 270 31 270 31 241 16 c 128,-1,7
 212 1 212 1 177 1 c 0,8,9
 157 1 157 1 141 6 c 128,-1,10
 125 11 125 11 114 19 c 1,11,-1
 73 -33 l 2,12,13
 70 -38 70 -38 66.5 -36.5 c 128,-1,14
 63 -35 63 -35 58 -32 c 256,15,16
 53 -29 53 -29 50.5 -26.5 c 128,-1,17
 48 -24 48 -24 52 -19 c 2,18,-1
 94 37 l 1,19,20
 75 63 75 63 71.5 99.5 c 128,-1,21
 68 136 68 136 76 176 c 0,22,23
 83 208 83 208 97.5 239.5 c 128,-1,24
 112 271 112 271 134.5 295.5 c 128,-1,25
 157 320 157 320 186 335 c 128,-1,26
 215 350 215 350 251 350 c 0,27,28
 291 350 291 350 317 329 c 1,29,-1
 356 378 l 2,30,31
 360 383 360 383 363 381 c 128,-1,32
 366 379 366 379 371 377 c 1,33,34
 376 374 376 374 378.5 371.5 c 128,-1,35
 381 369 381 369 378 364 c 2,36,-1
 335 309 l 1,0,1
114 176 m 0,37,38
 108 150 108 150 109.5 122 c 128,-1,39
 111 94 111 94 122 73 c 1,40,-1
 292 295 l 1,41,42
 275 314 275 314 243 314 c 0,43,44
 216 314 216 314 194.5 301 c 128,-1,45
 173 288 173 288 156.5 268 c 128,-1,46
 140 248 140 248 129.5 223.5 c 128,-1,47
 119 199 119 199 114 176 c 0,37,38
184 37 m 256,48,49
 211 37 211 37 232.5 50 c 128,-1,50
 254 63 254 63 270.5 83.5 c 128,-1,51
 287 104 287 104 298 128.5 c 128,-1,52
 309 153 309 153 314 176 c 0,53,54
 319 200 319 200 318.5 226 c 128,-1,55
 318 252 318 252 308 273 c 1,56,-1
 139 53 l 1,57,58
 157 37 157 37 184 37 c 256,48,49
EndSplineSet
EndChar
StartChar: thorn
Encoding: 254 254 191
Width: 453
Flags: W
Fore
157 481 m 1,0,-1
 191 481 l 1,1,-1
 147 277 l 1,2,3
 177 312 177 312 218.5 333.5 c 128,-1,4
 260 355 260 355 305 355 c 0,5,6
 341 355 341 355 370 341 c 128,-1,7
 399 327 399 327 417 302 c 128,-1,8
 435 277 435 277 441.5 244 c 128,-1,9
 448 211 448 211 440 173 c 256,10,11
 432 135 432 135 411.5 102 c 128,-1,12
 391 69 391 69 362.5 44 c 128,-1,13
 334 19 334 19 299 5 c 128,-1,14
 264 -9 264 -9 228 -9 c 0,15,16
 183 -9 183 -9 150.5 12 c 128,-1,17
 118 33 118 33 103 68 c 1,18,-1
 58 -142 l 1,19,-1
 24 -142 l 1,20,-1
 157 481 l 1,0,-1
126 173 m 0,21,22
 120 142 120 142 125 114.5 c 128,-1,23
 130 87 130 87 144.5 67 c 128,-1,24
 159 47 159 47 182 35 c 128,-1,25
 205 23 205 23 234 23 c 256,26,27
 263 23 263 23 291.5 35 c 128,-1,28
 320 47 320 47 343 67 c 128,-1,29
 366 87 366 87 383 114.5 c 128,-1,30
 400 142 400 142 406 173 c 0,31,32
 413 204 413 204 408 231.5 c 128,-1,33
 403 259 403 259 388 279 c 128,-1,34
 373 299 373 299 350 311 c 128,-1,35
 327 323 327 323 298 323 c 256,36,37
 269 323 269 323 241 311 c 128,-1,38
 213 299 213 299 189.5 279 c 128,-1,39
 166 259 166 259 149.5 231.5 c 128,-1,40
 133 204 133 204 126 173 c 0,21,22
EndSplineSet
EndChar
StartChar: Lslash
Encoding: 321 321 193
Width: 318
Flags: W
Fore
30 165 m 1,0,-1
 38 203 l 1,1,-1
 113 247 l 1,2,-1
 161 474 l 1,3,-1
 200 474 l 1,4,-1
 158 273 l 1,5,-1
 276 342 l 1,6,-1
 268 304 l 1,7,-1
 149 235 l 1,8,-1
 107 35 l 1,9,-1
 312 35 l 1,10,-1
 305 0 l 1,11,-1
 85 0 l 1,12,13
 80 -5 80 -5 74 -8.5 c 128,-1,14
 68 -12 68 -12 65 -12 c 0,15,16
 55 -12 55 -12 50.5 -4 c 128,-1,17
 46 4 46 4 45 9 c 0,18,19
 45 13 45 13 48 16.5 c 128,-1,20
 51 20 51 20 55.5 23.5 c 128,-1,21
 60 27 60 27 64 32.5 c 128,-1,22
 68 38 68 38 70 47 c 2,23,-1
 105 209 l 1,24,-1
 30 165 l 1,0,-1
EndSplineSet
EndChar
StartChar: lslash
Encoding: 322 322 194
Width: 162
Flags: W
Fore
152 261 m 1,0,-1
 97 0 l 1,1,-1
 61 0 l 1,2,-1
 110 234 l 1,3,4
 96 224 96 224 80 212.5 c 128,-1,5
 64 201 64 201 50 191 c 1,6,-1
 58 229 l 1,7,-1
 118 270 l 1,8,-1
 166 496 l 1,9,-1
 188 515 l 1,10,-1
 206 515 l 1,11,-1
 160 301 l 1,12,13
 174 311 174 311 190 321.5 c 128,-1,14
 206 332 206 332 220 342 c 1,15,-1
 212 304 l 1,16,-1
 152 261 l 1,0,-1
EndSplineSet
EndChar
StartChar: OE
Encoding: 338 338 195
Width: 641
Flags: W
Fore
225 24 m 0,0,1
 265 24 265 24 297.5 42 c 128,-1,2
 330 60 330 60 354 89.5 c 128,-1,3
 378 119 378 119 394.5 157 c 128,-1,4
 411 195 411 195 419 234 c 256,5,6
 427 273 427 273 427 310.5 c 128,-1,7
 427 348 427 348 415 378 c 128,-1,8
 403 408 403 408 378.5 426 c 128,-1,9
 354 444 354 444 314 444 c 0,10,11
 273 444 273 444 240.5 426 c 128,-1,12
 208 408 208 408 183.5 378 c 128,-1,13
 159 348 159 348 142.5 310.5 c 128,-1,14
 126 273 126 273 118 234 c 256,15,16
 110 195 110 195 110.5 157 c 128,-1,17
 111 119 111 119 123 89.5 c 128,-1,18
 135 60 135 60 159.5 42 c 128,-1,19
 184 24 184 24 225 24 c 0,0,1
322 481 m 0,20,21
 373 481 373 481 406.5 458.5 c 128,-1,22
 440 436 440 436 455 395 c 1,23,-1
 464 435 l 1,24,25
 464 439 464 439 462 442.5 c 128,-1,26
 460 446 460 446 458 450 c 128,-1,27
 456 454 456 454 455 457.5 c 128,-1,28
 454 461 454 461 456 466 c 256,29,30
 458 471 458 471 465.5 477 c 128,-1,31
 473 483 473 483 483 483 c 0,32,33
 489 483 489 483 496 474 c 1,34,-1
 719 474 l 1,35,-1
 711 435 l 1,36,-1
 504 435 l 1,37,-1
 468 265 l 1,38,-1
 653 265 l 1,39,-1
 645 226 l 1,40,-1
 460 226 l 1,41,-1
 420 39 l 1,42,-1
 626 39 l 1,43,-1
 618 0 l 1,44,-1
 372 0 l 1,45,-1
 387 72 l 1,46,47
 354 31 354 31 311 9 c 128,-1,48
 268 -13 268 -13 217 -13 c 0,49,50
 171 -13 171 -13 139 5 c 128,-1,51
 107 23 107 23 90 55 c 128,-1,52
 73 87 73 87 70 132.5 c 128,-1,53
 67 178 67 178 79 234 c 0,54,55
 91 289 91 289 113 335 c 128,-1,56
 135 381 135 381 166 413 c 128,-1,57
 197 445 197 445 236.5 463 c 128,-1,58
 276 481 276 481 322 481 c 0,20,21
EndSplineSet
EndChar
StartChar: oe
Encoding: 339 339 196
Width: 600
Flags: W
Fore
496 348 m 0,0,1
 544 348 544 348 568.5 327 c 128,-1,2
 593 306 593 306 602 278 c 128,-1,3
 611 250 611 250 609.5 222 c 128,-1,4
 608 194 608 194 605 180 c 0,5,6
 601 164 601 164 594.5 160.5 c 128,-1,7
 588 157 588 157 572 156 c 2,8,-1
 348 156 l 1,9,10
 338 111 338 111 351 83 c 128,-1,11
 364 55 364 55 393 42 c 0,12,13
 413 33 413 33 432.5 33 c 128,-1,14
 452 33 452 33 468.5 37.5 c 128,-1,15
 485 42 485 42 497.5 48 c 128,-1,16
 510 54 510 54 516 58 c 1,17,-1
 532 29 l 1,18,19
 519 21 519 21 498 13.5 c 128,-1,20
 477 6 477 6 453.5 2 c 128,-1,21
 430 -2 430 -2 406 -1 c 128,-1,22
 382 0 382 0 363 11 c 256,23,24
 344 22 344 22 330 39 c 128,-1,25
 316 56 316 56 308 81 c 1,26,27
 285 46 285 46 250.5 22.5 c 128,-1,28
 216 -1 216 -1 171 -1 c 0,29,30
 135 -1 135 -1 112.5 14 c 128,-1,31
 90 29 90 29 78 54 c 128,-1,32
 66 79 66 79 64 110 c 128,-1,33
 62 141 62 141 69 174 c 256,34,35
 76 207 76 207 91 238 c 128,-1,36
 106 269 106 269 128.5 294 c 128,-1,37
 151 319 151 319 180.5 334 c 128,-1,38
 210 349 210 349 246 349 c 0,39,40
 291 349 291 349 315.5 325 c 128,-1,41
 340 301 340 301 348 264 c 1,42,43
 373 299 373 299 409.5 323.5 c 128,-1,44
 446 348 446 348 496 348 c 0,0,1
179 36 m 0,45,46
 204 36 204 36 226 49 c 128,-1,47
 248 62 248 62 264.5 81.5 c 128,-1,48
 281 101 281 101 292 125 c 128,-1,49
 303 149 303 149 308 172 c 256,50,51
 313 195 313 195 312.5 220 c 128,-1,52
 312 245 312 245 304.5 265.5 c 128,-1,53
 297 286 297 286 281 299.5 c 128,-1,54
 265 313 265 313 238 313 c 256,55,56
 211 313 211 313 189.5 300 c 128,-1,57
 168 287 168 287 151.5 266.5 c 128,-1,58
 135 246 135 246 124 221.5 c 128,-1,59
 113 197 113 197 108 174 c 256,60,61
 103 151 103 151 103.5 127 c 128,-1,62
 104 103 104 103 112 82.5 c 128,-1,63
 120 62 120 62 136 49 c 128,-1,64
 152 36 152 36 179 36 c 0,45,46
570 193 m 1,65,66
 575 211 575 211 574 232.5 c 128,-1,67
 573 254 573 254 564 272.5 c 128,-1,68
 555 291 555 291 537 303.5 c 128,-1,69
 519 316 519 316 489 316 c 256,70,71
 459 316 459 316 435.5 303 c 128,-1,72
 412 290 412 290 395 271 c 128,-1,73
 378 252 378 252 367.5 230.5 c 128,-1,74
 357 209 357 209 353 193 c 1,75,-1
 570 193 l 1,65,66
EndSplineSet
EndChar
StartChar: florin
Encoding: 402 402 202
Width: 337
Flags: W
Fore
376 434 m 1,0,1
 345 457 345 457 316 440.5 c 128,-1,2
 287 424 287 424 269 382 c 2,3,-1
 235 283 l 1,4,-1
 307 283 l 1,5,-1
 296 259 l 1,6,-1
 227 259 l 1,7,8
 221 241 221 241 212 214.5 c 128,-1,9
 203 188 203 188 193 160 c 128,-1,10
 183 132 183 132 173.5 105.5 c 128,-1,11
 164 79 164 79 157 61 c 0,12,13
 142 19 142 19 123.5 -6 c 128,-1,14
 105 -31 105 -31 84 -44 c 128,-1,15
 63 -57 63 -57 40 -59 c 128,-1,16
 17 -61 17 -61 -6 -56 c 1,17,-1
 10 -28 l 1,18,19
 46 -34 46 -34 73 -17 c 128,-1,20
 100 0 100 0 116 44 c 2,21,-1
 192 259 l 1,22,-1
 118 259 l 1,23,-1
 129 283 l 1,24,-1
 201 283 l 1,25,26
 202 287 202 287 207 301.5 c 128,-1,27
 212 316 212 316 217.5 332.5 c 128,-1,28
 223 349 223 349 228 363.5 c 128,-1,29
 233 378 233 378 235 383 c 0,30,31
 274 476 274 476 354 476 c 0,32,33
 372 476 372 476 385 468 c 128,-1,34
 398 460 398 460 402 456 c 1,35,-1
 376 434 l 1,0,1
EndSplineSet
EndChar
StartChar: circumflex
Encoding: 710 710 203
Width: 292
Flags: W
Fore
302 474 m 1,0,-1
 257 527 l 1,1,-1
 192 474 l 1,2,-1
 148 474 l 1,3,-1
 251 561 l 1,4,-1
 278 561 l 1,5,-1
 344 474 l 1,6,-1
 302 474 l 1,0,-1
EndSplineSet
EndChar
StartChar: caron
Encoding: 711 711 204
Width: 339
Flags: W
Fore
381 561 m 1,0,-1
 277 474 l 1,1,-1
 251 474 l 1,2,-1
 189 561 l 1,3,-1
 229 561 l 1,4,-1
 270 504 l 1,5,-1
 339 561 l 1,6,-1
 381 561 l 1,0,-1
EndSplineSet
EndChar
StartChar: breve
Encoding: 728 728 205
Width: 300
Flags: W
Fore
362 494 m 1,0,1
 357 472 357 472 344.5 452.5 c 128,-1,2
 332 433 332 433 314.5 418 c 128,-1,3
 297 403 297 403 276 394.5 c 128,-1,4
 255 386 255 386 232 386 c 0,5,6
 210 386 210 386 191.5 394.5 c 128,-1,7
 173 403 173 403 162.5 418 c 128,-1,8
 152 433 152 433 147.5 452.5 c 128,-1,9
 143 472 143 472 148 494 c 1,10,-1
 184 494 l 1,11,12
 176 460 176 460 191 439.5 c 128,-1,13
 206 419 206 419 239 419 c 256,14,15
 272 419 272 419 295 439.5 c 128,-1,16
 318 460 318 460 326 494 c 1,17,-1
 362 494 l 1,0,1
EndSplineSet
EndChar
StartChar: dotaccent
Encoding: 729 729 206
Width: 158
Flags: W
Fore
141 462 m 0,0,1
 144 476 144 476 156 487 c 128,-1,2
 168 498 168 498 184 498 c 256,3,4
 200 498 200 498 208 487 c 128,-1,5
 216 476 216 476 213 462 c 0,6,7
 210 447 210 447 197.5 436.5 c 128,-1,8
 185 426 185 426 169 426 c 256,9,10
 153 426 153 426 145.5 436.5 c 128,-1,11
 138 447 138 447 141 462 c 0,0,1
EndSplineSet
EndChar
StartChar: ring
Encoding: 730 730 207
Width: 278
Flags: W
Fore
171 470 m 0,0,1
 177 498 177 498 200.5 517.5 c 128,-1,2
 224 537 224 537 252 537 c 256,3,4
 280 537 280 537 295 517.5 c 128,-1,5
 310 498 310 498 304 470 c 0,6,7
 299 442 299 442 275 423 c 128,-1,8
 251 404 251 404 223 404 c 256,9,10
 195 404 195 404 180.5 423 c 128,-1,11
 166 442 166 442 171 470 c 0,0,1
202 470 m 0,12,13
 199 454 199 454 207 444 c 128,-1,14
 215 434 215 434 231 434 c 256,15,16
 247 434 247 434 259 444 c 128,-1,17
 271 454 271 454 274 470 c 0,18,19
 278 486 278 486 270 496 c 128,-1,20
 262 506 262 506 246 506 c 256,21,22
 230 506 230 506 218 496 c 128,-1,23
 206 486 206 486 202 470 c 0,12,13
EndSplineSet
EndChar
StartChar: tilde
Encoding: 732 732 209
Width: 222
Flags: W
Fore
298 472 m 1,0,1
 292 445 292 445 275.5 427 c 128,-1,2
 259 409 259 409 235 409 c 0,3,4
 227 409 227 409 217.5 413.5 c 128,-1,5
 208 418 208 418 198 423.5 c 128,-1,6
 188 429 188 429 179 433.5 c 128,-1,7
 170 438 170 438 163 438 c 0,8,9
 154 438 154 438 148 428.5 c 128,-1,10
 142 419 142 419 138 405 c 1,11,-1
 109 405 l 1,12,13
 114 431 114 431 130 450.5 c 128,-1,14
 146 470 146 470 168 470 c 0,15,16
 179 470 179 470 189.5 466 c 128,-1,17
 200 462 200 462 210 457 c 128,-1,18
 220 452 220 452 229 447.5 c 128,-1,19
 238 443 238 443 246 442 c 0,20,21
 252 441 252 441 259 447.5 c 128,-1,22
 266 454 266 454 270 472 c 1,23,-1
 298 472 l 1,0,1
EndSplineSet
EndChar
StartChar: uni0E01
Encoding: 3585 3585 212
Width: 426
Flags: W
Fore
390 292 m 2,0,1
 391 304 391 304 399 313 c 1,2,3
 397 317 397 317 390.5 327.5 c 128,-1,4
 384 338 384 338 372 348 c 128,-1,5
 360 358 360 358 340 366 c 128,-1,6
 320 374 320 374 291 374 c 0,7,8
 257 374 257 374 231.5 365.5 c 128,-1,9
 206 357 206 357 187.5 345 c 128,-1,10
 169 333 169 333 157 320 c 128,-1,11
 145 307 145 307 139 298 c 1,12,-1
 173 273 l 1,13,14
 181 281 181 281 195.5 290.5 c 128,-1,15
 210 300 210 300 222 302 c 0,16,17
 223 302 223 302 228 292 c 128,-1,18
 233 282 233 282 236 275 c 1,19,20
 203 261 203 261 189 240.5 c 128,-1,21
 175 220 175 220 172 205 c 2,22,-1
 129 0 l 1,23,-1
 90 0 l 1,24,-1
 133 206 l 2,25,26
 136 218 136 218 141.5 228.5 c 128,-1,27
 147 239 147 239 150 243 c 1,28,-1
 90 284 l 1,29,30
 93 290 93 290 106 309.5 c 128,-1,31
 119 329 119 329 144.5 351 c 128,-1,32
 170 373 170 373 207.5 390 c 128,-1,33
 245 407 245 407 297 408 c 0,34,35
 326 408 326 408 347.5 402.5 c 128,-1,36
 369 397 369 397 384.5 387.5 c 128,-1,37
 400 378 400 378 410.5 366.5 c 128,-1,38
 421 355 421 355 427 343 c 1,39,40
 430 345 430 345 435.5 344 c 128,-1,41
 441 343 441 343 447 335 c 0,42,43
 454 324 454 324 450.5 319 c 128,-1,44
 447 314 447 314 439 307 c 0,45,46
 430 300 430 300 427 286 c 2,47,-1
 367 0 l 1,48,-1
 328 0 l 1,49,-1
 390 292 l 2,0,1
EndSplineSet
EndChar
StartChar: uni0E02
Encoding: 3586 3586 213
Width: 376
Flags: W
Fore
363 400 m 1,0,-1
 402 400 l 1,1,-1
 325 39 l 2,2,3
 322 25 322 25 308 14 c 0,4,5
 294 0 294 0 268 0 c 2,6,-1
 141 0 l 2,7,8
 136 0 136 0 134 -1.5 c 128,-1,9
 132 -3 132 -3 127 -5 c 0,10,11
 119 -7 119 -7 115 -6 c 128,-1,12
 111 -5 111 -5 105 9 c 0,13,14
 103 16 103 16 106 19.5 c 128,-1,15
 109 23 109 23 118 28 c 0,16,17
 130 35 130 35 135 43 c 128,-1,18
 140 51 140 51 141 56 c 2,19,-1
 168 180 l 2,20,21
 173 201 173 201 186.5 215 c 128,-1,22
 200 229 200 229 214 240 c 0,23,24
 231 254 231 254 245 270.5 c 128,-1,25
 259 287 259 287 265 317 c 0,26,27
 268 335 268 335 262.5 347 c 128,-1,28
 257 359 257 359 246 365.5 c 128,-1,29
 235 372 235 372 221 373 c 128,-1,30
 207 374 207 374 193 370 c 1,31,32
 209 362 209 362 216.5 345.5 c 128,-1,33
 224 329 224 329 219 309 c 0,34,35
 213 280 213 280 189.5 260.5 c 128,-1,36
 166 241 166 241 137 241 c 0,37,38
 109 241 109 241 93.5 260.5 c 128,-1,39
 78 280 78 280 84 309 c 0,40,41
 91 346 91 346 129 377 c 0,42,43
 144 390 144 390 164.5 397.5 c 128,-1,44
 185 405 185 405 205.5 407 c 128,-1,45
 226 409 226 409 245 404.5 c 128,-1,46
 264 400 264 400 277 389 c 0,47,48
 292 377 292 377 298.5 358 c 128,-1,49
 305 339 305 339 301 319 c 0,50,51
 298 298 298 298 290 281.5 c 128,-1,52
 282 265 282 265 272 253 c 128,-1,53
 262 241 262 241 251 231.5 c 128,-1,54
 240 222 240 222 231 214 c 0,55,56
 218 203 218 203 213.5 196 c 128,-1,57
 209 189 209 189 207 180 c 2,58,-1
 181 61 l 2,59,60
 178 44 178 44 168 38 c 1,61,-1
 286 38 l 1,62,-1
 363 400 l 1,0,-1
144 276 m 256,63,64
 158 276 158 276 170 285.5 c 128,-1,65
 182 295 182 295 185 309 c 256,66,67
 188 323 188 323 180 332.5 c 128,-1,68
 172 342 172 342 158 342 c 256,69,70
 144 342 144 342 132.5 332.5 c 128,-1,71
 121 323 121 323 118 309 c 256,72,73
 115 295 115 295 122.5 285.5 c 128,-1,74
 130 276 130 276 144 276 c 256,63,64
EndSplineSet
EndChar
StartChar: uni0E03
Encoding: 3587 3587 214
Width: 412
Flags: W
Fore
363 39 m 2,0,1
 360 25 360 25 346 14 c 0,2,3
 332 0 332 0 306 0 c 2,4,-1
 182 0 l 2,5,6
 177 0 177 0 175 -1.5 c 128,-1,7
 173 -3 173 -3 168 -5 c 0,8,9
 160 -7 160 -7 156 -6 c 128,-1,10
 152 -5 152 -5 146 9 c 0,11,12
 144 16 144 16 147 19.5 c 128,-1,13
 150 23 150 23 159 28 c 0,14,15
 171 35 171 35 176 43.5 c 128,-1,16
 181 52 181 52 183 57 c 1,17,-1
 211 192 l 2,18,19
 215 210 215 210 224 224 c 128,-1,20
 233 238 233 238 244.5 248.5 c 128,-1,21
 256 259 256 259 268 267.5 c 128,-1,22
 280 276 280 276 290 283 c 0,23,24
 310 297 310 297 316.5 306 c 128,-1,25
 323 315 323 315 322 326 c 0,26,27
 321 339 321 339 317 353.5 c 128,-1,28
 313 368 313 368 307 373 c 1,29,30
 301 369 301 369 292.5 363 c 128,-1,31
 284 357 284 357 273 349 c 1,32,33
 277 338 277 338 274.5 332.5 c 128,-1,34
 272 327 272 327 264 324 c 0,35,36
 247 316 247 316 242 330 c 0,37,38
 234 359 234 359 212.5 369.5 c 128,-1,39
 191 380 191 380 169 372 c 0,40,41
 158 368 158 368 145 356 c 128,-1,42
 132 344 132 344 128 330 c 1,43,44
 137 336 137 336 148.5 340.5 c 128,-1,45
 160 345 160 345 171 345 c 0,46,47
 198 345 198 345 213 326 c 128,-1,48
 228 307 228 307 222 280 c 256,49,50
 216 253 216 253 193 234.5 c 128,-1,51
 170 216 170 216 143 216 c 0,52,53
 120 216 120 216 106 227 c 128,-1,54
 92 238 92 238 86.5 255.5 c 128,-1,55
 81 273 81 273 83.5 293.5 c 128,-1,56
 86 314 86 314 95 334 c 0,57,58
 118 381 118 381 163 400 c 0,59,60
 190 412 190 412 218.5 407.5 c 128,-1,61
 247 403 247 403 264 374 c 1,62,63
 283 389 283 389 295 396 c 128,-1,64
 307 403 307 403 314 406 c 128,-1,65
 321 409 321 409 324.5 408 c 128,-1,66
 328 407 328 407 331 406 c 1,67,68
 339 400 339 400 344.5 389.5 c 128,-1,69
 350 379 350 379 353.5 367.5 c 128,-1,70
 357 356 357 356 359 345.5 c 128,-1,71
 361 335 361 335 361 330 c 0,72,73
 361 315 361 315 356 304.5 c 128,-1,74
 351 294 351 294 343 286 c 128,-1,75
 335 278 335 278 325.5 271.5 c 128,-1,76
 316 265 316 265 306 258 c 0,77,78
 287 244 287 244 271 229.5 c 128,-1,79
 255 215 255 215 250 192 c 2,80,-1
 222 61 l 2,81,82
 219 44 219 44 209 38 c 1,83,-1
 325 38 l 1,84,-1
 402 400 l 1,85,-1
 440 400 l 1,86,-1
 363 39 l 2,0,1
164 312 m 256,87,88
 150 312 150 312 138.5 303 c 128,-1,89
 127 294 127 294 124 280 c 256,90,91
 121 266 121 266 128.5 257 c 128,-1,92
 136 248 136 248 150 248 c 256,93,94
 164 248 164 248 175 257 c 128,-1,95
 186 266 186 266 189 280 c 256,96,97
 192 294 192 294 185 303 c 128,-1,98
 178 312 178 312 164 312 c 256,87,88
EndSplineSet
EndChar
StartChar: uni0E04
Encoding: 3588 3588 215
Width: 435
Flags: W
Fore
410 317 m 1,0,1
 411 317 411 317 406.5 325.5 c 128,-1,2
 402 334 402 334 389 345 c 128,-1,3
 376 356 376 356 354.5 365 c 128,-1,4
 333 374 333 374 299 374 c 0,5,6
 245 374 245 374 205 344 c 128,-1,7
 165 314 165 314 150 257 c 0,8,9
 142 228 142 228 138.5 200 c 128,-1,10
 135 172 135 172 133.5 149 c 128,-1,11
 132 126 132 126 131 109 c 128,-1,12
 130 92 130 92 128 84 c 1,13,14
 152 130 152 130 166 161.5 c 128,-1,15
 180 193 180 193 189 215 c 128,-1,16
 198 237 198 237 204 250.5 c 128,-1,17
 210 264 210 264 217 274 c 0,18,19
 245 315 245 315 288 315 c 0,20,21
 315 315 315 315 330.5 295.5 c 128,-1,22
 346 276 346 276 340 249 c 0,23,24
 335 222 335 222 311.5 203 c 128,-1,25
 288 184 288 184 261 184 c 0,26,27
 233 184 233 184 219 203 c 1,28,29
 210 184 210 184 199 160.5 c 128,-1,30
 188 137 188 137 174.5 110.5 c 128,-1,31
 161 84 161 84 142.5 57.5 c 128,-1,32
 124 31 124 31 100 6 c 0,33,34
 93 -1 93 -1 85.5 -1 c 128,-1,35
 78 -1 78 -1 73 4 c 0,36,37
 66 11 66 11 66.5 15 c 128,-1,38
 67 19 67 19 77 31 c 0,39,40
 90 46 90 46 93 68 c 128,-1,41
 96 90 96 90 97 118.5 c 128,-1,42
 98 147 98 147 100 182.5 c 128,-1,43
 102 218 102 218 113 260 c 0,44,45
 130 328 130 328 181 368 c 128,-1,46
 232 408 232 408 305 408 c 0,47,48
 334 408 334 408 355.5 402 c 128,-1,49
 377 396 377 396 393 387 c 128,-1,50
 409 378 409 378 419.5 366.5 c 128,-1,51
 430 355 430 355 437 343 c 1,52,53
 440 345 440 345 445.5 344 c 128,-1,54
 451 343 451 343 457 335 c 0,55,56
 464 324 464 324 460.5 319 c 128,-1,57
 457 314 457 314 449 307 c 0,58,59
 440 300 440 300 437 286 c 2,60,-1
 377 0 l 1,61,-1
 338 0 l 1,62,-1
 400 296 l 2,63,64
 403 309 403 309 410 317 c 1,0,1
306 249 m 0,65,66
 309 263 309 263 302 272 c 128,-1,67
 295 281 295 281 281 281 c 256,68,69
 267 281 267 281 256 272 c 128,-1,70
 245 263 245 263 242 249 c 0,71,72
 240 235 240 235 247 226 c 128,-1,73
 254 217 254 217 268 217 c 256,74,75
 282 217 282 217 293 226 c 128,-1,76
 304 235 304 235 306 249 c 0,65,66
EndSplineSet
EndChar
StartChar: uni0E05
Encoding: 3589 3589 216
Width: 435
Flags: W
Fore
409 315 m 1,0,1
 406 327 406 327 394.5 345 c 128,-1,2
 383 363 383 363 360 371 c 1,3,4
 355 369 355 369 341 358.5 c 128,-1,5
 327 348 327 348 311 334 c 1,6,7
 310 332 310 332 307.5 328.5 c 128,-1,8
 305 325 305 325 301 323 c 0,9,10
 293 318 293 318 288.5 321.5 c 128,-1,11
 284 325 284 325 280 331 c 0,12,13
 257 371 257 371 237 373 c 1,14,15
 204 365 204 365 184 343.5 c 128,-1,16
 164 322 164 322 153.5 293.5 c 128,-1,17
 143 265 143 265 139 232 c 128,-1,18
 135 199 135 199 134 169.5 c 128,-1,19
 133 140 133 140 132.5 117 c 128,-1,20
 132 94 132 94 128 84 c 1,21,22
 152 124 152 124 166 152.5 c 128,-1,23
 180 181 180 181 189 202 c 128,-1,24
 198 223 198 223 203.5 237 c 128,-1,25
 209 251 209 251 217 262 c 0,26,27
 246 303 246 303 289 303 c 0,28,29
 316 303 316 303 331.5 283.5 c 128,-1,30
 347 264 347 264 341 237 c 256,31,32
 335 210 335 210 311.5 190.5 c 128,-1,33
 288 171 288 171 261 171 c 0,34,35
 233 171 233 171 219 191 c 1,36,37
 200 153 200 153 174.5 104.5 c 128,-1,38
 149 56 149 56 100 6 c 0,39,40
 93 -1 93 -1 85.5 -1 c 128,-1,41
 78 -1 78 -1 73 4 c 0,42,43
 66 11 66 11 67 15.5 c 128,-1,44
 68 20 68 20 77 31 c 0,45,46
 90 47 90 47 94 72.5 c 128,-1,47
 98 98 98 98 99.5 130 c 128,-1,48
 101 162 101 162 102.5 198.5 c 128,-1,49
 104 235 104 235 113 274 c 0,50,51
 125 325 125 325 153.5 355.5 c 128,-1,52
 182 386 182 386 234 403 c 0,53,54
 252 408 252 408 270.5 394.5 c 128,-1,55
 289 381 289 381 301 363 c 1,56,57
 321 381 321 381 341 394 c 128,-1,58
 361 407 361 407 376 403 c 0,59,60
 403 392 403 392 418 375 c 128,-1,61
 433 358 433 358 440 344 c 1,62,63
 443 345 443 345 447.5 343.5 c 128,-1,64
 452 342 452 342 457 335 c 0,65,66
 464 324 464 324 460.5 319 c 128,-1,67
 457 314 457 314 449 307 c 0,68,69
 440 300 440 300 437 286 c 2,70,-1
 377 0 l 1,71,-1
 338 0 l 1,72,-1
 400 294 l 2,73,74
 402 300 402 300 403.5 305 c 128,-1,75
 405 310 405 310 409 315 c 1,0,1
307 237 m 256,76,77
 310 251 310 251 303 260 c 128,-1,78
 296 269 296 269 282 269 c 256,79,80
 268 269 268 269 256.5 260 c 128,-1,81
 245 251 245 251 242 237 c 256,82,83
 239 223 239 223 246.5 214 c 128,-1,84
 254 205 254 205 268 205 c 256,85,86
 282 205 282 205 293 214 c 128,-1,87
 304 223 304 223 307 237 c 256,76,77
EndSplineSet
EndChar
StartChar: uni0E06
Encoding: 3590 3590 217
Width: 480
Flags: W
Fore
422 0 m 1,0,-1
 383 0 l 1,1,-1
 390 34 l 1,2,3
 379 68 379 68 357.5 89 c 128,-1,4
 336 110 336 110 313.5 121 c 128,-1,5
 291 132 291 132 272 136 c 128,-1,6
 253 140 253 140 247 141 c 1,7,-1
 229 56 l 2,8,9
 224 32 224 32 210.5 16 c 128,-1,10
 197 0 197 0 176 -4 c 0,11,12
 156 -7 156 -7 140 -0.5 c 128,-1,13
 124 6 124 6 114.5 19 c 128,-1,14
 105 32 105 32 102.5 50 c 128,-1,15
 100 68 100 68 106 88 c 0,16,17
 118 126 118 126 149.5 147 c 128,-1,18
 181 168 181 168 216 174 c 1,19,-1
 224 210 l 2,20,21
 228 228 228 228 236.5 241 c 128,-1,22
 245 254 245 254 256 264 c 128,-1,23
 267 274 267 274 279 281.5 c 128,-1,24
 291 289 291 289 301 296 c 0,25,26
 321 310 321 310 328.5 319.5 c 128,-1,27
 336 329 336 329 337 340 c 0,28,29
 338 354 338 354 331.5 364 c 128,-1,30
 325 374 325 374 322 376 c 1,31,32
 316 371 316 371 305 364 c 128,-1,33
 294 357 294 357 283 349 c 1,34,35
 286 337 286 337 283 332 c 128,-1,36
 280 327 280 327 274 325 c 1,37,38
 264 320 264 320 258.5 322 c 128,-1,39
 253 324 253 324 251 330 c 0,40,41
 243 360 243 360 224 369.5 c 128,-1,42
 205 379 205 379 179 371 c 0,43,44
 171 369 171 369 157.5 358 c 128,-1,45
 144 347 144 347 139 332 c 1,46,47
 146 337 146 337 155 339.5 c 128,-1,48
 164 342 164 342 171 342 c 0,49,50
 199 342 199 342 214 324 c 128,-1,51
 229 306 229 306 224 279 c 0,52,53
 218 251 218 251 194.5 232.5 c 128,-1,54
 171 214 171 214 144 214 c 0,55,56
 120 214 120 214 107.5 225.5 c 128,-1,57
 95 237 95 237 91 254.5 c 128,-1,58
 87 272 87 272 91 293 c 128,-1,59
 95 314 95 314 103 332 c 0,60,61
 114 357 114 357 133 374.5 c 128,-1,62
 152 392 152 392 168 399 c 0,63,64
 181 405 181 405 196.5 407 c 128,-1,65
 212 409 212 409 226 407 c 128,-1,66
 240 405 240 405 252.5 397 c 128,-1,67
 265 389 265 389 274 375 c 1,68,69
 293 389 293 389 304.5 396.5 c 128,-1,70
 316 404 316 404 323 406.5 c 128,-1,71
 330 409 330 409 333.5 408 c 128,-1,72
 337 407 337 407 340 406 c 0,73,74
 348 402 348 402 354 394.5 c 128,-1,75
 360 387 360 387 363.5 378 c 128,-1,76
 367 369 367 369 369 360.5 c 128,-1,77
 371 352 371 352 371 347 c 0,78,79
 372 317 372 317 354.5 301 c 128,-1,80
 337 285 337 285 318 272 c 256,81,82
 299 259 299 259 283 245.5 c 128,-1,83
 267 232 267 232 262 210 c 2,84,-1
 254 174 l 1,85,86
 260 174 260 174 276.5 171.5 c 128,-1,87
 293 169 293 169 315 161 c 128,-1,88
 337 153 337 153 360.5 137 c 128,-1,89
 384 121 384 121 402 94 c 1,90,-1
 468 400 l 1,91,-1
 507 400 l 1,92,-1
 422 0 l 1,0,-1
165 311 m 256,93,94
 151 311 151 311 140 302 c 128,-1,95
 129 293 129 293 126 279 c 256,96,97
 123 265 123 265 130 255.5 c 128,-1,98
 137 246 137 246 151 246 c 256,99,100
 165 246 165 246 176 255.5 c 128,-1,101
 187 265 187 265 190 279 c 256,102,103
 193 293 193 293 186 302 c 128,-1,104
 179 311 179 311 165 311 c 256,93,94
208 140 m 1,105,106
 199 138 199 138 189 134.5 c 128,-1,107
 179 131 179 131 169.5 125 c 128,-1,108
 160 119 160 119 152 109 c 128,-1,109
 144 99 144 99 139 84 c 0,110,111
 133 65 133 65 140.5 45 c 128,-1,112
 148 25 148 25 172 27 c 0,113,114
 185 28 185 28 189 48 c 2,115,-1
 208 140 l 1,105,106
EndSplineSet
EndChar
StartChar: uni0E07
Encoding: 3591 3591 218
Width: 325
Flags: W
Fore
80 247 m 1,0,1
 81 245 81 245 93 230.5 c 128,-1,2
 105 216 105 216 121.5 194.5 c 128,-1,3
 138 173 138 173 157.5 148.5 c 128,-1,4
 177 124 177 124 193.5 102.5 c 128,-1,5
 210 81 210 81 222 65.5 c 128,-1,6
 234 50 234 50 235 48 c 1,7,8
 240 51 240 51 242 58 c 2,9,-1
 244 64 l 1,10,-1
 290 281 l 1,11,12
 274 274 274 274 260 274 c 0,13,14
 232 274 232 274 217 293.5 c 128,-1,15
 202 313 202 313 208 340 c 0,16,17
 213 367 213 367 236.5 386.5 c 128,-1,18
 260 406 260 406 288 406 c 0,19,20
 315 406 315 406 330 387 c 128,-1,21
 345 368 345 368 339 341 c 2,22,23
 336.5 329.5 l 130,-1,24
 334 318 334 318 330 299.5 c 128,-1,25
 326 281 326 281 321 257.5 c 128,-1,26
 316 234 316 234 311 209 c 2,27,-1
 283 77 l 2,28,29
 279 59 279 59 275 48.5 c 128,-1,30
 271 38 271 38 265.5 30 c 128,-1,31
 260 22 260 22 252.5 15.5 c 128,-1,32
 245 9 245 9 236 0 c 0,33,34
 227 -8 227 -8 222.5 -7 c 128,-1,35
 218 -6 218 -6 209 0 c 0,36,37
 203 4 203 4 204 7.5 c 128,-1,38
 205 11 205 11 211 19 c 1,39,40
 170 71 170 71 137 113 c 0,41,42
 123 131 123 131 108.5 149 c 128,-1,43
 94 167 94 167 82 182 c 128,-1,44
 70 197 70 197 61.5 207.5 c 128,-1,45
 53 218 53 218 50 221 c 1,46,-1
 80 247 l 1,0,1
267 308 m 0,47,48
 280 308 280 308 291.5 317 c 128,-1,49
 303 326 303 326 306 340 c 256,50,51
 309 354 309 354 301.5 363 c 128,-1,52
 294 372 294 372 281 372 c 0,53,54
 267 372 267 372 256 363 c 128,-1,55
 245 354 245 354 242 340 c 256,56,57
 239 326 239 326 246 317 c 128,-1,58
 253 308 253 308 267 308 c 0,47,48
EndSplineSet
EndChar
StartChar: uni0E08
Encoding: 3592 3592 219
Width: 400
Flags: W
Fore
312 41 m 2,0,1
 307 29 307 29 295 18 c 128,-1,2
 283 7 283 7 269 -3 c 0,3,4
 256 -10 256 -10 246 3 c 0,5,6
 243 7 243 7 244 11 c 128,-1,7
 245 15 245 15 248 18 c 128,-1,8
 251 21 251 21 255 23.5 c 128,-1,9
 259 26 259 26 261 29 c 1,10,-1
 256 184 l 1,11,12
 236 170 236 170 212 170 c 0,13,14
 185 170 185 170 170 189 c 128,-1,15
 155 208 155 208 161 236 c 0,16,17
 166 263 166 263 189 282 c 128,-1,18
 212 301 212 301 239 301 c 0,19,20
 265 301 265 301 279.5 284.5 c 128,-1,21
 294 268 294 268 293 243 c 2,22,-1
 289 61 l 1,23,-1
 371 298 l 2,24,25
 374 304 374 304 376.5 309 c 128,-1,26
 379 314 379 314 384 318 c 1,27,28
 379 325 379 325 369.5 334.5 c 128,-1,29
 360 344 360 344 346 352.5 c 128,-1,30
 332 361 332 361 313 367 c 128,-1,31
 294 373 294 373 271 373 c 0,32,33
 202 373 202 373 158.5 327.5 c 128,-1,34
 115 282 115 282 102 209 c 1,35,-1
 69 209 l 1,36,37
 78 261 78 261 98 298.5 c 128,-1,38
 118 336 118 336 146.5 360 c 128,-1,39
 175 384 175 384 208.5 395.5 c 128,-1,40
 242 407 242 407 278 407 c 0,41,42
 329 407 329 407 361.5 387 c 128,-1,43
 394 367 394 367 411 343 c 1,44,45
 414 345 414 345 419.5 344 c 128,-1,46
 425 343 425 343 430 333 c 0,47,48
 435 322 435 322 431.5 317 c 128,-1,49
 428 312 428 312 420 305 c 0,50,51
 417 303 417 303 412.5 299 c 128,-1,52
 408 295 408 295 405 287 c 2,53,-1
 312 41 l 2,0,1
219 203 m 256,54,55
 233 203 233 203 244.5 212.5 c 128,-1,56
 256 222 256 222 259 236 c 0,57,58
 261 249 261 249 253.5 258.5 c 128,-1,59
 246 268 246 268 232 268 c 256,60,61
 218 268 218 268 207 258.5 c 128,-1,62
 196 249 196 249 194 236 c 0,63,64
 191 222 191 222 198 212.5 c 128,-1,65
 205 203 205 203 219 203 c 256,54,55
EndSplineSet
EndChar
StartChar: uni0E09
Encoding: 3593 3593 220
Width: 426
Flags: W
Fore
388 295 m 2,0,1
 390 301 390 301 391.5 306 c 128,-1,2
 393 311 393 311 398 316 c 1,3,4
 396 317 396 317 390 326 c 128,-1,5
 384 335 384 335 370 345.5 c 128,-1,6
 356 356 356 356 333.5 364.5 c 128,-1,7
 311 373 311 373 277 373 c 0,8,9
 255 373 255 373 232 367 c 128,-1,10
 209 361 209 361 187.5 350 c 128,-1,11
 166 339 166 339 148 321.5 c 128,-1,12
 130 304 130 304 118 282 c 1,13,-1
 104 286 l 2,14,15
 99 288 99 288 94 289.5 c 128,-1,16
 89 291 89 291 88 292 c 1,17,18
 98 313 98 313 117 334 c 128,-1,19
 136 355 136 355 161.5 371.5 c 128,-1,20
 187 388 187 388 218 398 c 128,-1,21
 249 408 249 408 284 408 c 0,22,23
 314 408 314 408 337 402 c 128,-1,24
 360 396 360 396 377 387 c 128,-1,25
 394 378 394 378 405.5 366.5 c 128,-1,26
 417 355 417 355 424 343 c 1,27,28
 427 345 427 345 432.5 344 c 128,-1,29
 438 343 438 343 444 335 c 0,30,31
 451 324 451 324 447.5 319 c 128,-1,32
 444 314 444 314 436 307 c 0,33,34
 427 300 427 300 424 286 c 2,35,-1
 393 139 l 1,36,37
 415 128 415 128 419.5 108.5 c 128,-1,38
 424 89 424 89 421 72 c 0,39,40
 414 41 414 41 388 20 c 128,-1,41
 362 -1 362 -1 331 -1 c 0,42,43
 302 -1 302 -1 283 18 c 128,-1,44
 264 37 264 37 272 72 c 0,45,46
 274 84 274 84 286.5 101 c 128,-1,47
 299 118 299 118 316 126 c 1,48,49
 278 122 278 122 247.5 100.5 c 128,-1,50
 217 79 217 79 194.5 55.5 c 128,-1,51
 172 32 172 32 157.5 13.5 c 128,-1,52
 143 -5 143 -5 137 -3 c 1,53,54
 130 -3 130 -3 124.5 2 c 128,-1,55
 119 7 119 7 118 12 c 1,56,57
 118 21 118 21 126 27 c 128,-1,58
 134 33 134 33 136 42 c 2,59,-1
 161 155 l 1,60,61
 152 152 152 152 141 152 c 0,62,63
 114 152 114 152 98.5 169.5 c 128,-1,64
 83 187 83 187 89 214 c 0,65,66
 95 242 95 242 118 260 c 128,-1,67
 141 278 141 278 168 278 c 256,68,69
 195 278 195 278 210 260 c 128,-1,70
 225 242 225 242 219 214 c 0,71,72
 216 198 216 198 207 185 c 0,73,74
 205 181 205 181 202.5 169.5 c 128,-1,75
 200 158 200 158 197 143.5 c 128,-1,76
 194 129 194 129 190.5 114 c 128,-1,77
 187 99 187 99 184 88 c 1,78,79
 203 108 203 108 225.5 122 c 128,-1,80
 248 136 248 136 271.5 144.5 c 128,-1,81
 295 153 295 153 317.5 155.5 c 128,-1,82
 340 158 340 158 358 155 c 1,83,-1
 388 295 l 2,0,1
122 214 m 0,84,85
 119 201 119 201 126 191.5 c 128,-1,86
 133 182 133 182 147 182 c 256,87,88
 161 182 161 182 172 191.5 c 128,-1,89
 183 201 183 201 186 214 c 0,90,91
 189 228 189 228 182 237.5 c 128,-1,92
 175 247 175 247 161 247 c 256,93,94
 147 247 147 247 136 237.5 c 128,-1,95
 125 228 125 228 122 214 c 0,84,85
339 33 m 256,96,97
 356 33 356 33 369 44.5 c 128,-1,98
 382 56 382 56 386 72 c 0,99,100
 389 88 389 88 380.5 100 c 128,-1,101
 372 112 372 112 355 112 c 0,102,103
 340 112 340 112 325.5 100.5 c 128,-1,104
 311 89 311 89 308 72 c 0,105,106
 305 57 305 57 313.5 45 c 128,-1,107
 322 33 322 33 339 33 c 256,96,97
EndSplineSet
EndChar
StartChar: uni0E0A
Encoding: 3594 3594 221
Width: 379
Flags: W
Fore
329 39 m 2,0,1
 326 25 326 25 312 14 c 0,2,3
 298 0 298 0 272 0 c 2,4,-1
 141 0 l 2,5,6
 136 0 136 0 134 -1.5 c 128,-1,7
 132 -3 132 -3 127 -5 c 0,8,9
 119 -7 119 -7 115 -6 c 128,-1,10
 111 -5 111 -5 105 9 c 0,11,12
 103 16 103 16 106 19.5 c 128,-1,13
 109 23 109 23 118 28 c 0,14,15
 130 35 130 35 135 43 c 128,-1,16
 140 51 140 51 141 56 c 2,17,-1
 167 175 l 2,18,19
 171 195 171 195 184.5 211 c 128,-1,20
 198 227 198 227 212 242 c 0,21,22
 231 262 231 262 246 281 c 128,-1,23
 261 300 261 300 259 326 c 0,24,25
 258 342 258 342 248.5 351 c 128,-1,26
 239 360 239 360 225 363.5 c 128,-1,27
 211 367 211 367 195 365.5 c 128,-1,28
 179 364 179 364 164 358 c 1,29,30
 186 361 186 361 198.5 341.5 c 128,-1,31
 211 322 211 322 206 299 c 0,32,33
 200 271 200 271 177 252 c 128,-1,34
 154 233 154 233 126 233 c 0,35,36
 99 233 99 233 84.5 251.5 c 128,-1,37
 70 270 70 270 75 299 c 0,38,39
 81 326 81 326 101.5 349.5 c 128,-1,40
 122 373 122 373 151 387 c 0,41,42
 175 397 175 397 199.5 399 c 128,-1,43
 224 401 224 401 245 395 c 128,-1,44
 266 389 266 389 280 374.5 c 128,-1,45
 294 360 294 360 296 337 c 0,46,47
 298 307 298 307 283.5 280.5 c 128,-1,48
 269 254 269 254 243 228 c 0,49,50
 223 207 223 207 215.5 196.5 c 128,-1,51
 208 186 208 186 205 171 c 2,52,-1
 181 61 l 2,53,54
 178 44 178 44 168 38 c 1,55,-1
 290 38 l 1,56,-1
 334 248 l 1,57,58
 332 257 332 257 326 263.5 c 128,-1,59
 320 270 320 270 312 275 c 0,60,61
 303 280 303 280 293 285 c 1,62,63
 294 287 294 287 300 300.5 c 128,-1,64
 306 314 306 314 322.5 335.5 c 128,-1,65
 339 357 339 357 368.5 384 c 128,-1,66
 398 411 398 411 445 441 c 1,67,-1
 453 427 l 2,68,69
 456 422 456 422 458.5 417 c 128,-1,70
 461 412 461 412 462 412 c 1,71,72
 413 383 413 383 382.5 356.5 c 128,-1,73
 352 330 352 330 336 302 c 1,74,75
 342 301 342 301 347 297 c 0,76,77
 358 290 358 290 367 278 c 0,78,79
 374 267 374 267 372.5 251.5 c 128,-1,80
 371 236 371 236 369 229 c 2,81,-1
 329 39 l 2,0,1
173 299 m 0,82,83
 176 312 176 312 168.5 321.5 c 128,-1,84
 161 331 161 331 147 331 c 0,85,86
 134 331 134 331 122.5 321.5 c 128,-1,87
 111 312 111 312 108 299 c 0,88,89
 105 285 105 285 112.5 275.5 c 128,-1,90
 120 266 120 266 133 266 c 0,91,92
 147 266 147 266 158.5 275.5 c 128,-1,93
 170 285 170 285 173 299 c 0,82,83
EndSplineSet
EndChar
StartChar: uni0E0B
Encoding: 3595 3595 222
Width: 425
Flags: W
Fore
375 39 m 2,0,1
 372 25 372 25 358 14 c 0,2,3
 344 0 344 0 318 0 c 2,4,-1
 187 0 l 2,5,6
 182 0 182 0 180 -1.5 c 128,-1,7
 178 -3 178 -3 173 -5 c 0,8,9
 165 -7 165 -7 161 -6 c 128,-1,10
 157 -5 157 -5 151 9 c 0,11,12
 149 16 149 16 152 19.5 c 128,-1,13
 155 23 155 23 164 28 c 0,14,15
 176 35 176 35 181 43 c 128,-1,16
 186 51 186 51 187 56 c 2,17,-1
 215 188 l 2,18,19
 220 207 220 207 229.5 222.5 c 128,-1,20
 239 238 239 238 262 259 c 0,21,22
 283 279 283 279 299 294.5 c 128,-1,23
 315 310 315 310 316 318 c 0,24,25
 317 325 317 325 315.5 333.5 c 128,-1,26
 314 342 314 342 312 349.5 c 128,-1,27
 310 357 310 357 307 362 c 128,-1,28
 304 367 304 367 302 366 c 0,29,30
 296 362 296 362 288 356 c 128,-1,31
 280 350 280 350 269 342 c 1,32,33
 273 328 273 328 254 321 c 0,34,35
 239 316 239 316 235 333 c 1,36,37
 225 356 225 356 211 364 c 128,-1,38
 197 372 197 372 182 369.5 c 128,-1,39
 167 367 167 367 152 355.5 c 128,-1,40
 137 344 137 344 125 328 c 1,41,42
 144 340 144 340 162.5 340 c 128,-1,43
 181 340 181 340 194 332 c 128,-1,44
 207 324 207 324 213.5 309 c 128,-1,45
 220 294 220 294 216 275 c 0,46,47
 210 247 210 247 186.5 228 c 128,-1,48
 163 209 163 209 136 209 c 0,49,50
 113 209 113 209 99.5 220.5 c 128,-1,51
 86 232 86 232 80.5 249.5 c 128,-1,52
 75 267 75 267 77.5 287.5 c 128,-1,53
 80 308 80 308 88 326 c 0,54,55
 98 349 98 349 118.5 368.5 c 128,-1,56
 139 388 139 388 160 397 c 0,57,58
 187 408 187 408 214 404 c 128,-1,59
 241 400 241 400 258 371 c 1,60,61
 277 386 277 386 289 393 c 128,-1,62
 301 400 301 400 307.5 402.5 c 128,-1,63
 314 405 314 405 317.5 404 c 128,-1,64
 321 403 321 403 324 402 c 0,65,66
 330 399 330 399 335.5 389.5 c 128,-1,67
 341 380 341 380 344.5 368 c 128,-1,68
 348 356 348 356 349.5 343.5 c 128,-1,69
 351 331 351 331 349 322 c 0,70,71
 347 309 347 309 342.5 300 c 128,-1,72
 338 291 338 291 330 282 c 128,-1,73
 322 273 322 273 310.5 262.5 c 128,-1,74
 299 252 299 252 283 236 c 0,75,76
 273 227 273 227 266 217.5 c 128,-1,77
 259 208 259 208 254 186 c 2,78,-1
 227 61 l 2,79,80
 224 44 224 44 214 38 c 1,81,-1
 336 38 l 1,82,-1
 380 246 l 1,83,84
 380 257 380 257 373.5 264 c 128,-1,85
 367 271 367 271 359 275 c 0,86,87
 350 279 350 279 339 281 c 1,88,89
 340 283 340 283 346 297 c 128,-1,90
 352 311 352 311 368.5 333 c 128,-1,91
 385 355 385 355 414.5 383 c 128,-1,92
 444 411 444 411 491 441 c 1,93,-1
 499 427 l 2,94,95
 502 422 502 422 504.5 417 c 128,-1,96
 507 412 507 412 508 412 c 1,97,98
 459 383 459 383 428.5 356.5 c 128,-1,99
 398 330 398 330 382 302 c 1,100,101
 388 301 388 301 393 297 c 0,102,103
 404 290 404 290 413 278 c 0,104,105
 420 267 420 267 418.5 251.5 c 128,-1,106
 417 236 417 236 415 229 c 2,107,-1
 375 39 l 2,0,1
157 307 m 256,108,109
 143 307 143 307 132 297.5 c 128,-1,110
 121 288 121 288 118 275 c 0,111,112
 115 261 115 261 122 251.5 c 128,-1,113
 129 242 129 242 143 242 c 256,114,115
 157 242 157 242 168 251.5 c 128,-1,116
 179 261 179 261 182 275 c 0,117,118
 185 288 185 288 178 297.5 c 128,-1,119
 171 307 171 307 157 307 c 256,108,109
EndSplineSet
EndChar
StartChar: uni0E0C
Encoding: 3596 3596 223
Width: 614
Flags: W
Fore
393 292 m 2,0,1
 394 304 394 304 402 313 c 1,2,3
 400 317 400 317 393 327.5 c 128,-1,4
 386 338 386 338 373.5 348 c 128,-1,5
 361 358 361 358 340.5 366 c 128,-1,6
 320 374 320 374 291 374 c 0,7,8
 257 374 257 374 231.5 365.5 c 128,-1,9
 206 357 206 357 187.5 345 c 128,-1,10
 169 333 169 333 157 320 c 128,-1,11
 145 307 145 307 139 298 c 1,12,-1
 173 273 l 1,13,14
 181 281 181 281 195.5 290.5 c 128,-1,15
 210 300 210 300 222 302 c 0,16,17
 223 302 223 302 228 292 c 128,-1,18
 233 282 233 282 236 275 c 1,19,20
 203 261 203 261 189 240.5 c 128,-1,21
 175 220 175 220 172 205 c 2,22,-1
 154 121 l 1,23,24
 169 127 169 127 181 127 c 0,25,26
 209 127 209 127 224 107.5 c 128,-1,27
 239 88 239 88 233 61 c 0,28,29
 228 34 228 34 204.5 14.5 c 128,-1,30
 181 -5 181 -5 153 -5 c 0,31,32
 126 -5 126 -5 111.5 14.5 c 128,-1,33
 97 34 97 34 102 61 c 2,34,-1
 133 206 l 2,35,36
 136 218 136 218 141.5 228.5 c 128,-1,37
 147 239 147 239 150 243 c 1,38,-1
 90 284 l 1,39,40
 93 290 93 290 106 309.5 c 128,-1,41
 119 329 119 329 144.5 351 c 128,-1,42
 170 373 170 373 207.5 390 c 128,-1,43
 245 407 245 407 297 408 c 0,44,45
 356 408 356 408 386.5 387.5 c 128,-1,46
 417 367 417 367 430 343 c 1,47,48
 433 345 433 345 438.5 344 c 128,-1,49
 444 343 444 343 450 335 c 0,50,51
 457 324 457 324 453.5 319 c 128,-1,52
 450 314 450 314 442 307 c 0,53,54
 433 300 433 300 430 286 c 2,55,-1
 408 180 l 1,56,57
 419 179 419 179 436 175 c 128,-1,58
 453 171 453 171 471 162 c 128,-1,59
 489 153 489 153 507 138 c 128,-1,60
 525 123 525 123 538 99 c 1,61,-1
 602 400 l 1,62,-1
 641 400 l 1,63,-1
 556 0 l 1,64,-1
 517 0 l 1,65,-1
 523 31 l 1,66,67
 520 62 520 62 504.5 83 c 128,-1,68
 489 104 489 104 469.5 117 c 128,-1,69
 450 130 450 130 430.5 136.5 c 128,-1,70
 411 143 411 143 400 144 c 1,71,-1
 382 57 l 2,72,73
 377 32 377 32 362 18 c 128,-1,74
 347 4 347 4 326 0 c 0,75,76
 311 -2 311 -2 297 4 c 128,-1,77
 283 10 283 10 274.5 22.5 c 128,-1,78
 266 35 266 35 263.5 54.5 c 128,-1,79
 261 74 261 74 269 98 c 0,80,81
 283 138 283 138 313 156 c 128,-1,82
 343 174 343 174 369 179 c 1,83,-1
 393 292 l 2,0,1
174 93 m 0,84,85
 161 93 161 93 149.5 84 c 128,-1,86
 138 75 138 75 135 61 c 0,87,88
 133 47 133 47 140.5 38 c 128,-1,89
 148 29 148 29 161 29 c 0,90,91
 175 29 175 29 186.5 38 c 128,-1,92
 198 47 198 47 200 61 c 0,93,94
 203 75 203 75 195.5 84 c 128,-1,95
 188 93 188 93 174 93 c 0,84,85
361 142 m 1,96,97
 345 138 345 138 327.5 125.5 c 128,-1,98
 310 113 310 113 302 87 c 0,99,100
 300 81 300 81 299.5 71.5 c 128,-1,101
 299 62 299 62 301.5 53 c 128,-1,102
 304 44 304 44 309.5 37.5 c 128,-1,103
 315 31 315 31 325 31 c 0,104,105
 328 31 328 31 333 33.5 c 128,-1,106
 338 36 338 36 341 50 c 2,107,-1
 361 142 l 1,96,97
EndSplineSet
EndChar
StartChar: uni0E0D
Encoding: 3597 3597 224
Width: 615
Flags: W
Fore
334 -71 m 1,0,1
 325 -80 325 -80 322 -93 c 0,2,3
 319 -105 319 -105 326 -113.5 c 128,-1,4
 333 -122 333 -122 345 -122 c 0,5,6
 358 -122 358 -122 368 -113.5 c 128,-1,7
 378 -105 378 -105 381 -93 c 0,8,9
 384 -79 384 -79 377.5 -71 c 128,-1,10
 371 -63 371 -63 357 -63 c 0,11,12
 345 -63 345 -63 334 -71 c 1,0,1
390 292 m 2,13,14
 391 304 391 304 399 313 c 1,15,16
 397 317 397 317 390.5 327.5 c 128,-1,17
 384 338 384 338 372 348 c 128,-1,18
 360 358 360 358 340 366 c 128,-1,19
 320 374 320 374 291 374 c 0,20,21
 257 374 257 374 231.5 365.5 c 128,-1,22
 206 357 206 357 187.5 345 c 128,-1,23
 169 333 169 333 157 320 c 128,-1,24
 145 307 145 307 139 298 c 1,25,-1
 173 273 l 1,26,27
 181 281 181 281 195.5 290.5 c 128,-1,28
 210 300 210 300 222 302 c 0,29,30
 223 302 223 302 228 292 c 128,-1,31
 233 282 233 282 236 275 c 1,32,33
 203 261 203 261 189 240.5 c 128,-1,34
 175 220 175 220 172 205 c 2,35,-1
 154 121 l 1,36,37
 169 127 169 127 181 127 c 0,38,39
 209 127 209 127 224 107.5 c 128,-1,40
 239 88 239 88 233 61 c 0,41,42
 228 34 228 34 204.5 14.5 c 128,-1,43
 181 -5 181 -5 153 -5 c 0,44,45
 126 -5 126 -5 111.5 14.5 c 128,-1,46
 97 34 97 34 102 61 c 2,47,-1
 133 206 l 2,48,49
 136 218 136 218 141.5 228.5 c 128,-1,50
 147 239 147 239 150 243 c 1,51,-1
 90 284 l 1,52,53
 93 290 93 290 106 309.5 c 128,-1,54
 119 329 119 329 144.5 351 c 128,-1,55
 170 373 170 373 207.5 390 c 128,-1,56
 245 407 245 407 297 408 c 0,57,58
 326 408 326 408 347.5 402.5 c 128,-1,59
 369 397 369 397 384.5 387.5 c 128,-1,60
 400 378 400 378 410.5 366.5 c 128,-1,61
 421 355 421 355 427 343 c 1,62,63
 430 345 430 345 435.5 344 c 128,-1,64
 441 343 441 343 447 335 c 0,65,66
 454 324 454 324 450.5 319 c 128,-1,67
 447 314 447 314 439 307 c 0,68,69
 430 300 430 300 427 286 c 2,70,-1
 379 61 l 2,71,72
 376 44 376 44 366 38 c 1,73,-1
 526 38 l 1,74,-1
 603 400 l 1,75,-1
 642 400 l 1,76,-1
 562 24 l 2,77,78
 556 -3 556 -3 546 -31 c 128,-1,79
 536 -59 536 -59 520 -84 c 128,-1,80
 504 -109 504 -109 480.5 -128.5 c 128,-1,81
 457 -148 457 -148 424 -157 c 0,82,83
 396 -165 396 -165 370 -164.5 c 128,-1,84
 344 -164 344 -164 324.5 -156 c 128,-1,85
 305 -148 305 -148 295 -132 c 128,-1,86
 285 -116 285 -116 290 -93 c 0,87,88
 295 -67 295 -67 316.5 -49 c 128,-1,89
 338 -31 338 -31 364 -31 c 0,90,91
 385 -31 385 -31 397.5 -41.5 c 128,-1,92
 410 -52 410 -52 413 -68 c 128,-1,93
 416 -84 416 -84 408.5 -101.5 c 128,-1,94
 401 -119 401 -119 382 -133 c 1,95,96
 441 -132 441 -132 473.5 -94.5 c 128,-1,97
 506 -57 506 -57 519 3 c 1,98,-1
 339 3 l 2,99,100
 334 3 334 3 332.5 1.5 c 128,-1,101
 331 0 331 0 326 -2 c 0,102,103
 318 -4 318 -4 313.5 -3 c 128,-1,104
 309 -2 309 -2 304 12 c 0,105,106
 302 19 302 19 305 22.5 c 128,-1,107
 308 26 308 26 317 31 c 0,108,109
 329 38 329 38 334 46 c 128,-1,110
 339 54 339 54 340 59 c 2,111,-1
 390 292 l 2,13,14
174 93 m 0,112,113
 161 93 161 93 149.5 84 c 128,-1,114
 138 75 138 75 135 61 c 0,115,116
 133 47 133 47 140.5 38 c 128,-1,117
 148 29 148 29 161 29 c 0,118,119
 175 29 175 29 186.5 38 c 128,-1,120
 198 47 198 47 200 61 c 0,121,122
 203 75 203 75 195.5 84 c 128,-1,123
 188 93 188 93 174 93 c 0,112,113
EndSplineSet
Substitution: 0 65534 'L026' uni0E0D.alt1
Substitution: 0 65534 'L026' uni0E0D.alt1
EndChar
StartChar: uni0E0E
Encoding: 3598 3598 225
Width: 437
Flags: W
Fore
350 -135 m 2,0,1
 346 -152 346 -152 333 -167 c 128,-1,2
 320 -182 320 -182 304 -195.5 c 128,-1,3
 288 -209 288 -209 271.5 -219 c 128,-1,4
 255 -229 255 -229 245 -235 c 0,5,6
 237 -239 237 -239 229.5 -237 c 128,-1,7
 222 -235 222 -235 219 -228 c 0,8,9
 217 -222 217 -222 220 -214.5 c 128,-1,10
 223 -207 223 -207 231 -202 c 1,11,12
 220 -179 220 -179 201 -157.5 c 128,-1,13
 182 -136 182 -136 164 -130 c 1,14,15
 159 -159 159 -159 148 -181 c 0,16,17
 138 -200 138 -200 119.5 -215.5 c 128,-1,18
 101 -231 101 -231 71 -231 c 0,19,20
 36 -231 36 -231 23.5 -208.5 c 128,-1,21
 11 -186 11 -186 16 -161 c 0,22,23
 20 -141 20 -141 32.5 -126.5 c 128,-1,24
 45 -112 45 -112 61.5 -103 c 128,-1,25
 78 -94 78 -94 96.5 -91 c 128,-1,26
 115 -88 115 -88 133 -91 c 1,27,-1
 144 -40 l 1,28,-1
 183 -40 l 1,29,-1
 170 -100 l 1,30,31
 180 -102 180 -102 193.5 -109.5 c 128,-1,32
 207 -117 207 -117 220 -128 c 128,-1,33
 233 -139 233 -139 244 -153 c 128,-1,34
 255 -167 255 -167 262 -183 c 1,35,36
 281 -170 281 -170 295 -157 c 128,-1,37
 309 -144 309 -144 311 -135 c 2,38,-1
 402 292 l 2,39,40
 403 304 403 304 411 313 c 1,41,42
 409 317 409 317 403 327.5 c 128,-1,43
 397 338 397 338 384.5 348 c 128,-1,44
 372 358 372 358 352.5 366 c 128,-1,45
 333 374 333 374 304 374 c 0,46,47
 270 374 270 374 244.5 365.5 c 128,-1,48
 219 357 219 357 200.5 345 c 128,-1,49
 182 333 182 333 170 320 c 128,-1,50
 158 307 158 307 152 298 c 1,51,-1
 186 273 l 1,52,53
 194 281 194 281 208.5 290.5 c 128,-1,54
 223 300 223 300 235 302 c 0,55,56
 236 302 236 302 241 292 c 128,-1,57
 246 282 246 282 249 275 c 1,58,59
 216 261 216 261 202 240.5 c 128,-1,60
 188 220 188 220 185 205 c 2,61,-1
 159 84 l 1,62,63
 161 79 161 79 160.5 73 c 128,-1,64
 160 67 160 67 159 62 c 0,65,66
 153 34 153 34 130 15 c 128,-1,67
 107 -4 107 -4 80 -4 c 0,68,69
 52 -4 52 -4 37 15 c 128,-1,70
 22 34 22 34 28 62 c 0,71,72
 33 89 33 89 56 108 c 128,-1,73
 79 127 79 127 107 127 c 0,74,75
 113 127 113 127 118 126 c 128,-1,76
 123 125 123 125 129 123 c 1,77,-1
 146 206 l 2,78,79
 149 218 149 218 154.5 228.5 c 128,-1,80
 160 239 160 239 163 243 c 1,81,-1
 103 284 l 1,82,83
 106 290 106 290 119 309.5 c 128,-1,84
 132 329 132 329 157.5 351 c 128,-1,85
 183 373 183 373 220.5 390 c 128,-1,86
 258 407 258 407 310 408 c 0,87,88
 339 408 339 408 360.5 402.5 c 128,-1,89
 382 397 382 397 397.5 387.5 c 128,-1,90
 413 378 413 378 423 366.5 c 128,-1,91
 433 355 433 355 439 343 c 1,92,93
 442 345 442 345 447.5 344 c 128,-1,94
 453 343 453 343 459 335 c 0,95,96
 466 324 466 324 462.5 319 c 128,-1,97
 459 314 459 314 451 307 c 0,98,99
 442 300 442 300 439 286 c 2,100,-1
 350 -135 l 2,0,1
87 29 m 0,101,102
 100 29 100 29 111.5 38.5 c 128,-1,103
 123 48 123 48 126 62 c 0,104,105
 128 75 128 75 120.5 84.5 c 128,-1,106
 113 94 113 94 100 94 c 0,107,108
 86 94 86 94 74.5 84.5 c 128,-1,109
 63 75 63 75 61 62 c 0,110,111
 58 48 58 48 65.5 38.5 c 128,-1,112
 73 29 73 29 87 29 c 0,101,102
124 -155 m 0,113,114
 125 -150 125 -150 126.5 -139.5 c 128,-1,115
 128 -129 128 -129 128 -124 c 1,116,117
 118 -123 118 -123 106 -123 c 128,-1,118
 94 -123 94 -123 82.5 -126 c 128,-1,119
 71 -129 71 -129 62.5 -137.5 c 128,-1,120
 54 -146 54 -146 51 -161 c 0,121,122
 50 -164 50 -164 50 -170 c 128,-1,123
 50 -176 50 -176 52.5 -182 c 128,-1,124
 55 -188 55 -188 61 -192 c 128,-1,125
 67 -196 67 -196 79 -196 c 0,126,127
 99 -196 99 -196 109.5 -183 c 128,-1,128
 120 -170 120 -170 124 -155 c 0,113,114
EndSplineSet
Substitution: 0 65534 'L026' uni0E0E.alt1
Substitution: 0 65534 'L026' uni0E0E.alt1
EndChar
StartChar: uni0E0F
Encoding: 3599 3599 226
Width: 437
Flags: W
Fore
351 -136 m 2,0,1
 346 -160 346 -160 337.5 -175.5 c 128,-1,2
 329 -191 329 -191 319 -201 c 128,-1,3
 309 -211 309 -211 299.5 -216.5 c 128,-1,4
 290 -222 290 -222 283 -224 c 0,5,6
 275 -226 275 -226 268.5 -222.5 c 128,-1,7
 262 -219 262 -219 262 -211 c 2,8,9
 259 -207 259 -207 263 -201 c 1,10,11
 260 -201 260 -201 253 -200.5 c 128,-1,12
 246 -200 246 -200 236.5 -203 c 128,-1,13
 227 -206 227 -206 216 -213.5 c 128,-1,14
 205 -221 205 -221 195 -235 c 0,15,16
 190 -242 190 -242 182 -243.5 c 128,-1,17
 174 -245 174 -245 169 -241 c 0,18,19
 164 -236 164 -236 164 -229 c 128,-1,20
 164 -222 164 -222 170 -216 c 2,21,-1
 172 -214 l 1,22,23
 164 -192 164 -192 154 -172.5 c 128,-1,24
 144 -153 144 -153 129 -140 c 1,25,26
 125 -167 125 -167 114 -187 c 0,27,28
 104 -204 104 -204 86.5 -218.5 c 128,-1,29
 69 -233 69 -233 38 -233 c 0,30,31
 21 -233 21 -233 9.5 -226.5 c 128,-1,32
 -2 -220 -2 -220 -8.5 -210 c 128,-1,33
 -15 -200 -15 -200 -17 -187 c 128,-1,34
 -19 -174 -19 -174 -16 -162 c 0,35,36
 -12 -142 -12 -142 0.5 -127.5 c 128,-1,37
 13 -113 13 -113 29.5 -104 c 128,-1,38
 46 -95 46 -95 65 -92.5 c 128,-1,39
 84 -90 84 -90 101 -94 c 1,40,-1
 112 -42 l 1,41,-1
 150 -42 l 1,42,-1
 136 -107 l 1,43,44
 156 -120 156 -120 173 -141 c 128,-1,45
 190 -162 190 -162 201 -188 c 1,46,47
 211 -178 211 -178 225 -173 c 128,-1,48
 239 -168 239 -168 253 -167.5 c 128,-1,49
 267 -167 267 -167 279 -170 c 128,-1,50
 291 -173 291 -173 296 -177 c 1,51,52
 304 -168 304 -168 307 -156.5 c 128,-1,53
 310 -145 310 -145 312 -136 c 2,54,-1
 403 292 l 2,55,56
 404 304 404 304 412 313 c 1,57,58
 410 317 410 317 403.5 327.5 c 128,-1,59
 397 338 397 338 385 348 c 128,-1,60
 373 358 373 358 353 366 c 128,-1,61
 333 374 333 374 304 374 c 0,62,63
 270 374 270 374 244.5 365.5 c 128,-1,64
 219 357 219 357 200.5 345 c 128,-1,65
 182 333 182 333 170 320 c 128,-1,66
 158 307 158 307 152 298 c 1,67,-1
 186 273 l 1,68,69
 194 281 194 281 208.5 290.5 c 128,-1,70
 223 300 223 300 235 302 c 0,71,72
 236 302 236 302 241 292 c 128,-1,73
 246 282 246 282 249 275 c 1,74,75
 216 261 216 261 202 240.5 c 128,-1,76
 188 220 188 220 185 205 c 2,77,-1
 159 84 l 1,78,79
 161 79 161 79 160.5 73 c 128,-1,80
 160 67 160 67 159 62 c 0,81,82
 153 34 153 34 130 15 c 128,-1,83
 107 -4 107 -4 80 -4 c 0,84,85
 52 -4 52 -4 37 15 c 128,-1,86
 22 34 22 34 28 62 c 0,87,88
 33 89 33 89 56 108 c 128,-1,89
 79 127 79 127 107 127 c 0,90,91
 113 127 113 127 118 126 c 128,-1,92
 123 125 123 125 129 123 c 1,93,-1
 146 206 l 2,94,95
 149 218 149 218 154.5 228.5 c 128,-1,96
 160 239 160 239 163 243 c 1,97,-1
 103 284 l 1,98,99
 106 290 106 290 119 309.5 c 128,-1,100
 132 329 132 329 157.5 351 c 128,-1,101
 183 373 183 373 220.5 390 c 128,-1,102
 258 407 258 407 310 408 c 0,103,104
 339 408 339 408 360.5 402.5 c 128,-1,105
 382 397 382 397 397.5 387.5 c 128,-1,106
 413 378 413 378 423.5 366.5 c 128,-1,107
 434 355 434 355 440 343 c 1,108,109
 443 345 443 345 448.5 344 c 128,-1,110
 454 343 454 343 460 335 c 0,111,112
 467 324 467 324 463.5 319 c 128,-1,113
 460 314 460 314 452 307 c 0,114,115
 443 300 443 300 440 286 c 2,116,-1
 351 -136 l 2,0,1
87 29 m 0,117,118
 100 29 100 29 111.5 38.5 c 128,-1,119
 123 48 123 48 126 62 c 0,120,121
 128 75 128 75 120.5 84.5 c 128,-1,122
 113 94 113 94 100 94 c 0,123,124
 86 94 86 94 74.5 84.5 c 128,-1,125
 63 75 63 75 61 62 c 0,126,127
 58 48 58 48 65.5 38.5 c 128,-1,128
 73 29 73 29 87 29 c 0,117,118
46 -197 m 0,129,130
 61 -197 61 -197 73.5 -187 c 128,-1,131
 86 -177 86 -177 89 -162 c 0,132,133
 89 -160 89 -160 90 -154.5 c 128,-1,134
 91 -149 91 -149 92 -143 c 128,-1,135
 93 -137 93 -137 94 -132 c 128,-1,136
 95 -127 95 -127 95 -124 c 1,137,138
 72 -121 72 -121 48.5 -127 c 128,-1,139
 25 -133 25 -133 18 -162 c 0,140,141
 17 -165 17 -165 17 -171 c 128,-1,142
 17 -177 17 -177 19.5 -183 c 128,-1,143
 22 -189 22 -189 28 -193 c 128,-1,144
 34 -197 34 -197 46 -197 c 0,129,130
EndSplineSet
Substitution: 0 65534 'L026' uni0E0F.alt1
Substitution: 0 65534 'L026' uni0E0F.alt1
EndChar
StartChar: uni0E10
Encoding: 3600 3600 227
Width: 382
Flags: W
Fore
374 286 m 1,0,1
 377 288 377 288 382.5 287 c 128,-1,2
 388 286 388 286 393 276 c 0,3,4
 398 265 398 265 394.5 260 c 128,-1,5
 391 255 391 255 383 248 c 0,6,7
 380 246 380 246 375.5 242 c 128,-1,8
 371 238 371 238 367 230 c 2,9,-1
 287 18 l 2,10,11
 284 10 284 10 276.5 3.5 c 128,-1,12
 269 -3 269 -3 261 -1 c 256,13,14
 253 1 253 1 247 4 c 128,-1,15
 241 7 241 7 250 22 c 1,16,17
 252 41 252 41 246 79 c 128,-1,18
 240 117 240 117 232 155 c 1,19,20
 221 144 221 144 207 138 c 128,-1,21
 193 132 193 132 178 132 c 0,22,23
 151 132 151 132 135.5 151 c 128,-1,24
 120 170 120 170 126 198 c 0,25,26
 131 225 131 225 154.5 244 c 128,-1,27
 178 263 178 263 205 263 c 0,28,29
 223 263 223 263 236.5 254 c 128,-1,30
 250 245 250 245 255 230 c 0,31,32
 259 221 259 221 262.5 203 c 128,-1,33
 266 185 266 185 269.5 164 c 128,-1,34
 273 143 273 143 275.5 121.5 c 128,-1,35
 278 100 278 100 279 85 c 1,36,-1
 337 244 l 2,37,38
 341 255 341 255 349 260 c 1,39,40
 344 264 344 264 328 271 c 128,-1,41
 312 278 312 278 285 283 c 128,-1,42
 258 288 258 288 219.5 289 c 128,-1,43
 181 290 181 290 132 283 c 1,44,45
 125 272 125 272 118.5 268.5 c 128,-1,46
 112 265 112 265 101 270 c 0,47,48
 93 274 93 274 98 286.5 c 128,-1,49
 103 299 103 299 120 318 c 0,50,51
 136 336 136 336 153.5 352.5 c 128,-1,52
 171 369 171 369 193 382 c 128,-1,53
 215 395 215 395 242.5 402 c 128,-1,54
 270 409 270 409 305 407 c 0,55,56
 322 406 322 406 341.5 401 c 128,-1,57
 361 396 361 396 379 390.5 c 128,-1,58
 397 385 397 385 413 380 c 128,-1,59
 429 375 429 375 438 373 c 1,60,-1
 420 343 l 1,61,62
 413 344 413 344 399 349 c 128,-1,63
 385 354 385 354 366.5 359.5 c 128,-1,64
 348 365 348 365 327 369.5 c 128,-1,65
 306 374 306 374 287 374 c 0,66,67
 238 374 238 374 205.5 354 c 128,-1,68
 173 334 173 334 157 316 c 1,69,70
 208 320 208 320 245.5 318 c 128,-1,71
 283 316 283 316 309 311 c 128,-1,72
 335 306 335 306 350.5 299 c 128,-1,73
 366 292 366 292 374 286 c 1,0,1
120 -33 m 1,74,-1
 105 -106 l 1,75,76
 125 -120 125 -120 141.5 -140.5 c 128,-1,77
 158 -161 158 -161 169 -187 c 1,78,79
 185 -176 185 -176 204 -173 c 0,80,81
 215 -171 215 -171 226 -172.5 c 128,-1,82
 237 -174 237 -174 248 -178 c 1,83,-1
 256 -141 l 1,84,85
 238 -149 238 -149 225 -149 c 0,86,87
 198 -149 198 -149 183 -129.5 c 128,-1,88
 168 -110 168 -110 174 -84 c 0,89,90
 179 -57 179 -57 202 -38 c 128,-1,91
 225 -19 225 -19 252 -19 c 0,92,93
 278 -19 278 -19 293 -38.5 c 128,-1,94
 308 -58 308 -58 303 -84 c 2,95,-1
 279 -195 l 1,96,97
 279 -213 279 -213 270 -216 c 128,-1,98
 261 -219 261 -219 257 -219 c 0,99,100
 246 -219 246 -219 243 -212 c 1,101,102
 235 -205 235 -205 225 -203.5 c 128,-1,103
 215 -202 215 -202 205 -204 c 0,104,105
 194 -206 194 -206 184 -213.5 c 128,-1,106
 174 -221 174 -221 164 -235 c 0,107,108
 159 -241 159 -241 152.5 -240.5 c 128,-1,109
 146 -240 146 -240 139 -237 c 0,110,111
 130 -233 130 -233 131.5 -227.5 c 128,-1,112
 133 -222 133 -222 138 -216 c 2,113,-1
 140 -214 l 2,114,115
 141 -213 141 -213 141 -212 c 0,116,117
 128 -167 128 -167 98 -141 c 1,118,119
 94 -167 94 -167 83 -187 c 0,120,121
 73 -204 73 -204 55 -218 c 128,-1,122
 37 -232 37 -232 7 -232 c 0,123,124
 -28 -232 -28 -232 -40.5 -209.5 c 128,-1,125
 -53 -187 -53 -187 -48 -161 c 0,126,127
 -44 -141 -44 -141 -31 -126 c 128,-1,128
 -18 -111 -18 -111 -1.5 -102 c 128,-1,129
 15 -93 15 -93 33.5 -90.5 c 128,-1,130
 52 -88 52 -88 69 -93 c 1,131,-1
 81 -33 l 1,132,-1
 120 -33 l 1,74,-1
15 -197 m 0,133,134
 29 -197 29 -197 41.5 -186.5 c 128,-1,135
 54 -176 54 -176 57 -161 c 1,136,137
 59 -156 59 -156 61 -144 c 128,-1,138
 63 -132 63 -132 64 -127 c 1,139,140
 55 -121 55 -121 42.5 -121.5 c 128,-1,141
 30 -122 30 -122 18.5 -126.5 c 128,-1,142
 7 -131 7 -131 -1.5 -140 c 128,-1,143
 -10 -149 -10 -149 -13 -161 c 0,144,145
 -14 -165 -14 -165 -14 -171 c 128,-1,146
 -14 -177 -14 -177 -11.5 -183 c 128,-1,147
 -9 -189 -9 -189 -3 -193 c 128,-1,148
 3 -197 3 -197 15 -197 c 0,133,134
232 -115 m 0,149,150
 242 -115 242 -115 250.5 -109.5 c 128,-1,151
 259 -104 259 -104 264 -95.5 c 128,-1,152
 269 -87 269 -87 270 -78 c 128,-1,153
 271 -69 271 -69 265 -62 c 0,154,155
 257 -53 257 -53 244 -53 c 128,-1,156
 231 -53 231 -53 220 -62 c 0,157,158
 209 -72 209 -72 206.5 -83.5 c 128,-1,159
 204 -95 204 -95 211 -106 c 0,160,161
 218 -115 218 -115 232 -115 c 0,149,150
185 166 m 256,162,163
 199 166 199 166 210 175 c 128,-1,164
 221 184 221 184 224 198 c 0,165,166
 226 211 226 211 219 220.5 c 128,-1,167
 212 230 212 230 198 230 c 256,168,169
 184 230 184 230 172.5 220.5 c 128,-1,170
 161 211 161 211 159 198 c 0,171,172
 156 184 156 184 163.5 175 c 128,-1,173
 171 166 171 166 185 166 c 256,162,163
EndSplineSet
Substitution: 0 65534 'L026' uni0E10.alt1
Substitution: 0 65534 'L026' uni0E10.alt1
EndChar
StartChar: uni0E11
Encoding: 3601 3601 228
Width: 505
Flags: W
Fore
486 349 m 1,0,1
 481 354 481 354 467.5 359.5 c 128,-1,2
 454 365 454 365 434 364 c 1,3,4
 430 359 430 359 413 331.5 c 128,-1,5
 396 304 396 304 372.5 265 c 128,-1,6
 349 226 349 226 321.5 181.5 c 128,-1,7
 294 137 294 137 270 98.5 c 128,-1,8
 246 60 246 60 228.5 33 c 128,-1,9
 211 6 211 6 206 3 c 1,10,11
 203 -1 203 -1 197.5 -4.5 c 128,-1,12
 192 -8 192 -8 180 2 c 0,13,14
 166 13 166 13 181 28 c 0,15,16
 190 36 190 36 192.5 44 c 128,-1,17
 195 52 195 52 194 51 c 1,18,-1
 227 203 l 2,19,20
 236 246 236 246 245.5 267 c 128,-1,21
 255 288 255 288 271 303 c 0,22,23
 283 314 283 314 295 324 c 128,-1,24
 307 334 307 334 307 341 c 0,25,26
 307 349 307 349 299.5 357.5 c 128,-1,27
 292 366 292 366 289 370 c 1,28,29
 284 366 284 366 275.5 361 c 128,-1,30
 267 356 267 356 259 350 c 1,31,32
 260 343 260 343 258.5 337 c 128,-1,33
 257 331 257 331 246 326 c 0,34,35
 234 321 234 321 231 326.5 c 128,-1,36
 228 332 228 332 225 339 c 0,37,38
 215 362 215 362 201 368.5 c 128,-1,39
 187 375 187 375 172.5 370.5 c 128,-1,40
 158 366 158 366 145 352 c 128,-1,41
 132 338 132 338 125 320 c 1,42,43
 133 329 133 329 145.5 333.5 c 128,-1,44
 158 338 158 338 168 338 c 0,45,46
 195 338 195 338 210 319 c 128,-1,47
 225 300 225 300 219 272 c 0,48,49
 214 245 214 245 190.5 226.5 c 128,-1,50
 167 208 167 208 139 207 c 0,51,52
 124 207 124 207 110 215.5 c 128,-1,53
 96 224 96 224 88 241 c 128,-1,54
 80 258 80 258 81.5 283 c 128,-1,55
 83 308 83 308 100 340 c 0,56,57
 115 368 115 368 135 383 c 128,-1,58
 155 398 155 398 169 402 c 0,59,60
 198 410 198 410 215.5 403.5 c 128,-1,61
 233 397 233 397 247 377 c 1,62,63
 270 392 270 392 285.5 402.5 c 128,-1,64
 301 413 301 413 317 400 c 0,65,66
 321 397 321 397 326.5 390.5 c 128,-1,67
 332 384 332 384 337 376 c 128,-1,68
 342 368 342 368 346 359.5 c 128,-1,69
 350 351 350 351 350 344 c 0,70,71
 350 338 350 338 345 330.5 c 128,-1,72
 340 323 340 323 332 315.5 c 128,-1,73
 324 308 324 308 314.5 300 c 128,-1,74
 305 292 305 292 296 283 c 256,75,76
 287 274 287 274 281.5 262.5 c 128,-1,77
 276 251 276 251 271 228 c 2,78,-1
 246 110 l 1,79,80
 257 129 257 129 273.5 158 c 128,-1,81
 290 187 290 187 309 219 c 128,-1,82
 328 251 328 251 347.5 284 c 128,-1,83
 367 317 367 317 382.5 343 c 128,-1,84
 398 369 398 369 408 385.5 c 128,-1,85
 418 402 418 402 419 402 c 0,86,87
 461 400 461 400 482 393.5 c 128,-1,88
 503 387 503 387 515 378 c 1,89,90
 517 380 517 380 522.5 379 c 128,-1,91
 528 378 528 378 534 370 c 0,92,93
 541 359 541 359 537.5 354 c 128,-1,94
 534 349 534 349 526 342 c 0,95,96
 518 336 518 336 515 321 c 2,97,-1
 447 0 l 1,98,-1
 408 0 l 1,99,-1
 477 328 l 2,100,101
 479 334 479 334 480 339 c 128,-1,102
 481 344 481 344 486 349 c 1,0,1
160 305 m 256,103,104
 146 305 146 305 135 295.5 c 128,-1,105
 124 286 124 286 121 272 c 0,106,107
 119 259 119 259 126 249.5 c 128,-1,108
 133 240 133 240 147 240 c 256,109,110
 161 240 161 240 172 249.5 c 128,-1,111
 183 259 183 259 185 272 c 0,112,113
 188 286 188 286 181 295.5 c 128,-1,114
 174 305 174 305 160 305 c 256,103,104
EndSplineSet
EndChar
StartChar: uni0E12
Encoding: 3602 3602 229
Width: 617
Flags: W
Fore
365 138 m 1,0,1
 347 136 347 136 329 122.5 c 128,-1,2
 311 109 311 109 304 84 c 0,3,4
 296 58 296 58 304 42.5 c 128,-1,5
 312 27 312 27 329 27 c 0,6,7
 332 27 332 27 337.5 31 c 128,-1,8
 343 35 343 35 346 49 c 2,9,-1
 365 138 l 1,0,1
411 172 m 1,10,11
 423 171 423 171 439.5 168 c 128,-1,12
 456 165 456 165 474.5 156.5 c 128,-1,13
 493 148 493 148 510.5 133.5 c 128,-1,14
 528 119 528 119 541 95 c 1,15,-1
 606 400 l 1,16,-1
 644 400 l 1,17,-1
 559 0 l 1,18,-1
 521 0 l 1,19,-1
 526 27 l 1,20,21
 523 58 523 58 507.5 79 c 128,-1,22
 492 100 492 100 473 113.5 c 128,-1,23
 454 127 454 127 434.5 133 c 128,-1,24
 415 139 415 139 404 140 c 1,25,-1
 386 56 l 2,26,27
 381 32 381 32 366 16 c 128,-1,28
 351 0 351 0 330 -3 c 0,29,30
 315 -6 315 -6 301 -0.5 c 128,-1,31
 287 5 287 5 278.5 17.5 c 128,-1,32
 270 30 270 30 268 49 c 128,-1,33
 266 68 266 68 274 92 c 0,34,35
 281 111 281 111 292.5 125 c 128,-1,36
 304 139 304 139 317.5 148.5 c 128,-1,37
 331 158 331 158 345.5 163 c 128,-1,38
 360 168 360 168 372 170 c 1,39,-1
 398 292 l 2,40,41
 399 304 399 304 407 313 c 1,42,43
 407 314 407 314 406 321.5 c 128,-1,44
 405 329 405 329 400.5 338 c 128,-1,45
 396 347 396 347 386.5 356 c 128,-1,46
 377 365 377 365 361 370 c 1,47,48
 356 368 356 368 343.5 361 c 128,-1,49
 331 354 331 354 317 337 c 1,50,51
 317 335 317 335 316 331 c 1,52,53
 314 328 314 328 311.5 324.5 c 128,-1,54
 309 321 309 321 302 319 c 1,55,56
 294 315 294 315 288.5 319 c 128,-1,57
 283 323 283 323 281 330 c 0,58,59
 279 336 279 336 273 343 c 128,-1,60
 267 350 267 350 260 356.5 c 128,-1,61
 253 363 253 363 246.5 367.5 c 128,-1,62
 240 372 240 372 236 373 c 1,63,64
 201 364 201 364 177 339.5 c 128,-1,65
 153 315 153 315 145 277 c 0,66,67
 137 238 137 238 136.5 209.5 c 128,-1,68
 136 181 136 181 138 159 c 128,-1,69
 140 137 140 137 142 118.5 c 128,-1,70
 144 100 144 100 142 82 c 1,71,72
 151 92 151 92 164 104.5 c 128,-1,73
 177 117 177 117 190.5 129.5 c 128,-1,74
 204 142 204 142 217 153 c 128,-1,75
 230 164 230 164 240 172 c 1,76,77
 220 178 220 178 210 195.5 c 128,-1,78
 200 213 200 213 205 236 c 0,79,80
 210 263 210 263 234 282.5 c 128,-1,81
 258 302 258 302 285 302 c 256,82,83
 312 302 312 302 327 282.5 c 128,-1,84
 342 263 342 263 337 236 c 0,85,86
 333 219 333 219 324 205.5 c 128,-1,87
 315 192 315 192 303 181.5 c 128,-1,88
 291 171 291 171 278.5 162.5 c 128,-1,89
 266 154 266 154 256 146 c 0,90,91
 240 133 240 133 220 116 c 128,-1,92
 200 99 200 99 180 80.5 c 128,-1,93
 160 62 160 62 142.5 43.5 c 128,-1,94
 125 25 125 25 115 10 c 0,95,96
 101 -9 101 -9 85 2 c 0,97,98
 76 7 76 7 77.5 12.5 c 128,-1,99
 79 18 79 18 87 26 c 0,100,101
 97 36 97 36 103 48 c 128,-1,102
 109 60 109 60 108 86 c 0,103,104
 108 109 108 109 105.5 131 c 128,-1,105
 103 153 103 153 102 175.5 c 128,-1,106
 101 198 101 198 102 222.5 c 128,-1,107
 103 247 103 247 109 274 c 0,108,109
 120 326 120 326 150 357.5 c 128,-1,110
 180 389 180 389 232 406 c 0,111,112
 249 411 249 411 270 396.5 c 128,-1,113
 291 382 291 382 304 364 c 1,114,115
 324 383 324 383 343 395.5 c 128,-1,116
 362 408 362 408 378 403 c 0,117,118
 407 392 407 392 420.5 374 c 128,-1,119
 434 356 434 356 436 343 c 1,120,121
 439 345 439 345 444 344 c 128,-1,122
 449 343 449 343 455 335 c 0,123,124
 462 324 462 324 458.5 319 c 128,-1,125
 455 314 455 314 447 307 c 0,126,127
 438 300 438 300 435 286 c 2,128,-1
 411 172 l 1,10,11
239 236 m 0,129,130
 236 222 236 222 243 212.5 c 128,-1,131
 250 203 250 203 264 203 c 256,132,133
 278 203 278 203 289 212.5 c 128,-1,134
 300 222 300 222 303 236 c 0,135,136
 305 249 305 249 298 258.5 c 128,-1,137
 291 268 291 268 277 268 c 256,138,139
 263 268 263 268 252 258.5 c 128,-1,140
 241 249 241 249 239 236 c 0,129,130
EndSplineSet
EndChar
StartChar: uni0E13
Encoding: 3603 3603 230
Width: 624
Flags: W
Fore
388 292 m 2,0,1
 389 304 389 304 397 313 c 1,2,3
 395 317 395 317 389 327.5 c 128,-1,4
 383 338 383 338 371 348 c 128,-1,5
 359 358 359 358 339.5 366 c 128,-1,6
 320 374 320 374 291 374 c 0,7,8
 257 374 257 374 231.5 365.5 c 128,-1,9
 206 357 206 357 187.5 345 c 128,-1,10
 169 333 169 333 157 320 c 128,-1,11
 145 307 145 307 139 298 c 1,12,-1
 173 273 l 1,13,14
 181 281 181 281 195.5 290.5 c 128,-1,15
 210 300 210 300 222 302 c 0,16,17
 223 302 223 302 228 292 c 128,-1,18
 233 282 233 282 236 275 c 1,19,20
 203 261 203 261 189 240.5 c 128,-1,21
 175 220 175 220 172 205 c 2,22,-1
 154 121 l 1,23,24
 169 127 169 127 181 127 c 0,25,26
 209 127 209 127 224 107.5 c 128,-1,27
 239 88 239 88 233 61 c 0,28,29
 228 34 228 34 204.5 14.5 c 128,-1,30
 181 -5 181 -5 153 -5 c 0,31,32
 126 -5 126 -5 111.5 14.5 c 128,-1,33
 97 34 97 34 102 61 c 2,34,-1
 133 206 l 2,35,36
 136 218 136 218 141.5 228.5 c 128,-1,37
 147 239 147 239 150 243 c 1,38,-1
 90 284 l 1,39,40
 93 290 93 290 106 309.5 c 128,-1,41
 119 329 119 329 144.5 351 c 128,-1,42
 170 373 170 373 207.5 390 c 128,-1,43
 245 407 245 407 297 408 c 0,44,45
 326 408 326 408 347.5 402.5 c 128,-1,46
 369 397 369 397 384 387.5 c 128,-1,47
 399 378 399 378 409 366.5 c 128,-1,48
 419 355 419 355 425 343 c 1,49,50
 428 345 428 345 433.5 344 c 128,-1,51
 439 343 439 343 445 335 c 0,52,53
 452 324 452 324 448.5 319 c 128,-1,54
 445 314 445 314 437 307 c 0,55,56
 428 300 428 300 425 286 c 2,57,-1
 383 88 l 1,58,59
 402 108 402 108 424.5 122 c 128,-1,60
 447 136 447 136 470.5 144.5 c 128,-1,61
 494 153 494 153 516.5 155.5 c 128,-1,62
 539 158 539 158 557 155 c 1,63,-1
 610 400 l 1,64,-1
 648 400 l 1,65,-1
 592 139 l 1,66,67
 614 128 614 128 618.5 108.5 c 128,-1,68
 623 89 623 89 620 72 c 0,69,70
 613 41 613 41 587 20 c 128,-1,71
 561 -1 561 -1 530 -1 c 0,72,73
 501 -1 501 -1 482 18 c 128,-1,74
 463 37 463 37 471 72 c 0,75,76
 472 78 472 78 476 86.5 c 128,-1,77
 480 95 480 95 486 103 c 128,-1,78
 492 111 492 111 499 117.5 c 128,-1,79
 506 124 506 124 513 127 c 1,80,81
 475 122 475 122 445 100 c 128,-1,82
 415 78 415 78 393 54.5 c 128,-1,83
 371 31 371 31 356.5 13 c 128,-1,84
 342 -5 342 -5 336 -3 c 1,85,86
 329 -3 329 -3 323.5 2.5 c 128,-1,87
 318 8 318 8 317 13 c 1,88,89
 317 22 317 22 325 28 c 128,-1,90
 333 34 333 34 335 43 c 2,91,-1
 388 292 l 2,0,1
174 93 m 0,92,93
 161 93 161 93 149.5 84 c 128,-1,94
 138 75 138 75 135 61 c 0,95,96
 133 47 133 47 140.5 38 c 128,-1,97
 148 29 148 29 161 29 c 0,98,99
 175 29 175 29 186.5 38 c 128,-1,100
 198 47 198 47 200 61 c 0,101,102
 203 75 203 75 195.5 84 c 128,-1,103
 188 93 188 93 174 93 c 0,92,93
538 33 m 256,104,105
 555 33 555 33 568 44.5 c 128,-1,106
 581 56 581 56 585 72 c 0,107,108
 588 88 588 88 579.5 100 c 128,-1,109
 571 112 571 112 554 112 c 0,110,111
 539 112 539 112 524.5 100.5 c 128,-1,112
 510 89 510 89 507 72 c 0,113,114
 504 57 504 57 512.5 45 c 128,-1,115
 521 33 521 33 538 33 c 256,104,105
EndSplineSet
EndChar
StartChar: uni0E14
Encoding: 3604 3604 231
Width: 428
Flags: W
Fore
403 315 m 1,0,1
 397 324.5 l 130,-1,2
 391 334 391 334 378 345 c 128,-1,3
 365 356 365 356 344 365 c 128,-1,4
 323 374 323 374 293 374 c 0,5,6
 266 374 266 374 241 366 c 128,-1,7
 216 358 216 358 195.5 343.5 c 128,-1,8
 175 329 175 329 160.5 309 c 128,-1,9
 146 289 146 289 140 265 c 0,10,11
 132 235 132 235 129 208.5 c 128,-1,12
 126 182 126 182 125.5 159.5 c 128,-1,13
 125 137 125 137 125.5 118 c 128,-1,14
 126 99 126 99 125 85 c 1,15,16
 151 117 151 117 181.5 145 c 128,-1,17
 212 173 212 173 232 190 c 1,18,19
 213 197 213 197 203.5 214 c 128,-1,20
 194 231 194 231 199 253 c 0,21,22
 205 281 205 281 228 300 c 128,-1,23
 251 319 251 319 279 319 c 0,24,25
 306 319 306 319 321 300 c 128,-1,26
 336 281 336 281 330 253 c 0,27,28
 326 236 326 236 315 221.5 c 128,-1,29
 304 207 304 207 292 196.5 c 128,-1,30
 280 186 280 186 270.5 180.5 c 128,-1,31
 262 176 262 176 261 175 c 0,32,33
 220 141 220 141 181 102.5 c 128,-1,34
 142 64 142 64 108 15 c 0,35,36
 94 -8 94 -8 80 0 c 0,37,38
 67 6 67 6 67 11 c 128,-1,39
 67 16 67 16 78 29 c 0,40,41
 85 37 85 37 89.5 52.5 c 128,-1,42
 94 68 94 68 93 99 c 0,43,44
 91 130 91 130 92 172 c 128,-1,45
 93 214 93 214 104 263 c 0,46,47
 111 294 111 294 129.5 321 c 128,-1,48
 148 348 148 348 174.5 367 c 128,-1,49
 201 386 201 386 232.5 397 c 128,-1,50
 264 408 264 408 299 408 c 0,51,52
 352 408 352 408 384 388 c 128,-1,53
 416 368 416 368 430 343 c 1,54,55
 433 345 433 345 438.5 344 c 128,-1,56
 444 343 444 343 450 335 c 0,57,58
 457 324 457 324 453.5 319 c 128,-1,59
 450 314 450 314 442 307 c 0,60,61
 433 300 433 300 430 286 c 2,62,-1
 370 0 l 1,63,-1
 331 0 l 1,64,-1
 393 294 l 2,65,66
 396 307 396 307 403 315 c 1,0,1
232 253 m 0,67,68
 230 240 230 240 237 230.5 c 128,-1,69
 244 221 244 221 258 221 c 0,70,71
 271 221 271 221 283 230.5 c 128,-1,72
 295 240 295 240 297 253 c 0,73,74
 300 267 300 267 292.5 276 c 128,-1,75
 285 285 285 285 272 285 c 0,76,77
 258 285 258 285 246.5 276 c 128,-1,78
 235 267 235 267 232 253 c 0,67,68
EndSplineSet
EndChar
StartChar: uni0E15
Encoding: 3605 3605 232
Width: 429
Flags: W
Fore
371 0 m 1,0,-1
 332 0 l 1,1,-1
 394 292 l 2,2,3
 395 304 395 304 403 313 c 1,4,5
 403 314 403 314 402 321.5 c 128,-1,6
 401 329 401 329 396.5 338 c 128,-1,7
 392 347 392 347 382.5 356 c 128,-1,8
 373 365 373 365 357 370 c 1,9,10
 352 368 352 368 339.5 361 c 128,-1,11
 327 354 327 354 313 337 c 1,12,13
 313 335 313 335 312 331 c 1,14,15
 310 328 310 328 307.5 324.5 c 128,-1,16
 305 321 305 321 298 319 c 1,17,18
 290 315 290 315 284.5 319 c 128,-1,19
 279 323 279 323 277 330 c 0,20,21
 275 336 275 336 269 343 c 128,-1,22
 263 350 263 350 256 356.5 c 128,-1,23
 249 363 249 363 242.5 367.5 c 128,-1,24
 236 372 236 372 232 373 c 1,25,26
 197 364 197 364 173 339.5 c 128,-1,27
 149 315 149 315 141 277 c 0,28,29
 133 238 133 238 132.5 209.5 c 128,-1,30
 132 181 132 181 134 159 c 128,-1,31
 136 137 136 137 138 118.5 c 128,-1,32
 140 100 140 100 138 82 c 1,33,34
 147 92 147 92 160 104.5 c 128,-1,35
 173 117 173 117 186.5 129.5 c 128,-1,36
 200 142 200 142 213 153 c 128,-1,37
 226 164 226 164 236 172 c 1,38,39
 216 178 216 178 206 195.5 c 128,-1,40
 196 213 196 213 201 236 c 0,41,42
 206 263 206 263 230 282.5 c 128,-1,43
 254 302 254 302 281 302 c 256,44,45
 308 302 308 302 323 282.5 c 128,-1,46
 338 263 338 263 333 236 c 0,47,48
 329 219 329 219 320 205.5 c 128,-1,49
 311 192 311 192 299 181.5 c 128,-1,50
 287 171 287 171 274.5 162.5 c 128,-1,51
 262 154 262 154 252 146 c 0,52,53
 236 133 236 133 216 116 c 128,-1,54
 196 99 196 99 176 80.5 c 128,-1,55
 156 62 156 62 138.5 43.5 c 128,-1,56
 121 25 121 25 111 10 c 0,57,58
 97 -9 97 -9 81 2 c 0,59,60
 72 7 72 7 73.5 12.5 c 128,-1,61
 75 18 75 18 83 26 c 0,62,63
 93 36 93 36 99 48 c 128,-1,64
 105 60 105 60 104 86 c 0,65,66
 104 109 104 109 101.5 131 c 128,-1,67
 99 153 99 153 98 175.5 c 128,-1,68
 97 198 97 198 98 222.5 c 128,-1,69
 99 247 99 247 105 274 c 0,70,71
 116 326 116 326 146 357.5 c 128,-1,72
 176 389 176 389 228 406 c 0,73,74
 245 411 245 411 266 396.5 c 128,-1,75
 287 382 287 382 300 364 c 1,76,77
 320 383 320 383 339 395.5 c 128,-1,78
 358 408 358 408 374 403 c 0,79,80
 403 392 403 392 416.5 374 c 128,-1,81
 430 356 430 356 432 343 c 1,82,83
 435 345 435 345 440 344 c 128,-1,84
 445 343 445 343 451 335 c 0,85,86
 458 324 458 324 454.5 319 c 128,-1,87
 451 314 451 314 443 307 c 0,88,89
 434 300 434 300 431 286 c 2,90,-1
 371 0 l 1,0,-1
235 236 m 0,91,92
 232 222 232 222 239 212.5 c 128,-1,93
 246 203 246 203 260 203 c 256,94,95
 274 203 274 203 285 212.5 c 128,-1,96
 296 222 296 222 299 236 c 0,97,98
 301 249 301 249 294 258.5 c 128,-1,99
 287 268 287 268 273 268 c 256,100,101
 259 268 259 268 248 258.5 c 128,-1,102
 237 249 237 249 235 236 c 0,91,92
EndSplineSet
EndChar
